G75*
G70*
%OFA0B0*%
%FSLAX24Y24*%
%IPPOS*%
%LPD*%
%AMOC8*
5,1,8,0,0,1.08239X$1,22.5*
%
%ADD10C,0.0416*%
%ADD11R,0.0512X0.0118*%
%ADD12R,0.0118X0.0512*%
%ADD13R,0.1850X0.1850*%
%ADD14R,0.0157X0.0709*%
%ADD15O,0.0416X0.0831*%
%ADD16R,0.0394X0.0787*%
%ADD17R,0.0650X0.0650*%
%ADD18R,0.0315X0.0157*%
%ADD19R,0.0315X0.0236*%
%ADD20R,0.0236X0.0315*%
%ADD21R,0.0157X0.0315*%
%ADD22R,0.0945X0.0787*%
%ADD23R,0.0236X0.0256*%
%ADD24R,0.0236X0.0197*%
%ADD25R,0.0256X0.0236*%
%ADD26R,0.0197X0.0236*%
%ADD27R,0.0276X0.0512*%
%ADD28C,0.0060*%
%ADD29C,0.0270*%
%ADD30C,0.0160*%
%ADD31C,0.0240*%
%ADD32C,0.0100*%
D10*
X005323Y014061D03*
X006111Y014061D03*
X006504Y014848D03*
X007292Y014848D03*
X007685Y014061D03*
X008473Y014061D03*
X008867Y014848D03*
X008079Y014848D03*
X008079Y015832D03*
X007685Y016620D03*
X007292Y015832D03*
X006898Y016620D03*
X006504Y015832D03*
X006111Y016620D03*
X005717Y015832D03*
X005323Y016620D03*
X004930Y015832D03*
X004930Y014848D03*
X005717Y014848D03*
X006898Y014061D03*
X008867Y015832D03*
X008473Y016620D03*
X010048Y016620D03*
X010441Y015832D03*
X010835Y016620D03*
X011229Y015832D03*
X011622Y016620D03*
X012016Y015832D03*
X012410Y016620D03*
X012016Y014848D03*
X011229Y014848D03*
X011622Y014061D03*
X010835Y014061D03*
X010048Y014061D03*
X010441Y014848D03*
X012410Y014061D03*
D11*
X010955Y010486D03*
X010955Y010230D03*
X010955Y009974D03*
X010955Y009718D03*
X010955Y009462D03*
X010955Y009206D03*
X010955Y008950D03*
X010955Y008694D03*
X008140Y008694D03*
X008140Y008950D03*
X008140Y009206D03*
X008140Y009462D03*
X008140Y009718D03*
X008140Y009974D03*
X008140Y010230D03*
X008140Y010486D03*
D12*
X008652Y010998D03*
X008908Y010998D03*
X009164Y010998D03*
X009420Y010998D03*
X009676Y010998D03*
X009931Y010998D03*
X010187Y010998D03*
X010443Y010998D03*
X010443Y008183D03*
X010187Y008183D03*
X009931Y008183D03*
X009676Y008183D03*
X009420Y008183D03*
X009164Y008183D03*
X008908Y008183D03*
X008652Y008183D03*
D13*
X009548Y009590D03*
D14*
X009309Y004193D03*
X009054Y004193D03*
X008798Y004193D03*
X008542Y004193D03*
X008286Y004193D03*
D15*
X007853Y004271D03*
X009743Y004271D03*
D16*
X009054Y003090D03*
X008542Y003090D03*
D17*
X007794Y003090D03*
X009802Y003090D03*
D18*
X007809Y005966D03*
X007809Y006340D03*
X007809Y006714D03*
X006786Y006714D03*
X006786Y005966D03*
X012536Y005966D03*
X012536Y006714D03*
X012536Y007466D03*
X012536Y008214D03*
X013559Y007840D03*
X013559Y006340D03*
D19*
X013798Y006775D03*
X013798Y007405D03*
X013798Y008275D03*
X013798Y008905D03*
X012048Y008155D03*
X012048Y007525D03*
X012048Y006655D03*
X012048Y006025D03*
X009798Y006025D03*
X009298Y006025D03*
X009298Y006655D03*
X009798Y006655D03*
X006298Y005905D03*
X006298Y005275D03*
X004798Y005155D03*
X004298Y005155D03*
X004298Y004525D03*
X004298Y004155D03*
X004798Y004155D03*
X004798Y004525D03*
X004798Y003525D03*
X004298Y003525D03*
X009418Y011775D03*
X009418Y012405D03*
D20*
X009733Y005590D03*
X010363Y005590D03*
X007863Y005340D03*
X007233Y005340D03*
D21*
X010424Y006852D03*
X011172Y006852D03*
X010798Y005828D03*
D22*
X006298Y008803D03*
X006298Y010378D03*
D23*
X011983Y010328D03*
X012573Y010328D03*
X012573Y011352D03*
X011983Y011352D03*
D24*
X011983Y010998D03*
X011983Y010683D03*
X012573Y010683D03*
X012573Y010998D03*
D25*
X012286Y009866D03*
X012286Y009275D03*
X013309Y009275D03*
X013309Y009866D03*
D26*
X012955Y009866D03*
X012640Y009866D03*
X012640Y009275D03*
X012955Y009275D03*
D27*
X004691Y009513D03*
X003904Y009513D03*
X003904Y008167D03*
X004691Y008167D03*
X004691Y006513D03*
X003904Y006513D03*
X003904Y011167D03*
X004691Y011167D03*
D28*
X003543Y003358D02*
X003605Y003208D01*
X003686Y003069D01*
X003784Y002941D01*
X003898Y002826D01*
X004026Y002728D01*
X004166Y002647D01*
X004315Y002586D01*
X004471Y002544D01*
X004631Y002523D01*
X004712Y002520D01*
X012884Y002520D01*
X012964Y002523D01*
X013124Y002544D01*
X013280Y002586D01*
X013429Y002647D01*
X013569Y002728D01*
X013697Y002826D01*
X013811Y002941D01*
X013910Y003069D01*
X013990Y003208D01*
X014052Y003358D01*
X014094Y003514D01*
X014115Y003674D01*
X014118Y003754D01*
X014118Y006062D01*
X012638Y004582D01*
X012556Y004500D01*
X010840Y004500D01*
X010815Y004441D01*
X010746Y004372D01*
X010656Y004335D01*
X010559Y004335D01*
X010469Y004372D01*
X010400Y004441D01*
X010363Y004531D01*
X010363Y004629D01*
X010400Y004719D01*
X010461Y004780D01*
X010344Y004780D01*
X010326Y004762D01*
X010236Y004725D01*
X010139Y004725D01*
X010049Y004762D01*
X009980Y004831D01*
X009943Y004921D01*
X009943Y005019D01*
X009980Y005109D01*
X010049Y005178D01*
X010139Y005215D01*
X010236Y005215D01*
X010326Y005178D01*
X010344Y005160D01*
X011999Y005160D01*
X012346Y005507D01*
X012346Y005777D01*
X012333Y005777D01*
X012290Y005820D01*
X012274Y005820D01*
X012251Y005797D01*
X011845Y005797D01*
X011780Y005861D01*
X011780Y006189D01*
X011845Y006253D01*
X012251Y006253D01*
X012315Y006189D01*
X012315Y006137D01*
X012333Y006155D01*
X012456Y006155D01*
X012457Y006156D01*
X012614Y006156D01*
X012815Y006156D01*
X012848Y006189D01*
X012848Y007261D01*
X012833Y007276D01*
X012457Y007276D01*
X012456Y007277D01*
X012333Y007277D01*
X012282Y007328D01*
X012251Y007297D01*
X012079Y007297D01*
X012473Y006903D01*
X012739Y006903D01*
X012803Y006838D01*
X012803Y006590D01*
X012739Y006525D01*
X012333Y006525D01*
X012315Y006543D01*
X012315Y006491D01*
X012251Y006427D01*
X011845Y006427D01*
X011780Y006491D01*
X011780Y006819D01*
X011845Y006883D01*
X012097Y006883D01*
X011870Y007110D01*
X011305Y007110D01*
X011360Y007055D01*
X011360Y006649D01*
X011296Y006584D01*
X011047Y006584D01*
X010983Y006649D01*
X010983Y006780D01*
X010910Y006780D01*
X010828Y006862D01*
X010210Y007480D01*
X010223Y007449D01*
X010223Y007353D01*
X010456Y007119D01*
X010548Y007119D01*
X010612Y007055D01*
X010612Y006649D01*
X010548Y006584D01*
X010299Y006584D01*
X010235Y006649D01*
X010235Y006945D01*
X010025Y007155D01*
X009929Y007155D01*
X009839Y007192D01*
X009818Y007214D01*
X009818Y006883D01*
X010001Y006883D01*
X010065Y006819D01*
X010065Y006491D01*
X010001Y006427D01*
X009595Y006427D01*
X009548Y006474D01*
X009501Y006427D01*
X009095Y006427D01*
X009038Y006484D01*
X009038Y006196D01*
X009095Y006253D01*
X009501Y006253D01*
X009548Y006206D01*
X009595Y006253D01*
X010001Y006253D01*
X010065Y006189D01*
X010065Y005861D01*
X010001Y005797D01*
X009957Y005797D01*
X009961Y005793D01*
X009961Y005387D01*
X009896Y005323D01*
X009569Y005323D01*
X009554Y005338D01*
X008938Y004722D01*
X008938Y004657D01*
X009157Y004657D01*
X009177Y004677D01*
X009300Y004677D01*
X009300Y004202D01*
X009319Y004202D01*
X009319Y004677D01*
X009442Y004677D01*
X009452Y004666D01*
X009603Y004817D01*
X009713Y004817D01*
X009713Y004301D01*
X009772Y004301D01*
X009772Y004817D01*
X009882Y004817D01*
X010080Y004619D01*
X010080Y004301D01*
X009773Y004301D01*
X009773Y004241D01*
X010080Y004241D01*
X010080Y003924D01*
X009882Y003726D01*
X009772Y003726D01*
X009772Y004241D01*
X009713Y004241D01*
X009713Y003726D01*
X009603Y003726D01*
X009518Y003810D01*
X009518Y003784D01*
X009442Y003708D01*
X009319Y003708D01*
X009319Y004183D01*
X009300Y004183D01*
X009300Y003708D01*
X009177Y003708D01*
X009157Y003728D01*
X008929Y003728D01*
X008926Y003732D01*
X008922Y003728D01*
X008673Y003728D01*
X008670Y003732D01*
X008666Y003728D01*
X008417Y003728D01*
X008414Y003732D01*
X008410Y003728D01*
X008161Y003728D01*
X008097Y003793D01*
X008097Y003830D01*
X007993Y003726D01*
X007883Y003726D01*
X007883Y004241D01*
X007823Y004241D01*
X007823Y003726D01*
X007713Y003726D01*
X007515Y003924D01*
X007515Y004241D01*
X007823Y004241D01*
X007823Y004301D01*
X007515Y004301D01*
X007515Y004619D01*
X007713Y004817D01*
X007823Y004817D01*
X007823Y004301D01*
X007883Y004301D01*
X007883Y004817D01*
X007993Y004817D01*
X008126Y004684D01*
X008126Y004813D01*
X008078Y004861D01*
X008078Y004904D01*
X007909Y005073D01*
X007699Y005073D01*
X007634Y005137D01*
X007634Y005275D01*
X007619Y005290D01*
X007619Y005447D01*
X007619Y005777D01*
X007606Y005777D01*
X007542Y005842D01*
X007542Y006090D01*
X007591Y006139D01*
X007522Y006208D01*
X007522Y006331D01*
X007800Y006331D01*
X007800Y006350D01*
X007522Y006350D01*
X007522Y006473D01*
X007591Y006541D01*
X007542Y006590D01*
X007542Y006838D01*
X007606Y006903D01*
X008012Y006903D01*
X008032Y006883D01*
X008098Y006948D01*
X008098Y007608D01*
X008180Y007690D01*
X008180Y007690D01*
X008483Y007993D01*
X008483Y008400D01*
X008432Y008400D01*
X008368Y008465D01*
X008368Y008525D01*
X008039Y008525D01*
X008063Y008469D01*
X008063Y008371D01*
X008025Y008281D01*
X007956Y008212D01*
X007927Y008200D01*
X007971Y008200D01*
X008039Y008268D01*
X008129Y008305D01*
X008226Y008305D01*
X008316Y008268D01*
X008385Y008199D01*
X008423Y008109D01*
X008423Y008011D01*
X008385Y007921D01*
X008316Y007852D01*
X008226Y007815D01*
X008129Y007815D01*
X008039Y007852D01*
X007971Y007920D01*
X007336Y007920D01*
X007220Y007920D01*
X007206Y007934D01*
X006548Y007275D01*
X006548Y006868D01*
X006583Y006903D01*
X006989Y006903D01*
X007053Y006838D01*
X007053Y006590D01*
X006989Y006525D01*
X006583Y006525D01*
X006548Y006561D01*
X006548Y006156D01*
X006864Y006156D01*
X006866Y006155D01*
X006989Y006155D01*
X007053Y006090D01*
X007053Y005842D01*
X006989Y005777D01*
X006866Y005777D01*
X006864Y005776D01*
X006565Y005776D01*
X006565Y005741D01*
X006501Y005677D01*
X006395Y005677D01*
X006393Y005675D01*
X006202Y005675D01*
X006201Y005676D01*
X005378Y004852D01*
X005378Y003832D01*
X005296Y003750D01*
X005065Y003520D01*
X005065Y003361D01*
X005001Y003297D01*
X004595Y003297D01*
X004548Y003344D01*
X004501Y003297D01*
X004095Y003297D01*
X004030Y003361D01*
X004030Y003689D01*
X004095Y003753D01*
X004501Y003753D01*
X004548Y003706D01*
X004595Y003753D01*
X004903Y003753D01*
X005098Y003948D01*
X005098Y004852D01*
X005098Y004968D01*
X006030Y005901D01*
X006030Y006069D01*
X006088Y006126D01*
X006088Y007275D01*
X006088Y007465D01*
X006868Y008245D01*
X006868Y008351D01*
X006816Y008299D01*
X005780Y008299D01*
X005715Y008363D01*
X005715Y009242D01*
X005780Y009306D01*
X006676Y009306D01*
X006972Y009602D01*
X006978Y009602D01*
X006706Y009874D01*
X005780Y009874D01*
X005715Y009938D01*
X005715Y010817D01*
X005759Y010860D01*
X004934Y010860D01*
X004875Y010801D01*
X004831Y010801D01*
X004831Y009879D01*
X004875Y009879D01*
X004939Y009815D01*
X004939Y009212D01*
X004875Y009147D01*
X004538Y009147D01*
X004538Y008628D01*
X004633Y008533D01*
X004875Y008533D01*
X004939Y008468D01*
X004939Y007865D01*
X004875Y007801D01*
X004831Y007801D01*
X004831Y006879D01*
X004875Y006879D01*
X004939Y006815D01*
X004939Y006212D01*
X004875Y006147D01*
X004508Y006147D01*
X004444Y006212D01*
X004444Y006815D01*
X004508Y006879D01*
X004551Y006879D01*
X004551Y007801D01*
X004508Y007801D01*
X004444Y007865D01*
X004444Y008326D01*
X004258Y008512D01*
X004258Y008628D01*
X004258Y011568D01*
X004340Y011650D01*
X004430Y011740D01*
X004546Y011740D01*
X004936Y011740D01*
X005018Y011658D01*
X005356Y011320D01*
X006916Y011320D01*
X006998Y011238D01*
X007153Y011083D01*
X007153Y011107D01*
X006860Y011400D01*
X006778Y011482D01*
X006778Y012202D01*
X005600Y013380D01*
X005518Y013462D01*
X005518Y013777D01*
X005515Y013774D01*
X005390Y013723D01*
X005353Y013723D01*
X005353Y014030D01*
X005293Y014030D01*
X005293Y013723D01*
X005256Y013723D01*
X005132Y013774D01*
X005037Y013869D01*
X004985Y013993D01*
X004985Y014031D01*
X005293Y014031D01*
X005293Y014091D01*
X005293Y014398D01*
X005256Y014398D01*
X005132Y014347D01*
X005037Y014252D01*
X004985Y014128D01*
X004985Y014091D01*
X005293Y014091D01*
X005353Y014091D01*
X005353Y014347D01*
X005270Y014430D01*
X005188Y014512D01*
X005188Y014628D01*
X005121Y014562D01*
X004997Y014510D01*
X004959Y014510D01*
X004959Y014818D01*
X004900Y014818D01*
X004900Y014510D01*
X004862Y014510D01*
X004738Y014562D01*
X004643Y014657D01*
X004592Y014781D01*
X004592Y014818D01*
X004899Y014818D01*
X004899Y014878D01*
X004592Y014878D01*
X004592Y014915D01*
X004643Y015039D01*
X004738Y015134D01*
X004862Y015186D01*
X004900Y015186D01*
X004900Y014878D01*
X004959Y014878D01*
X004959Y015186D01*
X004997Y015186D01*
X005121Y015134D01*
X005188Y015068D01*
X005188Y015352D01*
X005016Y015524D01*
X004993Y015514D01*
X004866Y015514D01*
X004749Y015563D01*
X004660Y015652D01*
X004612Y015769D01*
X004612Y015895D01*
X004660Y016012D01*
X004749Y016102D01*
X004866Y016150D01*
X004993Y016150D01*
X005110Y016102D01*
X005199Y016012D01*
X005247Y015895D01*
X005247Y015769D01*
X005224Y015712D01*
X005468Y015468D01*
X005468Y015352D01*
X005468Y015048D01*
X005537Y015117D01*
X005654Y015166D01*
X005780Y015166D01*
X005897Y015117D01*
X005968Y015047D01*
X005968Y015412D01*
X005840Y015539D01*
X005780Y015514D01*
X005654Y015514D01*
X005537Y015563D01*
X005448Y015652D01*
X005399Y015769D01*
X005399Y015895D01*
X005448Y016012D01*
X005537Y016102D01*
X005654Y016150D01*
X005780Y016150D01*
X005897Y016102D01*
X005986Y016012D01*
X006035Y015895D01*
X006035Y015769D01*
X006026Y015749D01*
X006248Y015528D01*
X006248Y015412D01*
X006248Y015041D01*
X006324Y015117D01*
X006441Y015166D01*
X006568Y015166D01*
X006684Y015117D01*
X006774Y015028D01*
X006822Y014911D01*
X006822Y014785D01*
X006774Y014668D01*
X006684Y014579D01*
X006638Y014559D01*
X006638Y014250D01*
X006718Y014330D01*
X006835Y014378D01*
X006961Y014378D01*
X007078Y014330D01*
X007138Y014270D01*
X007138Y014328D01*
X007340Y014530D01*
X007229Y014530D01*
X007112Y014579D01*
X007022Y014668D01*
X006974Y014785D01*
X006974Y014911D01*
X007022Y015028D01*
X007112Y015117D01*
X007229Y015166D01*
X007355Y015166D01*
X007472Y015117D01*
X007561Y015028D01*
X007609Y014911D01*
X007609Y014785D01*
X007566Y014680D01*
X007730Y014680D01*
X007783Y014733D01*
X007761Y014785D01*
X007761Y014911D01*
X007810Y015028D01*
X007899Y015117D01*
X008016Y015166D01*
X008142Y015166D01*
X008259Y015117D01*
X008349Y015028D01*
X008397Y014911D01*
X008397Y014785D01*
X008349Y014670D01*
X008360Y014680D01*
X008510Y014680D01*
X008568Y014738D01*
X008549Y014785D01*
X008549Y014911D01*
X008597Y015028D01*
X008686Y015117D01*
X008803Y015166D01*
X008893Y015166D01*
X008874Y015212D01*
X008874Y015468D01*
X008893Y015514D01*
X008803Y015514D01*
X008686Y015563D01*
X008597Y015652D01*
X008549Y015769D01*
X008549Y015895D01*
X008597Y016012D01*
X008686Y016102D01*
X008803Y016150D01*
X008930Y016150D01*
X009047Y016102D01*
X009136Y016012D01*
X009183Y015898D01*
X009388Y015983D01*
X009644Y015983D01*
X009880Y015885D01*
X010061Y015704D01*
X010159Y015468D01*
X010159Y015212D01*
X010061Y014976D01*
X009880Y014795D01*
X009644Y014698D01*
X009388Y014698D01*
X009183Y014782D01*
X009136Y014668D01*
X009047Y014579D01*
X008930Y014530D01*
X008803Y014530D01*
X008770Y014544D01*
X008626Y014400D01*
X008510Y014400D01*
X008476Y014400D01*
X008454Y014378D01*
X008536Y014378D01*
X008653Y014330D01*
X008742Y014241D01*
X008791Y014124D01*
X008791Y013997D01*
X008775Y013960D01*
X008896Y013840D01*
X009680Y013840D01*
X009796Y013840D01*
X010388Y013248D01*
X010388Y013132D01*
X010388Y011808D01*
X010868Y011328D01*
X010868Y011212D01*
X010868Y010655D01*
X011257Y010655D01*
X011321Y010590D01*
X011321Y010390D01*
X011480Y010390D01*
X011518Y010428D01*
X011518Y010968D01*
X011600Y011050D01*
X011687Y011138D01*
X011755Y011138D01*
X011755Y011142D01*
X011773Y011160D01*
X011755Y011178D01*
X011755Y011525D01*
X011819Y011590D01*
X012146Y011590D01*
X012211Y011525D01*
X012211Y011178D01*
X012192Y011160D01*
X012211Y011142D01*
X012211Y010854D01*
X012197Y010840D01*
X012211Y010827D01*
X012211Y010539D01*
X012192Y010520D01*
X012211Y010502D01*
X012211Y010155D01*
X012150Y010094D01*
X012378Y010094D01*
X012325Y010147D01*
X012325Y010299D01*
X012544Y010299D01*
X012544Y010357D01*
X012325Y010357D01*
X012325Y010510D01*
X012349Y010534D01*
X012345Y010539D01*
X012345Y010827D01*
X012359Y010840D01*
X012345Y010854D01*
X012345Y011142D01*
X012349Y011146D01*
X012325Y011170D01*
X012325Y011323D01*
X012544Y011323D01*
X012544Y011381D01*
X012325Y011381D01*
X012325Y011534D01*
X012401Y011610D01*
X012544Y011610D01*
X012544Y011381D01*
X012602Y011381D01*
X012602Y011610D01*
X012745Y011610D01*
X012821Y011534D01*
X012821Y011381D01*
X012603Y011381D01*
X012603Y011323D01*
X012821Y011323D01*
X012821Y011170D01*
X012797Y011146D01*
X012801Y011142D01*
X012838Y011178D01*
X012838Y011662D01*
X011038Y013462D01*
X011038Y013578D01*
X011038Y013814D01*
X011015Y013791D01*
X010898Y013743D01*
X010772Y013743D01*
X010655Y013791D01*
X010566Y013881D01*
X010517Y013997D01*
X010517Y014124D01*
X010566Y014241D01*
X010655Y014330D01*
X010772Y014378D01*
X010841Y014378D01*
X010648Y014572D01*
X010648Y014605D01*
X010621Y014579D01*
X010505Y014530D01*
X010378Y014530D01*
X010261Y014579D01*
X010172Y014668D01*
X010124Y014785D01*
X010124Y014911D01*
X010172Y015028D01*
X010261Y015117D01*
X010378Y015166D01*
X010505Y015166D01*
X010621Y015117D01*
X010648Y015091D01*
X010648Y015442D01*
X010555Y015535D01*
X010505Y015514D01*
X010378Y015514D01*
X010261Y015563D01*
X010172Y015652D01*
X010124Y015769D01*
X010124Y015895D01*
X010172Y016012D01*
X010261Y016102D01*
X010378Y016150D01*
X010505Y016150D01*
X010621Y016102D01*
X010695Y016028D01*
X010695Y016334D01*
X010655Y016350D01*
X010566Y016440D01*
X010517Y016556D01*
X010517Y016683D01*
X010566Y016800D01*
X010655Y016889D01*
X010772Y016937D01*
X010898Y016937D01*
X011015Y016889D01*
X011104Y016800D01*
X011153Y016683D01*
X011153Y016556D01*
X011104Y016440D01*
X011015Y016350D01*
X010975Y016334D01*
X010975Y016028D01*
X011049Y016102D01*
X011166Y016150D01*
X011289Y016150D01*
X011432Y016294D01*
X011432Y016360D01*
X011353Y016440D01*
X011305Y016556D01*
X011305Y016683D01*
X011353Y016800D01*
X011442Y016889D01*
X011559Y016937D01*
X011686Y016937D01*
X011802Y016889D01*
X011892Y016800D01*
X011940Y016683D01*
X011940Y016556D01*
X011892Y016440D01*
X011812Y016360D01*
X011812Y016294D01*
X011812Y016136D01*
X011546Y015870D01*
X011546Y015769D01*
X011498Y015652D01*
X011419Y015573D01*
X011419Y015107D01*
X011498Y015028D01*
X011546Y014911D01*
X011546Y014800D01*
X011646Y014700D01*
X011758Y014589D01*
X011758Y014349D01*
X011802Y014330D01*
X011876Y014256D01*
X011876Y014562D01*
X011836Y014579D01*
X011747Y014668D01*
X011698Y014785D01*
X011698Y014911D01*
X011747Y015028D01*
X011836Y015117D01*
X011953Y015166D01*
X012079Y015166D01*
X012196Y015117D01*
X012286Y015028D01*
X012334Y014911D01*
X012334Y014785D01*
X012286Y014668D01*
X012196Y014579D01*
X012156Y014562D01*
X012156Y014285D01*
X012218Y014347D01*
X012343Y014398D01*
X012380Y014398D01*
X012380Y014091D01*
X012440Y014091D01*
X012440Y014398D01*
X012477Y014398D01*
X012601Y014347D01*
X012696Y014252D01*
X012748Y014128D01*
X012748Y014091D01*
X012440Y014091D01*
X012440Y014031D01*
X012748Y014031D01*
X012748Y013993D01*
X012696Y013869D01*
X012601Y013774D01*
X012477Y013723D01*
X012440Y013723D01*
X012440Y014030D01*
X012380Y014030D01*
X012380Y013723D01*
X012343Y013723D01*
X012244Y013764D01*
X014118Y011917D01*
X014118Y015851D01*
X014118Y015926D01*
X014115Y016007D01*
X014094Y016167D01*
X014052Y016323D01*
X013990Y016472D01*
X013910Y016612D01*
X013811Y016740D01*
X013697Y016854D01*
X013569Y016952D01*
X013429Y017033D01*
X013280Y017095D01*
X013124Y017136D01*
X012964Y017158D01*
X012884Y017160D01*
X004712Y017160D01*
X004631Y017158D01*
X004471Y017136D01*
X004315Y017095D01*
X004166Y017033D01*
X004026Y016952D01*
X003898Y016854D01*
X003784Y016740D01*
X003784Y016740D01*
X003686Y016612D01*
X003686Y016612D01*
X003605Y016472D01*
X003543Y016323D01*
X003501Y016167D01*
X003480Y016007D01*
X003478Y015926D01*
X003478Y015851D01*
X003478Y003829D01*
X003478Y003754D01*
X003480Y003674D01*
X003501Y003514D01*
X003543Y003358D01*
X003548Y003346D02*
X004045Y003346D01*
X004030Y003405D02*
X003530Y003405D01*
X003515Y003463D02*
X004030Y003463D01*
X004030Y003522D02*
X003500Y003522D01*
X003493Y003580D02*
X004030Y003580D01*
X004030Y003639D02*
X003485Y003639D01*
X003479Y003698D02*
X004039Y003698D01*
X004095Y003927D02*
X004501Y003927D01*
X004548Y003974D01*
X004595Y003927D01*
X005001Y003927D01*
X005065Y003991D01*
X005065Y004319D01*
X005044Y004340D01*
X005065Y004361D01*
X005065Y004689D01*
X005001Y004753D01*
X004595Y004753D01*
X004548Y004706D01*
X004501Y004753D01*
X004095Y004753D01*
X004030Y004689D01*
X004030Y004361D01*
X004052Y004340D01*
X004030Y004319D01*
X004030Y003991D01*
X004095Y003927D01*
X004090Y003932D02*
X003478Y003932D01*
X003478Y003990D02*
X004031Y003990D01*
X004030Y004049D02*
X003478Y004049D01*
X003478Y004107D02*
X004030Y004107D01*
X004030Y004166D02*
X003478Y004166D01*
X003478Y004224D02*
X004030Y004224D01*
X004030Y004283D02*
X003478Y004283D01*
X003478Y004342D02*
X004050Y004342D01*
X004030Y004400D02*
X003478Y004400D01*
X003478Y004459D02*
X004030Y004459D01*
X004030Y004517D02*
X003478Y004517D01*
X003478Y004576D02*
X004030Y004576D01*
X004030Y004634D02*
X003478Y004634D01*
X003478Y004693D02*
X004034Y004693D01*
X004093Y004751D02*
X003478Y004751D01*
X003478Y004810D02*
X005098Y004810D01*
X005098Y004868D02*
X003478Y004868D01*
X003478Y004927D02*
X005098Y004927D01*
X005115Y004986D02*
X005059Y004986D01*
X005065Y004991D02*
X005065Y005200D01*
X005978Y006112D01*
X005978Y006228D01*
X005978Y007014D01*
X006045Y007081D01*
X006083Y007171D01*
X006083Y007269D01*
X006045Y007359D01*
X005976Y007428D01*
X005971Y007430D01*
X005976Y007432D01*
X006045Y007501D01*
X006083Y007591D01*
X006083Y007689D01*
X006045Y007779D01*
X005976Y007848D01*
X005886Y007885D01*
X005789Y007885D01*
X005699Y007848D01*
X005630Y007779D01*
X005593Y007689D01*
X005593Y007593D01*
X005540Y007540D01*
X005458Y007458D01*
X005458Y006468D01*
X004373Y005383D01*
X004095Y005383D01*
X004030Y005319D01*
X004030Y004991D01*
X004095Y004927D01*
X004501Y004927D01*
X004548Y004974D01*
X004595Y004927D01*
X005001Y004927D01*
X005065Y004991D01*
X005065Y005044D02*
X005174Y005044D01*
X005232Y005103D02*
X005065Y005103D01*
X005065Y005161D02*
X005291Y005161D01*
X005349Y005220D02*
X005085Y005220D01*
X005144Y005278D02*
X005408Y005278D01*
X005466Y005337D02*
X005202Y005337D01*
X005261Y005395D02*
X005525Y005395D01*
X005583Y005454D02*
X005319Y005454D01*
X005378Y005512D02*
X005642Y005512D01*
X005701Y005571D02*
X005436Y005571D01*
X005495Y005629D02*
X005759Y005629D01*
X005818Y005688D02*
X005553Y005688D01*
X005612Y005747D02*
X005876Y005747D01*
X005935Y005805D02*
X005671Y005805D01*
X005729Y005864D02*
X005993Y005864D01*
X006030Y005922D02*
X005788Y005922D01*
X005846Y005981D02*
X006030Y005981D01*
X006030Y006039D02*
X005905Y006039D01*
X005963Y006098D02*
X006059Y006098D01*
X006088Y006156D02*
X005978Y006156D01*
X005978Y006215D02*
X006088Y006215D01*
X006088Y006273D02*
X005978Y006273D01*
X005978Y006332D02*
X006088Y006332D01*
X006088Y006391D02*
X005978Y006391D01*
X005978Y006449D02*
X006088Y006449D01*
X006088Y006508D02*
X005978Y006508D01*
X005978Y006566D02*
X006088Y006566D01*
X006088Y006625D02*
X005978Y006625D01*
X005978Y006683D02*
X006088Y006683D01*
X006088Y006742D02*
X005978Y006742D01*
X005978Y006800D02*
X006088Y006800D01*
X006088Y006859D02*
X005978Y006859D01*
X005978Y006917D02*
X006088Y006917D01*
X006088Y006976D02*
X005978Y006976D01*
X005998Y007035D02*
X006088Y007035D01*
X006088Y007093D02*
X006050Y007093D01*
X006074Y007152D02*
X006088Y007152D01*
X006083Y007210D02*
X006088Y007210D01*
X006083Y007269D02*
X006088Y007269D01*
X006088Y007327D02*
X006058Y007327D01*
X006088Y007386D02*
X006018Y007386D01*
X005988Y007444D02*
X006088Y007444D01*
X006125Y007503D02*
X006046Y007503D01*
X006070Y007561D02*
X006184Y007561D01*
X006242Y007620D02*
X006083Y007620D01*
X006083Y007679D02*
X006301Y007679D01*
X006359Y007737D02*
X006063Y007737D01*
X006029Y007796D02*
X006418Y007796D01*
X006476Y007854D02*
X005961Y007854D01*
X005838Y007640D02*
X005598Y007400D01*
X005598Y006410D01*
X004338Y005150D01*
X004333Y005155D01*
X004298Y005155D01*
X004385Y005395D02*
X003478Y005395D01*
X003478Y005337D02*
X004048Y005337D01*
X004030Y005278D02*
X003478Y005278D01*
X003478Y005220D02*
X004030Y005220D01*
X004030Y005161D02*
X003478Y005161D01*
X003478Y005103D02*
X004030Y005103D01*
X004030Y005044D02*
X003478Y005044D01*
X003478Y004986D02*
X004036Y004986D01*
X004298Y004525D02*
X004298Y004200D01*
X004338Y004160D01*
X004333Y004155D01*
X004298Y004155D01*
X004505Y003932D02*
X004590Y003932D01*
X004798Y004155D02*
X004798Y004170D01*
X004818Y004190D01*
X004798Y004210D01*
X004798Y004525D01*
X005065Y004517D02*
X005098Y004517D01*
X005098Y004459D02*
X005065Y004459D01*
X005065Y004400D02*
X005098Y004400D01*
X005098Y004342D02*
X005045Y004342D01*
X005065Y004283D02*
X005098Y004283D01*
X005098Y004224D02*
X005065Y004224D01*
X005065Y004166D02*
X005098Y004166D01*
X005098Y004107D02*
X005065Y004107D01*
X005065Y004049D02*
X005098Y004049D01*
X005098Y003990D02*
X005064Y003990D01*
X005081Y003932D02*
X005005Y003932D01*
X005023Y003873D02*
X003478Y003873D01*
X003478Y003815D02*
X004964Y003815D01*
X004906Y003756D02*
X003478Y003756D01*
X003572Y003288D02*
X007339Y003288D01*
X007339Y003346D02*
X005050Y003346D01*
X005065Y003405D02*
X007339Y003405D01*
X007339Y003463D02*
X005065Y003463D01*
X005067Y003522D02*
X007392Y003522D01*
X007415Y003545D02*
X007339Y003469D01*
X007339Y003120D01*
X007764Y003120D01*
X007764Y003545D01*
X007415Y003545D01*
X007624Y003815D02*
X005360Y003815D01*
X005378Y003873D02*
X007565Y003873D01*
X007515Y003932D02*
X005378Y003932D01*
X005378Y003990D02*
X007515Y003990D01*
X007515Y004049D02*
X005378Y004049D01*
X005378Y004107D02*
X007515Y004107D01*
X007515Y004166D02*
X005378Y004166D01*
X005378Y004224D02*
X007515Y004224D01*
X007515Y004342D02*
X005378Y004342D01*
X005378Y004400D02*
X007515Y004400D01*
X007515Y004459D02*
X005378Y004459D01*
X005378Y004517D02*
X007515Y004517D01*
X007515Y004576D02*
X005378Y004576D01*
X005378Y004634D02*
X007530Y004634D01*
X007589Y004693D02*
X005378Y004693D01*
X005378Y004751D02*
X007647Y004751D01*
X007706Y004810D02*
X005378Y004810D01*
X005394Y004868D02*
X008078Y004868D01*
X008055Y004927D02*
X005452Y004927D01*
X005511Y004986D02*
X007996Y004986D01*
X007938Y005044D02*
X006526Y005044D01*
X006509Y005027D02*
X006585Y005103D01*
X006585Y005246D01*
X006327Y005246D01*
X006327Y005304D01*
X006585Y005304D01*
X006585Y005447D01*
X006509Y005523D01*
X006327Y005523D01*
X006327Y005304D01*
X006269Y005304D01*
X006269Y005523D01*
X006086Y005523D01*
X006010Y005447D01*
X006010Y005304D01*
X006268Y005304D01*
X006268Y005246D01*
X006010Y005246D01*
X006010Y005103D01*
X006086Y005027D01*
X006269Y005027D01*
X006269Y005246D01*
X006327Y005246D01*
X006327Y005027D01*
X006509Y005027D01*
X006584Y005103D02*
X007011Y005103D01*
X006985Y005129D02*
X007061Y005053D01*
X007204Y005053D01*
X007204Y005311D01*
X007262Y005311D01*
X007262Y005369D01*
X007481Y005369D01*
X007481Y005551D01*
X007405Y005628D01*
X007262Y005628D01*
X007262Y005369D01*
X007204Y005369D01*
X007204Y005628D01*
X007061Y005628D01*
X006985Y005551D01*
X006985Y005369D01*
X007203Y005369D01*
X007203Y005311D01*
X006985Y005311D01*
X006985Y005129D01*
X006985Y005161D02*
X006585Y005161D01*
X006585Y005220D02*
X006985Y005220D01*
X006985Y005278D02*
X006327Y005278D01*
X006327Y005220D02*
X006269Y005220D01*
X006268Y005278D02*
X005804Y005278D01*
X005862Y005337D02*
X006010Y005337D01*
X006010Y005395D02*
X005921Y005395D01*
X005979Y005454D02*
X006017Y005454D01*
X006038Y005512D02*
X006075Y005512D01*
X006096Y005571D02*
X007004Y005571D01*
X006985Y005512D02*
X006520Y005512D01*
X006578Y005454D02*
X006985Y005454D01*
X006985Y005395D02*
X006585Y005395D01*
X006585Y005337D02*
X007203Y005337D01*
X007204Y005395D02*
X007262Y005395D01*
X007262Y005337D02*
X007619Y005337D01*
X007619Y005395D02*
X007481Y005395D01*
X007481Y005454D02*
X007619Y005454D01*
X007619Y005512D02*
X007481Y005512D01*
X007461Y005571D02*
X007619Y005571D01*
X007619Y005629D02*
X006155Y005629D01*
X006269Y005512D02*
X006327Y005512D01*
X006327Y005454D02*
X006269Y005454D01*
X006269Y005395D02*
X006327Y005395D01*
X006327Y005337D02*
X006269Y005337D01*
X006269Y005161D02*
X006327Y005161D01*
X006327Y005103D02*
X006269Y005103D01*
X006269Y005044D02*
X006327Y005044D01*
X006069Y005044D02*
X005569Y005044D01*
X005628Y005103D02*
X006011Y005103D01*
X006010Y005161D02*
X005687Y005161D01*
X005745Y005220D02*
X006010Y005220D01*
X006512Y005688D02*
X007619Y005688D01*
X007619Y005747D02*
X006565Y005747D01*
X006298Y005905D02*
X006233Y005905D01*
X005238Y004910D01*
X005238Y003890D01*
X004873Y003525D01*
X004798Y003525D01*
X004798Y003510D01*
X004788Y003500D01*
X004763Y003525D01*
X004298Y003525D01*
X003742Y002995D02*
X007339Y002995D01*
X007339Y002936D02*
X003788Y002936D01*
X003847Y002878D02*
X007339Y002878D01*
X007339Y002819D02*
X003907Y002819D01*
X003984Y002761D02*
X007339Y002761D01*
X007339Y002711D02*
X007415Y002635D01*
X007764Y002635D01*
X007764Y003060D01*
X007824Y003060D01*
X007824Y003120D01*
X008215Y003120D01*
X008512Y003120D01*
X008512Y003614D01*
X008291Y003614D01*
X008215Y003538D01*
X008215Y003502D01*
X008172Y003545D01*
X007824Y003545D01*
X007824Y003120D01*
X007764Y003120D01*
X007764Y003060D01*
X007339Y003060D01*
X007339Y002711D01*
X007348Y002702D02*
X004071Y002702D01*
X004175Y002644D02*
X007407Y002644D01*
X007764Y002644D02*
X007824Y002644D01*
X007824Y002635D02*
X008172Y002635D01*
X008215Y002678D01*
X008215Y002643D01*
X008291Y002566D01*
X008512Y002566D01*
X008512Y003060D01*
X008572Y003060D01*
X008572Y003120D01*
X008727Y003120D01*
X009023Y003120D01*
X009023Y003060D01*
X008727Y003060D01*
X008572Y003060D01*
X008572Y002566D01*
X008792Y002566D01*
X008798Y002572D01*
X008803Y002566D01*
X009024Y002566D01*
X009024Y003060D01*
X009083Y003060D01*
X009083Y002566D01*
X009304Y002566D01*
X009380Y002643D01*
X009380Y002678D01*
X009423Y002635D01*
X009772Y002635D01*
X009772Y003060D01*
X009831Y003060D01*
X009831Y002635D01*
X010180Y002635D01*
X010256Y002711D01*
X010256Y003060D01*
X009832Y003060D01*
X009832Y003120D01*
X010256Y003120D01*
X010256Y003469D01*
X010180Y003545D01*
X009831Y003545D01*
X009831Y003120D01*
X009772Y003120D01*
X009772Y003545D01*
X009423Y003545D01*
X009380Y003502D01*
X009380Y003538D01*
X009304Y003614D01*
X009083Y003614D01*
X009083Y003120D01*
X009024Y003120D01*
X009024Y003614D01*
X008803Y003614D01*
X008798Y003609D01*
X008792Y003614D01*
X008572Y003614D01*
X008572Y003120D01*
X008512Y003120D01*
X008512Y003060D01*
X008215Y003060D01*
X007824Y003060D01*
X007824Y002635D01*
X007824Y002702D02*
X007764Y002702D01*
X007764Y002761D02*
X007824Y002761D01*
X007824Y002819D02*
X007764Y002819D01*
X007764Y002878D02*
X007824Y002878D01*
X007824Y002936D02*
X007764Y002936D01*
X007764Y002995D02*
X007824Y002995D01*
X007824Y003054D02*
X007764Y003054D01*
X007764Y003112D02*
X003661Y003112D01*
X003627Y003171D02*
X007339Y003171D01*
X007339Y003229D02*
X003596Y003229D01*
X003697Y003054D02*
X007339Y003054D01*
X007764Y003171D02*
X007824Y003171D01*
X007824Y003229D02*
X007764Y003229D01*
X007764Y003288D02*
X007824Y003288D01*
X007824Y003346D02*
X007764Y003346D01*
X007764Y003405D02*
X007824Y003405D01*
X007824Y003463D02*
X007764Y003463D01*
X007764Y003522D02*
X007824Y003522D01*
X007823Y003756D02*
X007883Y003756D01*
X007883Y003815D02*
X007823Y003815D01*
X007823Y003873D02*
X007883Y003873D01*
X007883Y003932D02*
X007823Y003932D01*
X007823Y003990D02*
X007883Y003990D01*
X007883Y004049D02*
X007823Y004049D01*
X007823Y004107D02*
X007883Y004107D01*
X007883Y004166D02*
X007823Y004166D01*
X007823Y004224D02*
X007883Y004224D01*
X007823Y004283D02*
X005378Y004283D01*
X005098Y004576D02*
X005065Y004576D01*
X005065Y004634D02*
X005098Y004634D01*
X005098Y004693D02*
X005061Y004693D01*
X005098Y004751D02*
X005003Y004751D01*
X004593Y004751D02*
X004503Y004751D01*
X004798Y005155D02*
X004813Y005155D01*
X004818Y005150D01*
X005838Y006170D01*
X005838Y007220D01*
X005458Y007210D02*
X004831Y007210D01*
X004831Y007152D02*
X005458Y007152D01*
X005458Y007093D02*
X004831Y007093D01*
X004831Y007035D02*
X005458Y007035D01*
X005458Y006976D02*
X004831Y006976D01*
X004831Y006917D02*
X005458Y006917D01*
X005458Y006859D02*
X004895Y006859D01*
X004939Y006800D02*
X005458Y006800D01*
X005458Y006742D02*
X004939Y006742D01*
X004939Y006683D02*
X005458Y006683D01*
X005458Y006625D02*
X004939Y006625D01*
X004939Y006566D02*
X005458Y006566D01*
X005458Y006508D02*
X004939Y006508D01*
X004939Y006449D02*
X005439Y006449D01*
X005380Y006391D02*
X004939Y006391D01*
X004939Y006332D02*
X005322Y006332D01*
X005263Y006273D02*
X004939Y006273D01*
X004939Y006215D02*
X005204Y006215D01*
X005146Y006156D02*
X004884Y006156D01*
X005029Y006039D02*
X003478Y006039D01*
X003478Y005981D02*
X004970Y005981D01*
X004912Y005922D02*
X003478Y005922D01*
X003478Y005864D02*
X004853Y005864D01*
X004795Y005805D02*
X003478Y005805D01*
X003478Y005747D02*
X004736Y005747D01*
X004678Y005688D02*
X003478Y005688D01*
X003478Y005629D02*
X004619Y005629D01*
X004560Y005571D02*
X003478Y005571D01*
X003478Y005512D02*
X004502Y005512D01*
X004443Y005454D02*
X003478Y005454D01*
X003478Y006098D02*
X005087Y006098D01*
X004691Y006513D02*
X004691Y008084D01*
X004758Y008150D01*
X004741Y008167D01*
X004691Y008167D01*
X004691Y008276D01*
X004398Y008570D01*
X004398Y011510D01*
X004488Y011600D01*
X004878Y011600D01*
X005298Y011180D01*
X006858Y011180D01*
X007218Y010820D01*
X007218Y010370D01*
X007358Y010230D01*
X008140Y010230D01*
X008140Y010486D02*
X008203Y010486D01*
X008238Y010520D01*
X008238Y011450D01*
X007098Y012590D01*
X007098Y012860D01*
X007458Y012860D02*
X007458Y012590D01*
X008658Y011390D01*
X008658Y010970D01*
X008688Y010940D01*
X008658Y010970D02*
X008652Y010976D01*
X008652Y010998D01*
X008898Y011030D02*
X008928Y011060D01*
X008928Y011600D01*
X007938Y012590D01*
X007938Y012860D01*
X008298Y012860D02*
X008298Y012410D01*
X009138Y011570D01*
X009138Y010940D01*
X009164Y010966D01*
X009164Y010998D01*
X008908Y010998D02*
X008908Y011020D01*
X008898Y011030D01*
X009150Y011756D02*
X008438Y012468D01*
X008438Y012654D01*
X008505Y012721D01*
X008543Y012811D01*
X008543Y012909D01*
X008505Y012999D01*
X008436Y013068D01*
X008407Y013080D01*
X009440Y013080D01*
X009628Y012892D01*
X009628Y012653D01*
X009447Y012653D01*
X009447Y012434D01*
X009389Y012434D01*
X009389Y012653D01*
X009206Y012653D01*
X009130Y012577D01*
X009130Y012434D01*
X009388Y012434D01*
X009388Y012376D01*
X009130Y012376D01*
X009130Y012233D01*
X009206Y012157D01*
X009389Y012157D01*
X009389Y012376D01*
X009447Y012376D01*
X009447Y012157D01*
X009628Y012157D01*
X009628Y011996D01*
X009621Y012003D01*
X009215Y012003D01*
X009150Y011939D01*
X009150Y011756D01*
X009150Y011777D02*
X009129Y011777D01*
X009150Y011835D02*
X009071Y011835D01*
X009012Y011894D02*
X009150Y011894D01*
X009163Y011952D02*
X008954Y011952D01*
X008895Y012011D02*
X009628Y012011D01*
X009628Y012069D02*
X008836Y012069D01*
X008778Y012128D02*
X009628Y012128D01*
X009447Y012186D02*
X009389Y012186D01*
X009389Y012245D02*
X009447Y012245D01*
X009447Y012303D02*
X009389Y012303D01*
X009389Y012362D02*
X009447Y012362D01*
X009388Y012421D02*
X008485Y012421D01*
X008438Y012479D02*
X009130Y012479D01*
X009130Y012538D02*
X008438Y012538D01*
X008438Y012596D02*
X009149Y012596D01*
X009130Y012362D02*
X008544Y012362D01*
X008602Y012303D02*
X009130Y012303D01*
X009130Y012245D02*
X008661Y012245D01*
X008719Y012186D02*
X009177Y012186D01*
X009389Y012479D02*
X009447Y012479D01*
X009447Y012538D02*
X009389Y012538D01*
X009389Y012596D02*
X009447Y012596D01*
X009628Y012655D02*
X008439Y012655D01*
X008497Y012713D02*
X009628Y012713D01*
X009628Y012772D02*
X008526Y012772D01*
X008543Y012830D02*
X009628Y012830D01*
X009628Y012889D02*
X008543Y012889D01*
X008527Y012947D02*
X009572Y012947D01*
X009514Y013006D02*
X008498Y013006D01*
X008440Y013064D02*
X009455Y013064D01*
X009498Y013220D02*
X006948Y013220D01*
X006108Y014060D01*
X006108Y014061D01*
X006111Y014061D01*
X005778Y014240D02*
X005778Y013820D01*
X005778Y013850D01*
X005778Y013820D02*
X005778Y013580D01*
X007158Y012200D01*
X007158Y011660D01*
X007403Y011659D02*
X007830Y011659D01*
X007889Y011601D02*
X007398Y011601D01*
X007403Y011611D02*
X007403Y011709D01*
X007365Y011799D01*
X007298Y011867D01*
X007298Y012142D01*
X007298Y012192D01*
X008098Y011392D01*
X008098Y010655D01*
X007839Y010655D01*
X007774Y010590D01*
X007774Y010381D01*
X007786Y010370D01*
X007416Y010370D01*
X007358Y010428D01*
X007358Y010762D01*
X007358Y010815D01*
X007446Y010815D01*
X007536Y010852D01*
X007605Y010921D01*
X007643Y011011D01*
X007643Y011109D01*
X007605Y011199D01*
X007536Y011268D01*
X007446Y011305D01*
X007351Y011305D01*
X007231Y011425D01*
X008065Y011425D01*
X008098Y011367D02*
X007289Y011367D01*
X007231Y011425D02*
X007296Y011452D01*
X007365Y011521D01*
X007403Y011611D01*
X007374Y011542D02*
X007947Y011542D01*
X008006Y011484D02*
X007328Y011484D01*
X007348Y011308D02*
X008098Y011308D01*
X008098Y011250D02*
X007555Y011250D01*
X007609Y011191D02*
X008098Y011191D01*
X008098Y011133D02*
X007633Y011133D01*
X007643Y011074D02*
X008098Y011074D01*
X008098Y011015D02*
X007643Y011015D01*
X007620Y010957D02*
X008098Y010957D01*
X008098Y010898D02*
X007582Y010898D01*
X007506Y010840D02*
X008098Y010840D01*
X008098Y010781D02*
X007358Y010781D01*
X007358Y010723D02*
X008098Y010723D01*
X008098Y010664D02*
X007358Y010664D01*
X007358Y010606D02*
X007789Y010606D01*
X007774Y010547D02*
X007358Y010547D01*
X007358Y010489D02*
X007774Y010489D01*
X007774Y010430D02*
X007358Y010430D01*
X007414Y010371D02*
X007784Y010371D01*
X008140Y009974D02*
X007344Y009974D01*
X007038Y010280D01*
X007038Y010760D01*
X006798Y011000D01*
X004758Y011000D01*
X004691Y011066D01*
X004691Y011167D01*
X004681Y011167D01*
X004691Y011156D01*
X004691Y009513D01*
X004939Y009493D02*
X006863Y009493D01*
X006804Y009435D02*
X004939Y009435D01*
X004939Y009376D02*
X006746Y009376D01*
X006687Y009318D02*
X004939Y009318D01*
X004939Y009259D02*
X005732Y009259D01*
X005715Y009201D02*
X004928Y009201D01*
X004939Y009552D02*
X006921Y009552D01*
X006969Y009610D02*
X004939Y009610D01*
X004939Y009669D02*
X006911Y009669D01*
X006852Y009728D02*
X004939Y009728D01*
X004939Y009786D02*
X006794Y009786D01*
X006735Y009845D02*
X004909Y009845D01*
X004831Y009903D02*
X005750Y009903D01*
X005715Y009962D02*
X004831Y009962D01*
X004831Y010020D02*
X005715Y010020D01*
X005715Y010079D02*
X004831Y010079D01*
X004831Y010137D02*
X005715Y010137D01*
X005715Y010196D02*
X004831Y010196D01*
X004831Y010254D02*
X005715Y010254D01*
X005715Y010313D02*
X004831Y010313D01*
X004831Y010371D02*
X005715Y010371D01*
X005715Y010430D02*
X004831Y010430D01*
X004831Y010489D02*
X005715Y010489D01*
X005715Y010547D02*
X004831Y010547D01*
X004831Y010606D02*
X005715Y010606D01*
X005715Y010664D02*
X004831Y010664D01*
X004831Y010723D02*
X005715Y010723D01*
X005715Y010781D02*
X004831Y010781D01*
X004914Y010840D02*
X005738Y010840D01*
X005309Y011367D02*
X006893Y011367D01*
X006928Y011308D02*
X006952Y011308D01*
X006986Y011250D02*
X007010Y011250D01*
X007045Y011191D02*
X007069Y011191D01*
X007103Y011133D02*
X007127Y011133D01*
X006835Y011425D02*
X005250Y011425D01*
X005192Y011484D02*
X006778Y011484D01*
X006778Y011542D02*
X005133Y011542D01*
X005075Y011601D02*
X006778Y011601D01*
X006778Y011659D02*
X005016Y011659D01*
X004958Y011718D02*
X006778Y011718D01*
X006778Y011777D02*
X003478Y011777D01*
X003478Y011835D02*
X006778Y011835D01*
X006778Y011894D02*
X003478Y011894D01*
X003478Y011952D02*
X006778Y011952D01*
X006778Y012011D02*
X003478Y012011D01*
X003478Y012069D02*
X006778Y012069D01*
X006778Y012128D02*
X003478Y012128D01*
X003478Y012186D02*
X006778Y012186D01*
X006735Y012245D02*
X003478Y012245D01*
X003478Y012303D02*
X006676Y012303D01*
X006618Y012362D02*
X003478Y012362D01*
X003478Y012421D02*
X006559Y012421D01*
X006501Y012479D02*
X003478Y012479D01*
X003478Y012538D02*
X006442Y012538D01*
X006384Y012596D02*
X003478Y012596D01*
X003478Y012655D02*
X006325Y012655D01*
X006267Y012713D02*
X003478Y012713D01*
X003478Y012772D02*
X006208Y012772D01*
X006149Y012830D02*
X003478Y012830D01*
X003478Y012889D02*
X006091Y012889D01*
X006032Y012947D02*
X003478Y012947D01*
X003478Y013006D02*
X005974Y013006D01*
X005915Y013064D02*
X003478Y013064D01*
X003478Y013123D02*
X005857Y013123D01*
X005798Y013182D02*
X003478Y013182D01*
X003478Y013240D02*
X005740Y013240D01*
X005681Y013299D02*
X003478Y013299D01*
X003478Y013357D02*
X005623Y013357D01*
X005564Y013416D02*
X003478Y013416D01*
X003478Y013474D02*
X005518Y013474D01*
X005518Y013533D02*
X003478Y013533D01*
X003478Y013591D02*
X005518Y013591D01*
X005518Y013650D02*
X003478Y013650D01*
X003478Y013708D02*
X005518Y013708D01*
X005518Y013767D02*
X005497Y013767D01*
X005353Y013767D02*
X005293Y013767D01*
X005293Y013826D02*
X005353Y013826D01*
X005353Y013884D02*
X005293Y013884D01*
X005293Y013943D02*
X005353Y013943D01*
X005353Y014001D02*
X005293Y014001D01*
X005293Y014060D02*
X003478Y014060D01*
X003478Y014118D02*
X004985Y014118D01*
X005006Y014177D02*
X003478Y014177D01*
X003478Y014235D02*
X005030Y014235D01*
X005079Y014294D02*
X003478Y014294D01*
X003478Y014352D02*
X005145Y014352D01*
X005230Y014470D02*
X003478Y014470D01*
X003478Y014528D02*
X004819Y014528D01*
X004900Y014528D02*
X004959Y014528D01*
X004959Y014587D02*
X004900Y014587D01*
X004900Y014645D02*
X004959Y014645D01*
X004959Y014704D02*
X004900Y014704D01*
X004900Y014762D02*
X004959Y014762D01*
X004899Y014821D02*
X003478Y014821D01*
X003478Y014879D02*
X004592Y014879D01*
X004601Y014938D02*
X003478Y014938D01*
X003478Y014996D02*
X004625Y014996D01*
X004659Y015055D02*
X003478Y015055D01*
X003478Y015114D02*
X004717Y015114D01*
X004829Y015172D02*
X003478Y015172D01*
X003478Y015231D02*
X005188Y015231D01*
X005188Y015289D02*
X003478Y015289D01*
X003478Y015348D02*
X005188Y015348D01*
X005134Y015406D02*
X003478Y015406D01*
X003478Y015465D02*
X005075Y015465D01*
X005016Y015523D02*
X005014Y015523D01*
X004845Y015523D02*
X003478Y015523D01*
X003478Y015582D02*
X004731Y015582D01*
X004672Y015640D02*
X003478Y015640D01*
X003478Y015699D02*
X004641Y015699D01*
X004616Y015757D02*
X003478Y015757D01*
X003478Y015816D02*
X004612Y015816D01*
X004612Y015875D02*
X003478Y015875D01*
X003478Y015933D02*
X004627Y015933D01*
X004652Y015992D02*
X003480Y015992D01*
X003486Y016050D02*
X004698Y016050D01*
X004767Y016109D02*
X003494Y016109D01*
X003501Y016167D02*
X007218Y016167D01*
X007225Y016170D02*
X007100Y016119D01*
X007005Y016024D01*
X006954Y015899D01*
X006954Y015862D01*
X007262Y015862D01*
X007262Y015802D01*
X007322Y015802D01*
X007322Y015862D01*
X007629Y015862D01*
X007629Y015899D01*
X007578Y016024D01*
X007483Y016119D01*
X007359Y016170D01*
X007322Y016170D01*
X007322Y015862D01*
X007262Y015862D01*
X007262Y016170D01*
X007225Y016170D01*
X007262Y016167D02*
X007322Y016167D01*
X007366Y016167D02*
X010695Y016167D01*
X010695Y016109D02*
X010604Y016109D01*
X010673Y016050D02*
X010695Y016050D01*
X010695Y016226D02*
X003517Y016226D01*
X003533Y016284D02*
X005250Y016284D01*
X005256Y016282D02*
X005293Y016282D01*
X005293Y016589D01*
X005353Y016589D01*
X005353Y016282D01*
X005390Y016282D01*
X005515Y016333D01*
X005610Y016428D01*
X005661Y016552D01*
X005661Y016590D01*
X005353Y016590D01*
X005353Y016650D01*
X005293Y016650D01*
X005293Y016957D01*
X005256Y016957D01*
X005132Y016906D01*
X005037Y016811D01*
X004985Y016687D01*
X004985Y016650D01*
X005293Y016650D01*
X005293Y016590D01*
X004985Y016590D01*
X004985Y016552D01*
X005037Y016428D01*
X005132Y016333D01*
X005256Y016282D01*
X005293Y016284D02*
X005353Y016284D01*
X005396Y016284D02*
X010695Y016284D01*
X010673Y016343D02*
X010210Y016343D01*
X010228Y016350D02*
X010317Y016440D01*
X010365Y016556D01*
X010365Y016683D01*
X010317Y016800D01*
X010228Y016889D01*
X010111Y016937D01*
X009984Y016937D01*
X009868Y016889D01*
X009778Y016800D01*
X009730Y016683D01*
X009730Y016556D01*
X009778Y016440D01*
X009868Y016350D01*
X009984Y016302D01*
X010111Y016302D01*
X010228Y016350D01*
X010279Y016401D02*
X010604Y016401D01*
X010557Y016460D02*
X010325Y016460D01*
X010350Y016519D02*
X010533Y016519D01*
X010517Y016577D02*
X010365Y016577D01*
X010365Y016636D02*
X010517Y016636D01*
X010522Y016694D02*
X010361Y016694D01*
X010336Y016753D02*
X010546Y016753D01*
X010577Y016811D02*
X010305Y016811D01*
X010247Y016870D02*
X010636Y016870D01*
X010750Y016928D02*
X010133Y016928D01*
X009962Y016928D02*
X008558Y016928D01*
X008536Y016937D02*
X008410Y016937D01*
X008293Y016889D01*
X008203Y016800D01*
X008155Y016683D01*
X008155Y016556D01*
X008203Y016440D01*
X008293Y016350D01*
X008410Y016302D01*
X008536Y016302D01*
X008653Y016350D01*
X008742Y016440D01*
X008791Y016556D01*
X008791Y016683D01*
X008742Y016800D01*
X008653Y016889D01*
X008536Y016937D01*
X008388Y016928D02*
X007771Y016928D01*
X007749Y016937D02*
X007622Y016937D01*
X007505Y016889D01*
X007416Y016800D01*
X007368Y016683D01*
X007368Y016556D01*
X007416Y016440D01*
X007505Y016350D01*
X007622Y016302D01*
X007749Y016302D01*
X007865Y016350D01*
X007955Y016440D01*
X008003Y016556D01*
X008003Y016683D01*
X007955Y016800D01*
X007865Y016889D01*
X007749Y016937D01*
X007600Y016928D02*
X006983Y016928D01*
X006961Y016937D02*
X007078Y016889D01*
X007167Y016800D01*
X007216Y016683D01*
X007216Y016556D01*
X007167Y016440D01*
X007078Y016350D01*
X006961Y016302D01*
X006835Y016302D01*
X006718Y016350D01*
X006629Y016440D01*
X006580Y016556D01*
X006580Y016683D01*
X006629Y016800D01*
X006718Y016889D01*
X006835Y016937D01*
X006961Y016937D01*
X006813Y016928D02*
X006196Y016928D01*
X006174Y016937D02*
X006047Y016937D01*
X005931Y016889D01*
X005841Y016800D01*
X005793Y016683D01*
X005793Y016556D01*
X005841Y016440D01*
X005931Y016350D01*
X006047Y016302D01*
X006174Y016302D01*
X006291Y016350D01*
X006380Y016440D01*
X006428Y016556D01*
X006428Y016683D01*
X006380Y016800D01*
X006291Y016889D01*
X006174Y016937D01*
X006025Y016928D02*
X005461Y016928D01*
X005515Y016906D02*
X005390Y016957D01*
X005353Y016957D01*
X005353Y016650D01*
X005661Y016650D01*
X005661Y016687D01*
X005610Y016811D01*
X005515Y016906D01*
X005551Y016870D02*
X005911Y016870D01*
X005853Y016811D02*
X005609Y016811D01*
X005634Y016753D02*
X005822Y016753D01*
X005798Y016694D02*
X005658Y016694D01*
X005661Y016577D02*
X005793Y016577D01*
X005793Y016636D02*
X005353Y016636D01*
X005353Y016694D02*
X005293Y016694D01*
X005293Y016636D02*
X003704Y016636D01*
X003666Y016577D02*
X004985Y016577D01*
X004999Y016519D02*
X003632Y016519D01*
X003600Y016460D02*
X005024Y016460D01*
X005064Y016401D02*
X003576Y016401D01*
X003551Y016343D02*
X005122Y016343D01*
X005293Y016343D02*
X005353Y016343D01*
X005353Y016401D02*
X005293Y016401D01*
X005293Y016460D02*
X005353Y016460D01*
X005353Y016519D02*
X005293Y016519D01*
X005293Y016577D02*
X005353Y016577D01*
X005353Y016753D02*
X005293Y016753D01*
X005293Y016811D02*
X005353Y016811D01*
X005353Y016870D02*
X005293Y016870D01*
X005293Y016928D02*
X005353Y016928D01*
X005186Y016928D02*
X003995Y016928D01*
X003919Y016870D02*
X005096Y016870D01*
X005037Y016811D02*
X003855Y016811D01*
X003797Y016753D02*
X005013Y016753D01*
X004989Y016694D02*
X003749Y016694D01*
X004086Y016987D02*
X013509Y016987D01*
X013600Y016928D02*
X012547Y016928D01*
X012601Y016906D02*
X012477Y016957D01*
X012440Y016957D01*
X012440Y016650D01*
X012380Y016650D01*
X012380Y016957D01*
X012343Y016957D01*
X012218Y016906D01*
X012123Y016811D01*
X012072Y016687D01*
X012072Y016650D01*
X012380Y016650D01*
X012380Y016590D01*
X012072Y016590D01*
X012072Y016552D01*
X012123Y016428D01*
X012218Y016333D01*
X012343Y016282D01*
X012380Y016282D01*
X012380Y016589D01*
X012440Y016589D01*
X012440Y016282D01*
X012477Y016282D01*
X012601Y016333D01*
X012696Y016428D01*
X012748Y016552D01*
X012748Y016590D01*
X012440Y016590D01*
X012440Y016650D01*
X012748Y016650D01*
X012748Y016687D01*
X012696Y016811D01*
X012601Y016906D01*
X012637Y016870D02*
X013676Y016870D01*
X013740Y016811D02*
X012696Y016811D01*
X012720Y016753D02*
X013798Y016753D01*
X013846Y016694D02*
X012745Y016694D01*
X012748Y016577D02*
X013930Y016577D01*
X013963Y016519D02*
X012734Y016519D01*
X012709Y016460D02*
X013995Y016460D01*
X014019Y016401D02*
X012669Y016401D01*
X012611Y016343D02*
X014044Y016343D01*
X014062Y016284D02*
X012483Y016284D01*
X012440Y016284D02*
X012380Y016284D01*
X012337Y016284D02*
X011812Y016284D01*
X011812Y016226D02*
X014078Y016226D01*
X014094Y016167D02*
X012090Y016167D01*
X012083Y016170D02*
X012046Y016170D01*
X012046Y015862D01*
X012354Y015862D01*
X012354Y015899D01*
X012302Y016024D01*
X012207Y016119D01*
X012083Y016170D01*
X012046Y016167D02*
X011986Y016167D01*
X011986Y016170D02*
X011949Y016170D01*
X011825Y016119D01*
X011730Y016024D01*
X011678Y015899D01*
X011678Y015862D01*
X011986Y015862D01*
X011986Y015802D01*
X012046Y015802D01*
X012046Y015494D01*
X012083Y015494D01*
X012207Y015546D01*
X012302Y015641D01*
X012354Y015765D01*
X012354Y015802D01*
X012046Y015802D01*
X012046Y015862D01*
X011986Y015862D01*
X011986Y016170D01*
X011942Y016167D02*
X011812Y016167D01*
X011815Y016109D02*
X011785Y016109D01*
X011756Y016050D02*
X011726Y016050D01*
X011717Y015992D02*
X011668Y015992D01*
X011692Y015933D02*
X011609Y015933D01*
X011551Y015875D02*
X011678Y015875D01*
X011678Y015802D02*
X011678Y015765D01*
X011730Y015641D01*
X011825Y015546D01*
X011949Y015494D01*
X011986Y015494D01*
X011986Y015802D01*
X011678Y015802D01*
X011681Y015757D02*
X011542Y015757D01*
X011546Y015816D02*
X011986Y015816D01*
X011986Y015757D02*
X012046Y015757D01*
X012046Y015699D02*
X011986Y015699D01*
X011986Y015640D02*
X012046Y015640D01*
X012046Y015582D02*
X011986Y015582D01*
X011986Y015523D02*
X012046Y015523D01*
X012153Y015523D02*
X012507Y015523D01*
X012483Y015465D02*
X011419Y015465D01*
X011419Y015523D02*
X011879Y015523D01*
X011789Y015582D02*
X011428Y015582D01*
X011486Y015640D02*
X011730Y015640D01*
X011706Y015699D02*
X011517Y015699D01*
X011419Y015406D02*
X012476Y015406D01*
X012476Y015448D02*
X012574Y015684D01*
X012754Y015865D01*
X012991Y015963D01*
X013246Y015963D01*
X013482Y015865D01*
X013663Y015684D01*
X013761Y015448D01*
X013761Y015193D01*
X013663Y014956D01*
X013482Y014776D01*
X013246Y014678D01*
X012991Y014678D01*
X012754Y014776D01*
X012574Y014956D01*
X012476Y015193D01*
X012476Y015448D01*
X012476Y015348D02*
X011419Y015348D01*
X011419Y015289D02*
X012476Y015289D01*
X012476Y015231D02*
X011419Y015231D01*
X011419Y015172D02*
X012484Y015172D01*
X012509Y015114D02*
X012200Y015114D01*
X012259Y015055D02*
X012533Y015055D01*
X012557Y014996D02*
X012299Y014996D01*
X012323Y014938D02*
X012592Y014938D01*
X012651Y014879D02*
X012334Y014879D01*
X012334Y014821D02*
X012709Y014821D01*
X012787Y014762D02*
X012325Y014762D01*
X012300Y014704D02*
X012928Y014704D01*
X013309Y014704D02*
X014118Y014704D01*
X014118Y014762D02*
X013450Y014762D01*
X013528Y014821D02*
X014118Y014821D01*
X014118Y014879D02*
X013586Y014879D01*
X013645Y014938D02*
X014118Y014938D01*
X014118Y014996D02*
X013680Y014996D01*
X013704Y015055D02*
X014118Y015055D01*
X014118Y015114D02*
X013728Y015114D01*
X013753Y015172D02*
X014118Y015172D01*
X014118Y015231D02*
X013761Y015231D01*
X013761Y015289D02*
X014118Y015289D01*
X014118Y015348D02*
X013761Y015348D01*
X013761Y015406D02*
X014118Y015406D01*
X014118Y015465D02*
X013754Y015465D01*
X013730Y015523D02*
X014118Y015523D01*
X014118Y015582D02*
X013706Y015582D01*
X013681Y015640D02*
X014118Y015640D01*
X014118Y015699D02*
X013649Y015699D01*
X013590Y015757D02*
X014118Y015757D01*
X014118Y015816D02*
X013532Y015816D01*
X013460Y015875D02*
X014118Y015875D01*
X014117Y015933D02*
X013319Y015933D01*
X012918Y015933D02*
X012340Y015933D01*
X012354Y015875D02*
X012777Y015875D01*
X012705Y015816D02*
X012046Y015816D01*
X012046Y015875D02*
X011986Y015875D01*
X011986Y015933D02*
X012046Y015933D01*
X012046Y015992D02*
X011986Y015992D01*
X011986Y016050D02*
X012046Y016050D01*
X012046Y016109D02*
X011986Y016109D01*
X012217Y016109D02*
X014102Y016109D01*
X014109Y016050D02*
X012276Y016050D01*
X012316Y015992D02*
X014115Y015992D01*
X013891Y016636D02*
X012440Y016636D01*
X012440Y016694D02*
X012380Y016694D01*
X012380Y016636D02*
X011940Y016636D01*
X011936Y016694D02*
X012075Y016694D01*
X012099Y016753D02*
X011911Y016753D01*
X011880Y016811D02*
X012124Y016811D01*
X012182Y016870D02*
X011822Y016870D01*
X011708Y016928D02*
X012272Y016928D01*
X012380Y016928D02*
X012440Y016928D01*
X012440Y016870D02*
X012380Y016870D01*
X012380Y016811D02*
X012440Y016811D01*
X012440Y016753D02*
X012380Y016753D01*
X012380Y016577D02*
X012440Y016577D01*
X012440Y016519D02*
X012380Y016519D01*
X012380Y016460D02*
X012440Y016460D01*
X012440Y016401D02*
X012380Y016401D01*
X012380Y016343D02*
X012440Y016343D01*
X012209Y016343D02*
X011812Y016343D01*
X011854Y016401D02*
X012150Y016401D01*
X012110Y016460D02*
X011900Y016460D01*
X011924Y016519D02*
X012086Y016519D01*
X012072Y016577D02*
X011940Y016577D01*
X011537Y016928D02*
X010920Y016928D01*
X011034Y016870D02*
X011423Y016870D01*
X011365Y016811D02*
X011093Y016811D01*
X011124Y016753D02*
X011334Y016753D01*
X011309Y016694D02*
X011148Y016694D01*
X011153Y016636D02*
X011305Y016636D01*
X011305Y016577D02*
X011153Y016577D01*
X011137Y016519D02*
X011320Y016519D01*
X011345Y016460D02*
X011113Y016460D01*
X011066Y016401D02*
X011391Y016401D01*
X011432Y016343D02*
X010997Y016343D01*
X010975Y016284D02*
X011423Y016284D01*
X011365Y016226D02*
X010975Y016226D01*
X010975Y016167D02*
X011306Y016167D01*
X011066Y016109D02*
X010975Y016109D01*
X010975Y016050D02*
X010997Y016050D01*
X010835Y015693D02*
X010908Y015620D01*
X010908Y014720D01*
X011298Y014330D01*
X011298Y013580D01*
X013098Y011780D01*
X013098Y010850D01*
X012948Y010700D01*
X012618Y010700D01*
X012588Y010670D01*
X012575Y010683D01*
X012573Y010683D01*
X012801Y010560D02*
X013006Y010560D01*
X013088Y010642D01*
X013238Y010792D01*
X013238Y010908D01*
X013238Y011838D01*
X013156Y011920D01*
X011438Y013638D01*
X011438Y013796D01*
X011442Y013791D01*
X011468Y013781D01*
X011468Y013741D01*
X011477Y013732D01*
X011489Y013720D01*
X011579Y013630D01*
X013688Y011521D01*
X013688Y009155D01*
X013665Y009133D01*
X013595Y009133D01*
X013561Y009100D01*
X013536Y009100D01*
X013547Y009111D01*
X013547Y009439D01*
X013483Y009503D01*
X013136Y009503D01*
X013117Y009485D01*
X013099Y009503D01*
X013082Y009503D01*
X012948Y009638D01*
X013099Y009638D01*
X013103Y009642D01*
X013128Y009618D01*
X013280Y009618D01*
X013280Y009836D01*
X013339Y009836D01*
X013339Y009837D02*
X013339Y009895D01*
X013567Y009895D01*
X013567Y010038D01*
X013491Y010114D01*
X013339Y010114D01*
X013339Y009895D01*
X013280Y009895D01*
X013280Y010114D01*
X013128Y010114D01*
X013103Y010090D01*
X013099Y010094D01*
X012811Y010094D01*
X012798Y010080D01*
X012784Y010094D01*
X012769Y010094D01*
X012821Y010147D01*
X012821Y010299D01*
X012603Y010299D01*
X012603Y010357D01*
X012821Y010357D01*
X012821Y010510D01*
X012797Y010534D01*
X012801Y010539D01*
X012801Y010560D01*
X012801Y010547D02*
X013688Y010547D01*
X013688Y010489D02*
X012821Y010489D01*
X012821Y010430D02*
X013688Y010430D01*
X013688Y010371D02*
X012821Y010371D01*
X012821Y010254D02*
X013688Y010254D01*
X013688Y010196D02*
X012821Y010196D01*
X012812Y010137D02*
X013688Y010137D01*
X013688Y010079D02*
X013526Y010079D01*
X013567Y010020D02*
X013688Y010020D01*
X013688Y009962D02*
X013567Y009962D01*
X013567Y009903D02*
X013688Y009903D01*
X013688Y009845D02*
X013339Y009845D01*
X013339Y009837D02*
X013567Y009837D01*
X013567Y009694D01*
X013491Y009618D01*
X013339Y009618D01*
X013339Y009836D01*
X013339Y009786D02*
X013280Y009786D01*
X013280Y009728D02*
X013339Y009728D01*
X013339Y009669D02*
X013280Y009669D01*
X013126Y009493D02*
X013109Y009493D01*
X013034Y009552D02*
X013688Y009552D01*
X013688Y009610D02*
X012975Y009610D01*
X012828Y009560D02*
X012955Y009433D01*
X012955Y009275D01*
X013293Y009275D01*
X013308Y009290D01*
X013309Y009288D01*
X013309Y009275D01*
X013547Y009259D02*
X013688Y009259D01*
X013688Y009201D02*
X013547Y009201D01*
X013547Y009142D02*
X013674Y009142D01*
X013688Y009318D02*
X013547Y009318D01*
X013547Y009376D02*
X013688Y009376D01*
X013688Y009435D02*
X013547Y009435D01*
X013493Y009493D02*
X013688Y009493D01*
X013688Y009669D02*
X013543Y009669D01*
X013567Y009728D02*
X013688Y009728D01*
X013688Y009786D02*
X013567Y009786D01*
X013339Y009903D02*
X013280Y009903D01*
X013280Y009962D02*
X013339Y009962D01*
X013339Y010020D02*
X013280Y010020D01*
X013280Y010079D02*
X013339Y010079D01*
X012978Y009890D02*
X012955Y009868D01*
X012953Y009866D01*
X012640Y009866D01*
X012955Y009868D02*
X012955Y009866D01*
X012828Y009560D02*
X011988Y009560D01*
X011830Y009718D01*
X010955Y009718D01*
X010955Y009462D02*
X011786Y009462D01*
X011958Y009290D01*
X011958Y009200D01*
X012378Y008780D01*
X012378Y008330D01*
X012498Y008210D01*
X012502Y008214D01*
X012443Y008155D01*
X012048Y008155D01*
X011780Y008147D02*
X011738Y008147D01*
X011738Y008122D02*
X011738Y008415D01*
X011826Y008415D01*
X011916Y008452D01*
X011985Y008521D01*
X012023Y008611D01*
X012023Y008709D01*
X011985Y008799D01*
X011916Y008868D01*
X011826Y008905D01*
X011730Y008905D01*
X011796Y008932D01*
X011865Y009001D01*
X011893Y009067D01*
X012238Y008722D01*
X012238Y008388D01*
X012238Y008383D01*
X011845Y008383D01*
X011780Y008319D01*
X011780Y007991D01*
X011845Y007927D01*
X012251Y007927D01*
X012315Y007991D01*
X012315Y008015D01*
X012385Y008015D01*
X012501Y008015D01*
X012511Y008025D01*
X012739Y008025D01*
X012803Y008090D01*
X012803Y008338D01*
X012739Y008403D01*
X012518Y008403D01*
X012518Y008838D01*
X012436Y008920D01*
X012309Y009047D01*
X012459Y009047D01*
X012478Y009066D01*
X012496Y009047D01*
X012500Y009047D01*
X012500Y009000D01*
X012598Y008902D01*
X012680Y008820D01*
X013530Y008820D01*
X013530Y008741D01*
X013595Y008677D01*
X013686Y008677D01*
X013692Y008670D01*
X013883Y008670D01*
X013913Y008670D01*
X013920Y008677D01*
X013948Y008677D01*
X013948Y008503D01*
X013895Y008503D01*
X013893Y008505D01*
X013702Y008505D01*
X013700Y008503D01*
X013595Y008503D01*
X013530Y008439D01*
X013530Y008136D01*
X013464Y008070D01*
X013423Y008029D01*
X013356Y008029D01*
X013292Y007964D01*
X013292Y007716D01*
X013356Y007651D01*
X013421Y007651D01*
X013530Y007542D01*
X013530Y007241D01*
X013595Y007177D01*
X013700Y007177D01*
X013702Y007175D01*
X013893Y007175D01*
X013895Y007177D01*
X013948Y007177D01*
X013948Y007003D01*
X013595Y007003D01*
X013530Y006939D01*
X013530Y006611D01*
X013595Y006547D01*
X013596Y006547D01*
X013579Y006530D01*
X013481Y006530D01*
X013479Y006529D01*
X013356Y006529D01*
X013292Y006464D01*
X013292Y006216D01*
X013356Y006151D01*
X013479Y006151D01*
X013481Y006150D01*
X013579Y006150D01*
X013736Y006150D01*
X013738Y006151D01*
X013762Y006151D01*
X013827Y006216D01*
X013827Y006241D01*
X013866Y006280D01*
X013948Y006362D01*
X013948Y006288D01*
X012440Y004780D01*
X010754Y004780D01*
X010754Y004780D01*
X012156Y004780D01*
X012268Y004891D01*
X012726Y005350D01*
X012726Y005507D01*
X012726Y005776D01*
X012815Y005776D01*
X012972Y005776D01*
X013228Y006031D01*
X013228Y006189D01*
X013228Y007419D01*
X013116Y007530D01*
X012990Y007656D01*
X012833Y007656D01*
X012457Y007656D01*
X012456Y007655D01*
X012333Y007655D01*
X012315Y007637D01*
X012315Y007689D01*
X012251Y007753D01*
X011845Y007753D01*
X011780Y007689D01*
X011780Y007390D01*
X011206Y007390D01*
X010612Y007983D01*
X010612Y008370D01*
X010713Y008370D01*
X010778Y008435D01*
X010778Y008525D01*
X010858Y008525D01*
X010858Y008208D01*
X010858Y008092D01*
X010978Y007972D01*
X011060Y007890D01*
X011390Y007890D01*
X011506Y007890D01*
X011656Y008040D01*
X011738Y008122D01*
X011704Y008088D02*
X011780Y008088D01*
X011780Y008030D02*
X011645Y008030D01*
X011587Y007971D02*
X011800Y007971D01*
X011780Y008205D02*
X011738Y008205D01*
X011738Y008264D02*
X011780Y008264D01*
X011784Y008322D02*
X011738Y008322D01*
X011738Y008381D02*
X011842Y008381D01*
X011885Y008440D02*
X012238Y008440D01*
X012238Y008498D02*
X011962Y008498D01*
X012000Y008557D02*
X012238Y008557D01*
X012238Y008615D02*
X012023Y008615D01*
X012023Y008674D02*
X012238Y008674D01*
X012228Y008732D02*
X012013Y008732D01*
X011989Y008791D02*
X012169Y008791D01*
X012110Y008849D02*
X011935Y008849D01*
X012052Y008908D02*
X011737Y008908D01*
X011830Y008966D02*
X011993Y008966D01*
X011935Y009025D02*
X011875Y009025D01*
X011658Y009140D02*
X011591Y009206D01*
X010955Y009206D01*
X010955Y008950D02*
X011247Y008950D01*
X011358Y008840D01*
X011358Y008510D01*
X011298Y008450D01*
X011298Y008300D01*
X011448Y008030D02*
X011118Y008030D01*
X010998Y008150D01*
X010998Y008690D01*
X011002Y008694D01*
X011143Y008694D01*
X011002Y008694D02*
X010955Y008694D01*
X010858Y008498D02*
X010778Y008498D01*
X010778Y008440D02*
X010858Y008440D01*
X010858Y008381D02*
X010724Y008381D01*
X010612Y008322D02*
X010858Y008322D01*
X010858Y008264D02*
X010612Y008264D01*
X010612Y008205D02*
X010858Y008205D01*
X010858Y008147D02*
X010612Y008147D01*
X010612Y008088D02*
X010861Y008088D01*
X010920Y008030D02*
X010612Y008030D01*
X010624Y007971D02*
X010979Y007971D01*
X011037Y007913D02*
X010683Y007913D01*
X010742Y007854D02*
X013292Y007854D01*
X013292Y007796D02*
X010800Y007796D01*
X010859Y007737D02*
X011828Y007737D01*
X011780Y007679D02*
X010917Y007679D01*
X010976Y007620D02*
X011780Y007620D01*
X011780Y007561D02*
X011034Y007561D01*
X011093Y007503D02*
X011780Y007503D01*
X011780Y007444D02*
X011151Y007444D01*
X011148Y007250D02*
X011928Y007250D01*
X012468Y006710D01*
X012472Y006714D01*
X012536Y006714D01*
X012532Y006714D01*
X012528Y006710D01*
X012138Y006710D01*
X012083Y006655D01*
X012048Y006655D01*
X011780Y006683D02*
X011360Y006683D01*
X011360Y006742D02*
X011780Y006742D01*
X011780Y006800D02*
X011360Y006800D01*
X011360Y006859D02*
X011820Y006859D01*
X011945Y007035D02*
X011360Y007035D01*
X011360Y006976D02*
X012004Y006976D01*
X012062Y006917D02*
X011360Y006917D01*
X011322Y007093D02*
X011887Y007093D01*
X012107Y007269D02*
X012840Y007269D01*
X012848Y007210D02*
X012166Y007210D01*
X012224Y007152D02*
X012848Y007152D01*
X012848Y007093D02*
X012283Y007093D01*
X012341Y007035D02*
X012848Y007035D01*
X012848Y006976D02*
X012400Y006976D01*
X012458Y006917D02*
X012848Y006917D01*
X012848Y006859D02*
X012783Y006859D01*
X012803Y006800D02*
X012848Y006800D01*
X012848Y006742D02*
X012803Y006742D01*
X012803Y006683D02*
X012848Y006683D01*
X012848Y006625D02*
X012803Y006625D01*
X012780Y006566D02*
X012848Y006566D01*
X012848Y006508D02*
X012315Y006508D01*
X012273Y006449D02*
X012848Y006449D01*
X012848Y006391D02*
X009038Y006391D01*
X009038Y006449D02*
X009072Y006449D01*
X009038Y006332D02*
X012848Y006332D01*
X012848Y006273D02*
X009038Y006273D01*
X009038Y006215D02*
X009056Y006215D01*
X009298Y006025D02*
X009313Y006025D01*
X009438Y005900D01*
X009438Y005600D01*
X008542Y004704D01*
X008542Y004193D01*
X008798Y004193D02*
X008798Y004780D01*
X009528Y005510D01*
X009768Y005510D01*
X009733Y005545D01*
X009733Y005590D01*
X009733Y005635D01*
X009678Y005690D01*
X009678Y006020D01*
X009683Y006025D01*
X009798Y006025D01*
X010009Y005805D02*
X010146Y005805D01*
X010134Y005793D02*
X010134Y005387D01*
X010199Y005323D01*
X010526Y005323D01*
X010591Y005387D01*
X010591Y005550D01*
X010670Y005550D01*
X010786Y005550D01*
X010796Y005561D01*
X010922Y005561D01*
X010986Y005625D01*
X010986Y006031D01*
X010922Y006096D01*
X010673Y006096D01*
X010609Y006031D01*
X010609Y005830D01*
X010554Y005830D01*
X010526Y005858D01*
X010199Y005858D01*
X010134Y005793D01*
X010134Y005747D02*
X009961Y005747D01*
X009961Y005688D02*
X010134Y005688D01*
X010134Y005629D02*
X009961Y005629D01*
X009961Y005571D02*
X010134Y005571D01*
X010134Y005512D02*
X009961Y005512D01*
X009961Y005454D02*
X010134Y005454D01*
X010134Y005395D02*
X009961Y005395D01*
X009910Y005337D02*
X010185Y005337D01*
X010032Y005161D02*
X009377Y005161D01*
X009435Y005220D02*
X012059Y005220D01*
X012117Y005278D02*
X009494Y005278D01*
X009552Y005337D02*
X009555Y005337D01*
X009318Y005103D02*
X009977Y005103D01*
X009953Y005044D02*
X009259Y005044D01*
X009201Y004986D02*
X009943Y004986D01*
X009943Y004927D02*
X009142Y004927D01*
X009084Y004868D02*
X009965Y004868D01*
X010001Y004810D02*
X009889Y004810D01*
X009948Y004751D02*
X010076Y004751D01*
X010006Y004693D02*
X010389Y004693D01*
X010365Y004634D02*
X010065Y004634D01*
X010080Y004576D02*
X010363Y004576D01*
X010369Y004517D02*
X010080Y004517D01*
X010080Y004459D02*
X010393Y004459D01*
X010441Y004400D02*
X010080Y004400D01*
X010080Y004342D02*
X010543Y004342D01*
X010672Y004342D02*
X014118Y004342D01*
X014118Y004400D02*
X010774Y004400D01*
X010822Y004459D02*
X014118Y004459D01*
X014118Y004517D02*
X012573Y004517D01*
X012631Y004576D02*
X014118Y004576D01*
X014118Y004634D02*
X012690Y004634D01*
X012748Y004693D02*
X014118Y004693D01*
X014118Y004751D02*
X012807Y004751D01*
X012865Y004810D02*
X014118Y004810D01*
X014118Y004868D02*
X012924Y004868D01*
X012982Y004927D02*
X014118Y004927D01*
X014118Y004986D02*
X013041Y004986D01*
X013099Y005044D02*
X014118Y005044D01*
X014118Y005103D02*
X013158Y005103D01*
X013217Y005161D02*
X014118Y005161D01*
X014118Y005220D02*
X013275Y005220D01*
X013334Y005278D02*
X014118Y005278D01*
X014118Y005337D02*
X013392Y005337D01*
X013451Y005395D02*
X014118Y005395D01*
X014118Y005454D02*
X013509Y005454D01*
X013568Y005512D02*
X014118Y005512D01*
X014118Y005571D02*
X013626Y005571D01*
X013685Y005629D02*
X014118Y005629D01*
X014118Y005688D02*
X013743Y005688D01*
X013802Y005747D02*
X014118Y005747D01*
X014118Y005805D02*
X013861Y005805D01*
X013919Y005864D02*
X014118Y005864D01*
X014118Y005922D02*
X013978Y005922D01*
X014036Y005981D02*
X014118Y005981D01*
X014118Y006039D02*
X014095Y006039D01*
X014088Y006230D02*
X012498Y004640D01*
X010668Y004640D01*
X010608Y004580D01*
X010432Y004751D02*
X010300Y004751D01*
X010343Y005161D02*
X012000Y005161D01*
X012176Y005337D02*
X010540Y005337D01*
X010591Y005395D02*
X012234Y005395D01*
X012293Y005454D02*
X010591Y005454D01*
X010591Y005512D02*
X012346Y005512D01*
X012346Y005571D02*
X010932Y005571D01*
X010986Y005629D02*
X012346Y005629D01*
X012346Y005688D02*
X010986Y005688D01*
X010986Y005747D02*
X012346Y005747D01*
X012305Y005805D02*
X012259Y005805D01*
X012138Y005960D02*
X012528Y005960D01*
X012534Y005966D01*
X012536Y005966D01*
X012726Y005747D02*
X013406Y005747D01*
X013465Y005805D02*
X013001Y005805D01*
X013060Y005864D02*
X013523Y005864D01*
X013582Y005922D02*
X013118Y005922D01*
X013177Y005981D02*
X013640Y005981D01*
X013699Y006039D02*
X013228Y006039D01*
X013228Y006098D02*
X013757Y006098D01*
X013767Y006156D02*
X013816Y006156D01*
X013826Y006215D02*
X013874Y006215D01*
X013860Y006273D02*
X013933Y006273D01*
X013918Y006332D02*
X013948Y006332D01*
X014088Y006230D02*
X014088Y011750D01*
X012016Y013792D01*
X012016Y014848D01*
X011732Y014704D02*
X011643Y014704D01*
X011584Y014762D02*
X011708Y014762D01*
X011698Y014821D02*
X011546Y014821D01*
X011546Y014879D02*
X011698Y014879D01*
X011709Y014938D02*
X011535Y014938D01*
X011511Y014996D02*
X011734Y014996D01*
X011774Y015055D02*
X011471Y015055D01*
X011419Y015114D02*
X011832Y015114D01*
X011770Y014645D02*
X011701Y014645D01*
X011758Y014587D02*
X011828Y014587D01*
X011876Y014528D02*
X011758Y014528D01*
X011758Y014470D02*
X011876Y014470D01*
X011876Y014411D02*
X011758Y014411D01*
X011758Y014352D02*
X011876Y014352D01*
X011876Y014294D02*
X011839Y014294D01*
X012156Y014294D02*
X012165Y014294D01*
X012156Y014352D02*
X012232Y014352D01*
X012156Y014411D02*
X014118Y014411D01*
X014118Y014470D02*
X012156Y014470D01*
X012156Y014528D02*
X014118Y014528D01*
X014118Y014587D02*
X012204Y014587D01*
X012263Y014645D02*
X014118Y014645D01*
X014118Y014352D02*
X012588Y014352D01*
X012654Y014294D02*
X014118Y014294D01*
X014118Y014235D02*
X012703Y014235D01*
X012727Y014177D02*
X014118Y014177D01*
X014118Y014118D02*
X012748Y014118D01*
X012748Y014001D02*
X014118Y014001D01*
X014118Y013943D02*
X012727Y013943D01*
X012702Y013884D02*
X014118Y013884D01*
X014118Y013826D02*
X012652Y013826D01*
X012584Y013767D02*
X014118Y013767D01*
X014118Y013708D02*
X012300Y013708D01*
X012359Y013650D02*
X014118Y013650D01*
X014118Y013591D02*
X012419Y013591D01*
X012478Y013533D02*
X014118Y013533D01*
X014118Y013474D02*
X012538Y013474D01*
X012597Y013416D02*
X014118Y013416D01*
X014118Y013357D02*
X012656Y013357D01*
X012716Y013299D02*
X014118Y013299D01*
X014118Y013240D02*
X012775Y013240D01*
X012835Y013182D02*
X014118Y013182D01*
X014118Y013123D02*
X012894Y013123D01*
X012953Y013064D02*
X014118Y013064D01*
X014118Y013006D02*
X013013Y013006D01*
X013072Y012947D02*
X014118Y012947D01*
X014118Y012889D02*
X013132Y012889D01*
X013191Y012830D02*
X014118Y012830D01*
X014118Y012772D02*
X013250Y012772D01*
X013310Y012713D02*
X014118Y012713D01*
X014118Y012655D02*
X013369Y012655D01*
X013429Y012596D02*
X014118Y012596D01*
X014118Y012538D02*
X013488Y012538D01*
X013547Y012479D02*
X014118Y012479D01*
X014118Y012421D02*
X013607Y012421D01*
X013666Y012362D02*
X014118Y012362D01*
X014118Y012303D02*
X013726Y012303D01*
X013785Y012245D02*
X014118Y012245D01*
X014118Y012186D02*
X013844Y012186D01*
X013904Y012128D02*
X014118Y012128D01*
X014118Y012069D02*
X013963Y012069D01*
X014023Y012011D02*
X014118Y012011D01*
X014118Y011952D02*
X014082Y011952D01*
X013667Y011542D02*
X013238Y011542D01*
X013238Y011484D02*
X013688Y011484D01*
X013688Y011425D02*
X013238Y011425D01*
X013238Y011367D02*
X013688Y011367D01*
X013688Y011308D02*
X013238Y011308D01*
X013238Y011250D02*
X013688Y011250D01*
X013688Y011191D02*
X013238Y011191D01*
X013238Y011133D02*
X013688Y011133D01*
X013688Y011074D02*
X013238Y011074D01*
X013238Y011015D02*
X013688Y011015D01*
X013688Y010957D02*
X013238Y010957D01*
X013238Y010898D02*
X013688Y010898D01*
X013688Y010840D02*
X013238Y010840D01*
X013227Y010781D02*
X013688Y010781D01*
X013688Y010723D02*
X013168Y010723D01*
X013110Y010664D02*
X013688Y010664D01*
X013688Y010606D02*
X013051Y010606D01*
X012858Y011000D02*
X012588Y011000D01*
X012573Y010986D01*
X012573Y010998D01*
X012573Y010986D02*
X012558Y010970D01*
X012345Y010957D02*
X012211Y010957D01*
X012211Y011015D02*
X012345Y011015D01*
X012345Y011074D02*
X012211Y011074D01*
X012211Y011133D02*
X012345Y011133D01*
X012325Y011191D02*
X012211Y011191D01*
X012211Y011250D02*
X012325Y011250D01*
X012325Y011308D02*
X012211Y011308D01*
X012211Y011367D02*
X012544Y011367D01*
X012544Y011425D02*
X012602Y011425D01*
X012603Y011367D02*
X012838Y011367D01*
X012838Y011425D02*
X012821Y011425D01*
X012821Y011484D02*
X012838Y011484D01*
X012838Y011542D02*
X012813Y011542D01*
X012838Y011601D02*
X012754Y011601D01*
X012838Y011659D02*
X010536Y011659D01*
X010595Y011601D02*
X012392Y011601D01*
X012334Y011542D02*
X012194Y011542D01*
X012211Y011484D02*
X012325Y011484D01*
X012325Y011425D02*
X012211Y011425D01*
X011983Y011352D02*
X011983Y011035D01*
X011988Y011030D01*
X011983Y011025D01*
X011983Y010998D01*
X011745Y010998D01*
X011658Y010910D01*
X011658Y010370D01*
X011538Y010250D01*
X010998Y010250D01*
X010968Y010220D01*
X010958Y010230D01*
X010955Y010230D01*
X010955Y010486D02*
X010728Y010486D01*
X010728Y011270D01*
X010248Y011750D01*
X010248Y013190D01*
X009738Y013700D01*
X008838Y013700D01*
X008477Y014061D01*
X008473Y014061D01*
X008599Y014352D02*
X009922Y014352D01*
X009868Y014330D02*
X009778Y014241D01*
X009730Y014124D01*
X009730Y013997D01*
X009778Y013881D01*
X009868Y013791D01*
X009984Y013743D01*
X010111Y013743D01*
X010228Y013791D01*
X010317Y013881D01*
X010365Y013997D01*
X010365Y014124D01*
X010317Y014241D01*
X010228Y014330D01*
X010111Y014378D01*
X009984Y014378D01*
X009868Y014330D01*
X009831Y014294D02*
X008689Y014294D01*
X008744Y014235D02*
X009776Y014235D01*
X009752Y014177D02*
X008769Y014177D01*
X008791Y014118D02*
X009730Y014118D01*
X009730Y014060D02*
X008791Y014060D01*
X008791Y014001D02*
X009730Y014001D01*
X009753Y013943D02*
X008793Y013943D01*
X008852Y013884D02*
X009777Y013884D01*
X009810Y013826D02*
X009833Y013826D01*
X009869Y013767D02*
X009926Y013767D01*
X009927Y013708D02*
X011038Y013708D01*
X011038Y013650D02*
X009986Y013650D01*
X010044Y013591D02*
X011038Y013591D01*
X011038Y013533D02*
X010103Y013533D01*
X010161Y013474D02*
X011038Y013474D01*
X011084Y013416D02*
X010220Y013416D01*
X010279Y013357D02*
X011143Y013357D01*
X011201Y013299D02*
X010337Y013299D01*
X010388Y013240D02*
X011260Y013240D01*
X011318Y013182D02*
X010388Y013182D01*
X010388Y013123D02*
X011377Y013123D01*
X011435Y013064D02*
X010388Y013064D01*
X010388Y013006D02*
X011494Y013006D01*
X011552Y012947D02*
X010388Y012947D01*
X010388Y012889D02*
X011611Y012889D01*
X011669Y012830D02*
X010388Y012830D01*
X010388Y012772D02*
X011728Y012772D01*
X011787Y012713D02*
X010388Y012713D01*
X010388Y012655D02*
X011845Y012655D01*
X011904Y012596D02*
X010388Y012596D01*
X010388Y012538D02*
X011962Y012538D01*
X012021Y012479D02*
X010388Y012479D01*
X010388Y012421D02*
X012079Y012421D01*
X012138Y012362D02*
X010388Y012362D01*
X010388Y012303D02*
X012196Y012303D01*
X012255Y012245D02*
X010388Y012245D01*
X010388Y012186D02*
X012313Y012186D01*
X012372Y012128D02*
X010388Y012128D01*
X010388Y012069D02*
X012431Y012069D01*
X012489Y012011D02*
X010388Y012011D01*
X010388Y011952D02*
X012548Y011952D01*
X012606Y011894D02*
X010388Y011894D01*
X010388Y011835D02*
X012665Y011835D01*
X012723Y011777D02*
X010419Y011777D01*
X010478Y011718D02*
X012782Y011718D01*
X012978Y011720D02*
X012978Y011120D01*
X012858Y011000D01*
X012838Y011191D02*
X012821Y011191D01*
X012821Y011250D02*
X012838Y011250D01*
X012838Y011308D02*
X012821Y011308D01*
X012602Y011484D02*
X012544Y011484D01*
X012544Y011542D02*
X012602Y011542D01*
X012602Y011601D02*
X012544Y011601D01*
X012978Y011720D02*
X011178Y013520D01*
X011178Y014240D01*
X010788Y014630D01*
X010788Y015500D01*
X010456Y015832D01*
X010441Y015832D01*
X010210Y016050D02*
X009098Y016050D01*
X009144Y015992D02*
X010163Y015992D01*
X010139Y015933D02*
X009764Y015933D01*
X009890Y015875D02*
X010124Y015875D01*
X010124Y015816D02*
X009949Y015816D01*
X010008Y015757D02*
X010128Y015757D01*
X010153Y015699D02*
X010063Y015699D01*
X010087Y015640D02*
X010184Y015640D01*
X010242Y015582D02*
X010112Y015582D01*
X010136Y015523D02*
X010357Y015523D01*
X010526Y015523D02*
X010567Y015523D01*
X010625Y015465D02*
X010159Y015465D01*
X010159Y015406D02*
X010648Y015406D01*
X010648Y015348D02*
X010159Y015348D01*
X010159Y015289D02*
X010648Y015289D01*
X010648Y015231D02*
X010159Y015231D01*
X010142Y015172D02*
X010648Y015172D01*
X010648Y015114D02*
X010625Y015114D01*
X010257Y015114D02*
X010118Y015114D01*
X010094Y015055D02*
X010199Y015055D01*
X010159Y014996D02*
X010069Y014996D01*
X010023Y014938D02*
X010135Y014938D01*
X010124Y014879D02*
X009964Y014879D01*
X009906Y014821D02*
X010124Y014821D01*
X010133Y014762D02*
X009800Y014762D01*
X009659Y014704D02*
X010157Y014704D01*
X010195Y014645D02*
X009113Y014645D01*
X009151Y014704D02*
X009373Y014704D01*
X009232Y014762D02*
X009175Y014762D01*
X009055Y014587D02*
X010253Y014587D01*
X010173Y014352D02*
X010709Y014352D01*
X010619Y014294D02*
X010264Y014294D01*
X010319Y014235D02*
X010563Y014235D01*
X010539Y014177D02*
X010343Y014177D01*
X010365Y014118D02*
X010517Y014118D01*
X010517Y014060D02*
X010365Y014060D01*
X010365Y014001D02*
X010517Y014001D01*
X010540Y013943D02*
X010343Y013943D01*
X010318Y013884D02*
X010564Y013884D01*
X010621Y013826D02*
X010262Y013826D01*
X010169Y013767D02*
X010713Y013767D01*
X010957Y013767D02*
X011038Y013767D01*
X011438Y013767D02*
X011468Y013767D01*
X011438Y013708D02*
X011501Y013708D01*
X011559Y013650D02*
X011438Y013650D01*
X011484Y013591D02*
X011618Y013591D01*
X011676Y013533D02*
X011543Y013533D01*
X011601Y013474D02*
X011735Y013474D01*
X011793Y013416D02*
X011660Y013416D01*
X011719Y013357D02*
X011852Y013357D01*
X011910Y013299D02*
X011777Y013299D01*
X011836Y013240D02*
X011969Y013240D01*
X012028Y013182D02*
X011894Y013182D01*
X011953Y013123D02*
X012086Y013123D01*
X012145Y013064D02*
X012011Y013064D01*
X012070Y013006D02*
X012203Y013006D01*
X012262Y012947D02*
X012128Y012947D01*
X012187Y012889D02*
X012320Y012889D01*
X012379Y012830D02*
X012245Y012830D01*
X012304Y012772D02*
X012437Y012772D01*
X012496Y012713D02*
X012362Y012713D01*
X012421Y012655D02*
X012554Y012655D01*
X012613Y012596D02*
X012480Y012596D01*
X012538Y012538D02*
X012671Y012538D01*
X012730Y012479D02*
X012597Y012479D01*
X012655Y012421D02*
X012789Y012421D01*
X012847Y012362D02*
X012714Y012362D01*
X012772Y012303D02*
X012906Y012303D01*
X012964Y012245D02*
X012831Y012245D01*
X012889Y012186D02*
X013023Y012186D01*
X013081Y012128D02*
X012948Y012128D01*
X013006Y012069D02*
X013140Y012069D01*
X013198Y012011D02*
X013065Y012011D01*
X013124Y011952D02*
X013257Y011952D01*
X013315Y011894D02*
X013182Y011894D01*
X013238Y011835D02*
X013374Y011835D01*
X013433Y011777D02*
X013238Y011777D01*
X013238Y011718D02*
X013491Y011718D01*
X013550Y011659D02*
X013238Y011659D01*
X013238Y011601D02*
X013608Y011601D01*
X013688Y010313D02*
X012603Y010313D01*
X012544Y010313D02*
X012211Y010313D01*
X012211Y010371D02*
X012325Y010371D01*
X012325Y010430D02*
X012211Y010430D01*
X012211Y010489D02*
X012325Y010489D01*
X012345Y010547D02*
X012211Y010547D01*
X012211Y010606D02*
X012345Y010606D01*
X012345Y010664D02*
X012211Y010664D01*
X012211Y010723D02*
X012345Y010723D01*
X012345Y010781D02*
X012211Y010781D01*
X012198Y010840D02*
X012358Y010840D01*
X012345Y010898D02*
X012211Y010898D01*
X011983Y010683D02*
X011983Y010615D01*
X011988Y010610D01*
X011983Y010605D01*
X011983Y010328D01*
X011983Y010285D01*
X011988Y010280D01*
X011681Y009974D01*
X010955Y009974D01*
X011321Y010430D02*
X011518Y010430D01*
X011518Y010489D02*
X011321Y010489D01*
X011321Y010547D02*
X011518Y010547D01*
X011518Y010606D02*
X011306Y010606D01*
X011518Y010664D02*
X010868Y010664D01*
X010868Y010723D02*
X011518Y010723D01*
X011518Y010781D02*
X010868Y010781D01*
X010868Y010840D02*
X011518Y010840D01*
X011518Y010898D02*
X010868Y010898D01*
X010868Y010957D02*
X011518Y010957D01*
X011565Y011015D02*
X010868Y011015D01*
X010868Y011074D02*
X011624Y011074D01*
X011682Y011133D02*
X010868Y011133D01*
X010868Y011191D02*
X011755Y011191D01*
X011755Y011250D02*
X010868Y011250D01*
X010868Y011308D02*
X011755Y011308D01*
X011755Y011367D02*
X010829Y011367D01*
X010770Y011425D02*
X011755Y011425D01*
X011755Y011484D02*
X010712Y011484D01*
X010653Y011542D02*
X011771Y011542D01*
X012211Y010254D02*
X012325Y010254D01*
X012325Y010196D02*
X012211Y010196D01*
X012193Y010137D02*
X012334Y010137D01*
X012640Y009275D02*
X012640Y009058D01*
X012738Y008960D01*
X013818Y008960D01*
X013878Y008960D01*
X013818Y008900D01*
X013788Y008900D01*
X013689Y008674D02*
X012518Y008674D01*
X012518Y008732D02*
X013539Y008732D01*
X013530Y008791D02*
X012518Y008791D01*
X012506Y008849D02*
X012650Y008849D01*
X012592Y008908D02*
X012448Y008908D01*
X012389Y008966D02*
X012533Y008966D01*
X012500Y009025D02*
X012331Y009025D01*
X012518Y008615D02*
X013948Y008615D01*
X013948Y008557D02*
X012518Y008557D01*
X012518Y008498D02*
X013589Y008498D01*
X013531Y008440D02*
X012518Y008440D01*
X012502Y008214D02*
X012536Y008214D01*
X012295Y007971D02*
X013299Y007971D01*
X013292Y007913D02*
X011528Y007913D01*
X011448Y008030D02*
X011598Y008180D01*
X011598Y008480D01*
X011778Y008660D01*
X012267Y007737D02*
X013292Y007737D01*
X013329Y007679D02*
X012315Y007679D01*
X012133Y007525D02*
X012168Y007490D01*
X012498Y007490D01*
X012528Y007460D01*
X012534Y007466D01*
X012536Y007466D01*
X012283Y007327D02*
X012281Y007327D01*
X012133Y007525D02*
X012048Y007525D01*
X012743Y008030D02*
X013424Y008030D01*
X013482Y008088D02*
X012802Y008088D01*
X012803Y008147D02*
X013530Y008147D01*
X013530Y008205D02*
X012803Y008205D01*
X012803Y008264D02*
X013530Y008264D01*
X013530Y008322D02*
X012803Y008322D01*
X012761Y008381D02*
X013530Y008381D01*
X013916Y008674D02*
X013948Y008674D01*
X013453Y007620D02*
X013026Y007620D01*
X013085Y007561D02*
X013511Y007561D01*
X013530Y007503D02*
X013144Y007503D01*
X013202Y007444D02*
X013530Y007444D01*
X013530Y007386D02*
X013228Y007386D01*
X013228Y007327D02*
X013530Y007327D01*
X013530Y007269D02*
X013228Y007269D01*
X013228Y007210D02*
X013561Y007210D01*
X013567Y006976D02*
X013228Y006976D01*
X013228Y007035D02*
X013948Y007035D01*
X013948Y007093D02*
X013228Y007093D01*
X013228Y007152D02*
X013948Y007152D01*
X013530Y006917D02*
X013228Y006917D01*
X013228Y006859D02*
X013530Y006859D01*
X013530Y006800D02*
X013228Y006800D01*
X013228Y006742D02*
X013530Y006742D01*
X013530Y006683D02*
X013228Y006683D01*
X013228Y006625D02*
X013530Y006625D01*
X013575Y006566D02*
X013228Y006566D01*
X013228Y006508D02*
X013335Y006508D01*
X013292Y006449D02*
X013228Y006449D01*
X013228Y006391D02*
X013292Y006391D01*
X013292Y006332D02*
X013228Y006332D01*
X013228Y006273D02*
X013292Y006273D01*
X013293Y006215D02*
X013228Y006215D01*
X013228Y006156D02*
X013351Y006156D01*
X013348Y005688D02*
X012726Y005688D01*
X012726Y005629D02*
X013289Y005629D01*
X013230Y005571D02*
X012726Y005571D01*
X012726Y005512D02*
X013172Y005512D01*
X013113Y005454D02*
X012726Y005454D01*
X012726Y005395D02*
X013055Y005395D01*
X012996Y005337D02*
X012713Y005337D01*
X012654Y005278D02*
X012938Y005278D01*
X012879Y005220D02*
X012596Y005220D01*
X012537Y005161D02*
X012821Y005161D01*
X012762Y005103D02*
X012479Y005103D01*
X012420Y005044D02*
X012704Y005044D01*
X012645Y004986D02*
X012362Y004986D01*
X012303Y004927D02*
X012586Y004927D01*
X012528Y004868D02*
X012245Y004868D01*
X012186Y004810D02*
X012469Y004810D01*
X011837Y005805D02*
X010986Y005805D01*
X010986Y005864D02*
X011780Y005864D01*
X011780Y005922D02*
X010986Y005922D01*
X010986Y005981D02*
X011780Y005981D01*
X011780Y006039D02*
X010978Y006039D01*
X010798Y005828D02*
X010798Y005760D01*
X010728Y005690D01*
X010428Y005690D01*
X010363Y005625D01*
X010363Y005590D01*
X010609Y005864D02*
X010065Y005864D01*
X010065Y005922D02*
X010609Y005922D01*
X010609Y005981D02*
X010065Y005981D01*
X010065Y006039D02*
X010617Y006039D01*
X010588Y006625D02*
X011007Y006625D01*
X010983Y006683D02*
X010612Y006683D01*
X010612Y006742D02*
X010983Y006742D01*
X010889Y006800D02*
X010612Y006800D01*
X010612Y006859D02*
X010831Y006859D01*
X010772Y006917D02*
X010612Y006917D01*
X010612Y006976D02*
X010714Y006976D01*
X010655Y007035D02*
X010612Y007035D01*
X010597Y007093D02*
X010574Y007093D01*
X010538Y007152D02*
X010424Y007152D01*
X010480Y007210D02*
X010366Y007210D01*
X010421Y007269D02*
X010307Y007269D01*
X010363Y007327D02*
X010248Y007327D01*
X010223Y007386D02*
X010304Y007386D01*
X010245Y007444D02*
X010223Y007444D01*
X010187Y007700D02*
X010968Y006920D01*
X011118Y006920D01*
X011178Y006860D01*
X011172Y006854D01*
X011172Y006852D01*
X011336Y006625D02*
X011780Y006625D01*
X011780Y006566D02*
X010065Y006566D01*
X010065Y006508D02*
X011780Y006508D01*
X011822Y006449D02*
X010023Y006449D01*
X010065Y006625D02*
X010259Y006625D01*
X010235Y006683D02*
X010065Y006683D01*
X010065Y006742D02*
X010235Y006742D01*
X010235Y006800D02*
X010065Y006800D01*
X010025Y006859D02*
X010235Y006859D01*
X010235Y006917D02*
X009818Y006917D01*
X009818Y006976D02*
X010204Y006976D01*
X010145Y007035D02*
X009818Y007035D01*
X009818Y007093D02*
X010087Y007093D01*
X010028Y007152D02*
X009818Y007152D01*
X009818Y007210D02*
X009821Y007210D01*
X009978Y007400D02*
X010424Y006954D01*
X010424Y006852D01*
X010039Y006215D02*
X011806Y006215D01*
X011780Y006156D02*
X010065Y006156D01*
X010065Y006098D02*
X011780Y006098D01*
X012048Y006025D02*
X012073Y006025D01*
X012138Y005960D01*
X012315Y006156D02*
X012815Y006156D01*
X012848Y006215D02*
X012289Y006215D01*
X011148Y007250D02*
X010443Y007954D01*
X010443Y008183D01*
X010187Y008183D02*
X010187Y007700D01*
X009931Y007774D02*
X009678Y007520D01*
X009678Y006770D01*
X009798Y006650D01*
X009798Y006655D01*
X009572Y006449D02*
X009523Y006449D01*
X009539Y006215D02*
X009556Y006215D01*
X009318Y006650D02*
X009558Y006890D01*
X009558Y007580D01*
X009676Y007698D01*
X009676Y008183D01*
X009420Y008162D02*
X009420Y008183D01*
X009420Y008162D02*
X009408Y008150D01*
X009408Y007880D01*
X009378Y007850D01*
X009378Y007220D01*
X008898Y006740D01*
X008898Y005540D01*
X008669Y005629D02*
X007999Y005629D01*
X007999Y005608D02*
X007999Y005777D01*
X008012Y005777D01*
X008055Y005820D01*
X008116Y005820D01*
X008198Y005902D01*
X008258Y005962D01*
X008258Y006078D01*
X008258Y006708D01*
X008256Y006710D01*
X008378Y006832D01*
X008378Y006948D01*
X008378Y007274D01*
X008399Y007252D01*
X008489Y007215D01*
X008533Y007215D01*
X008533Y007171D01*
X008570Y007081D01*
X008639Y007012D01*
X008729Y006975D01*
X008826Y006975D01*
X008916Y007012D01*
X008985Y007081D01*
X009023Y007171D01*
X009023Y007269D01*
X008985Y007359D01*
X008978Y007367D01*
X008978Y007462D01*
X009222Y007706D01*
X009238Y007722D01*
X009238Y007278D01*
X008758Y006798D01*
X008758Y006682D01*
X008758Y005747D01*
X008690Y005679D01*
X008653Y005589D01*
X008653Y005491D01*
X008690Y005401D01*
X008759Y005332D01*
X008849Y005295D01*
X008935Y005295D01*
X008573Y004933D01*
X008573Y005019D01*
X008535Y005109D01*
X008466Y005178D01*
X008376Y005215D01*
X008279Y005215D01*
X008236Y005198D01*
X008091Y005343D01*
X008091Y005543D01*
X008026Y005608D01*
X007999Y005608D01*
X008063Y005571D02*
X008653Y005571D01*
X008653Y005512D02*
X008091Y005512D01*
X008091Y005454D02*
X008668Y005454D01*
X008696Y005395D02*
X008091Y005395D01*
X008097Y005337D02*
X008755Y005337D01*
X008859Y005220D02*
X008214Y005220D01*
X008156Y005278D02*
X008918Y005278D01*
X008801Y005161D02*
X008483Y005161D01*
X008538Y005103D02*
X008742Y005103D01*
X008684Y005044D02*
X008562Y005044D01*
X008573Y004986D02*
X008625Y004986D01*
X008967Y004751D02*
X009537Y004751D01*
X009479Y004693D02*
X008938Y004693D01*
X009025Y004810D02*
X009596Y004810D01*
X009713Y004810D02*
X009772Y004810D01*
X009772Y004751D02*
X009713Y004751D01*
X009713Y004693D02*
X009772Y004693D01*
X009772Y004634D02*
X009713Y004634D01*
X009713Y004576D02*
X009772Y004576D01*
X009772Y004517D02*
X009713Y004517D01*
X009713Y004459D02*
X009772Y004459D01*
X009772Y004400D02*
X009713Y004400D01*
X009713Y004342D02*
X009772Y004342D01*
X009773Y004283D02*
X014118Y004283D01*
X014118Y004224D02*
X010080Y004224D01*
X010080Y004166D02*
X014118Y004166D01*
X014118Y004107D02*
X010080Y004107D01*
X010080Y004049D02*
X014118Y004049D01*
X014118Y003990D02*
X010080Y003990D01*
X010080Y003932D02*
X014118Y003932D01*
X014118Y003873D02*
X010030Y003873D01*
X009971Y003815D02*
X014118Y003815D01*
X014118Y003756D02*
X009913Y003756D01*
X009772Y003756D02*
X009713Y003756D01*
X009713Y003815D02*
X009772Y003815D01*
X009772Y003873D02*
X009713Y003873D01*
X009713Y003932D02*
X009772Y003932D01*
X009772Y003990D02*
X009713Y003990D01*
X009713Y004049D02*
X009772Y004049D01*
X009772Y004107D02*
X009713Y004107D01*
X009713Y004166D02*
X009772Y004166D01*
X009772Y004224D02*
X009713Y004224D01*
X009572Y003756D02*
X009490Y003756D01*
X009319Y003756D02*
X009300Y003756D01*
X009300Y003815D02*
X009319Y003815D01*
X009319Y003873D02*
X009300Y003873D01*
X009300Y003932D02*
X009319Y003932D01*
X009319Y003990D02*
X009300Y003990D01*
X009300Y004049D02*
X009319Y004049D01*
X009319Y004107D02*
X009300Y004107D01*
X009300Y004166D02*
X009319Y004166D01*
X009319Y004224D02*
X009300Y004224D01*
X009300Y004283D02*
X009319Y004283D01*
X009319Y004342D02*
X009300Y004342D01*
X009300Y004400D02*
X009319Y004400D01*
X009319Y004459D02*
X009300Y004459D01*
X009300Y004517D02*
X009319Y004517D01*
X009319Y004576D02*
X009300Y004576D01*
X009300Y004634D02*
X009319Y004634D01*
X009338Y003580D02*
X014103Y003580D01*
X014095Y003522D02*
X010203Y003522D01*
X010256Y003463D02*
X014081Y003463D01*
X014065Y003405D02*
X010256Y003405D01*
X010256Y003346D02*
X014047Y003346D01*
X014023Y003288D02*
X010256Y003288D01*
X010256Y003229D02*
X013999Y003229D01*
X013969Y003171D02*
X010256Y003171D01*
X010256Y003054D02*
X013898Y003054D01*
X013935Y003112D02*
X009832Y003112D01*
X009831Y003054D02*
X009772Y003054D01*
X009771Y003060D02*
X009380Y003060D01*
X009380Y003060D01*
X009084Y003060D01*
X009084Y003120D01*
X009380Y003120D01*
X009771Y003120D01*
X009771Y003060D01*
X009771Y003112D02*
X009084Y003112D01*
X009083Y003054D02*
X009024Y003054D01*
X009023Y003112D02*
X008572Y003112D01*
X008572Y003054D02*
X008512Y003054D01*
X008512Y003112D02*
X007824Y003112D01*
X008215Y003120D02*
X008215Y003120D01*
X008215Y003060D02*
X008215Y003060D01*
X008512Y002995D02*
X008572Y002995D01*
X008572Y002936D02*
X008512Y002936D01*
X008512Y002878D02*
X008572Y002878D01*
X008572Y002819D02*
X008512Y002819D01*
X008512Y002761D02*
X008572Y002761D01*
X008572Y002702D02*
X008512Y002702D01*
X008512Y002644D02*
X008572Y002644D01*
X008572Y002585D02*
X008512Y002585D01*
X008272Y002585D02*
X004317Y002585D01*
X004601Y002527D02*
X012994Y002527D01*
X013279Y002585D02*
X009323Y002585D01*
X009380Y002644D02*
X009414Y002644D01*
X009083Y002644D02*
X009024Y002644D01*
X009024Y002702D02*
X009083Y002702D01*
X009083Y002761D02*
X009024Y002761D01*
X009024Y002819D02*
X009083Y002819D01*
X009083Y002878D02*
X009024Y002878D01*
X009024Y002936D02*
X009083Y002936D01*
X009083Y002995D02*
X009024Y002995D01*
X009024Y003171D02*
X009083Y003171D01*
X009083Y003229D02*
X009024Y003229D01*
X009024Y003288D02*
X009083Y003288D01*
X009083Y003346D02*
X009024Y003346D01*
X009024Y003405D02*
X009083Y003405D01*
X009083Y003463D02*
X009024Y003463D01*
X009024Y003522D02*
X009083Y003522D01*
X009083Y003580D02*
X009024Y003580D01*
X009380Y003522D02*
X009400Y003522D01*
X009772Y003522D02*
X009831Y003522D01*
X009831Y003463D02*
X009772Y003463D01*
X009772Y003405D02*
X009831Y003405D01*
X009831Y003346D02*
X009772Y003346D01*
X009772Y003288D02*
X009831Y003288D01*
X009831Y003229D02*
X009772Y003229D01*
X009772Y003171D02*
X009831Y003171D01*
X009831Y002995D02*
X009772Y002995D01*
X009772Y002936D02*
X009831Y002936D01*
X009831Y002878D02*
X009772Y002878D01*
X009772Y002819D02*
X009831Y002819D01*
X009831Y002761D02*
X009772Y002761D01*
X009772Y002702D02*
X009831Y002702D01*
X009831Y002644D02*
X009772Y002644D01*
X009380Y003120D02*
X009380Y003120D01*
X009083Y002585D02*
X009024Y002585D01*
X008572Y003171D02*
X008512Y003171D01*
X008512Y003229D02*
X008572Y003229D01*
X008572Y003288D02*
X008512Y003288D01*
X008512Y003346D02*
X008572Y003346D01*
X008572Y003405D02*
X008512Y003405D01*
X008512Y003463D02*
X008572Y003463D01*
X008572Y003522D02*
X008512Y003522D01*
X008512Y003580D02*
X008572Y003580D01*
X008258Y003580D02*
X005126Y003580D01*
X005184Y003639D02*
X014110Y003639D01*
X014116Y003698D02*
X005243Y003698D01*
X005302Y003756D02*
X007682Y003756D01*
X008023Y003756D02*
X008134Y003756D01*
X008097Y003815D02*
X008082Y003815D01*
X008195Y003522D02*
X008215Y003522D01*
X008181Y002644D02*
X008215Y002644D01*
X007883Y004342D02*
X007823Y004342D01*
X007823Y004400D02*
X007883Y004400D01*
X007883Y004459D02*
X007823Y004459D01*
X007823Y004517D02*
X007883Y004517D01*
X007883Y004576D02*
X007823Y004576D01*
X007823Y004634D02*
X007883Y004634D01*
X007883Y004693D02*
X007823Y004693D01*
X007823Y004751D02*
X007883Y004751D01*
X007883Y004810D02*
X007823Y004810D01*
X008000Y004810D02*
X008126Y004810D01*
X008126Y004751D02*
X008058Y004751D01*
X008117Y004693D02*
X008126Y004693D01*
X007669Y005103D02*
X007455Y005103D01*
X007481Y005129D02*
X007405Y005053D01*
X007262Y005053D01*
X007262Y005311D01*
X007481Y005311D01*
X007481Y005129D01*
X007481Y005161D02*
X007634Y005161D01*
X007634Y005220D02*
X007481Y005220D01*
X007481Y005278D02*
X007631Y005278D01*
X007262Y005278D02*
X007204Y005278D01*
X007204Y005220D02*
X007262Y005220D01*
X007262Y005161D02*
X007204Y005161D01*
X007204Y005103D02*
X007262Y005103D01*
X007262Y005454D02*
X007204Y005454D01*
X007204Y005512D02*
X007262Y005512D01*
X007262Y005571D02*
X007204Y005571D01*
X007017Y005805D02*
X007579Y005805D01*
X007542Y005864D02*
X007053Y005864D01*
X007053Y005922D02*
X007542Y005922D01*
X007542Y005981D02*
X007053Y005981D01*
X007053Y006039D02*
X007542Y006039D01*
X007549Y006098D02*
X007046Y006098D01*
X007030Y006566D02*
X007566Y006566D01*
X007557Y006508D02*
X006548Y006508D01*
X006548Y006449D02*
X007522Y006449D01*
X007522Y006391D02*
X006548Y006391D01*
X006548Y006332D02*
X007800Y006332D01*
X007522Y006273D02*
X006548Y006273D01*
X006548Y006215D02*
X007522Y006215D01*
X007573Y006156D02*
X006548Y006156D01*
X007053Y006625D02*
X007542Y006625D01*
X007542Y006683D02*
X007053Y006683D01*
X007053Y006742D02*
X007542Y006742D01*
X007542Y006800D02*
X007053Y006800D01*
X007033Y006859D02*
X007562Y006859D01*
X007809Y006714D02*
X008054Y006714D01*
X008058Y006710D01*
X008238Y006890D01*
X008238Y007550D01*
X008652Y007964D01*
X008652Y008183D01*
X008483Y008205D02*
X008379Y008205D01*
X008407Y008147D02*
X008483Y008147D01*
X008483Y008088D02*
X008423Y008088D01*
X008423Y008030D02*
X008483Y008030D01*
X008461Y007971D02*
X008406Y007971D01*
X008402Y007913D02*
X008377Y007913D01*
X008344Y007854D02*
X008318Y007854D01*
X008285Y007796D02*
X007068Y007796D01*
X007127Y007854D02*
X008037Y007854D01*
X007979Y007913D02*
X007185Y007913D01*
X007278Y008060D02*
X007158Y008180D01*
X007098Y008180D01*
X007278Y008060D02*
X008178Y008060D01*
X008320Y008264D02*
X008483Y008264D01*
X008483Y008322D02*
X008042Y008322D01*
X008035Y008264D02*
X008008Y008264D01*
X007976Y008205D02*
X007939Y008205D01*
X008063Y008381D02*
X008483Y008381D01*
X008393Y008440D02*
X008063Y008440D01*
X008051Y008498D02*
X008368Y008498D01*
X008140Y008694D02*
X007942Y008694D01*
X007878Y008630D01*
X007878Y008480D01*
X007818Y008420D01*
X007488Y008600D02*
X007838Y008950D01*
X008140Y008950D01*
X008140Y009462D02*
X007030Y009462D01*
X006558Y008990D01*
X006498Y008990D01*
X006298Y008790D01*
X006298Y008803D01*
X006298Y008790D02*
X006288Y008780D01*
X006839Y008322D02*
X006868Y008322D01*
X006868Y008264D02*
X004939Y008264D01*
X004939Y008322D02*
X005756Y008322D01*
X005715Y008381D02*
X004939Y008381D01*
X004939Y008440D02*
X005715Y008440D01*
X005715Y008498D02*
X004909Y008498D01*
X004939Y008205D02*
X006828Y008205D01*
X006769Y008147D02*
X004939Y008147D01*
X004939Y008088D02*
X006711Y008088D01*
X006652Y008030D02*
X004939Y008030D01*
X004939Y007971D02*
X006593Y007971D01*
X006535Y007913D02*
X004939Y007913D01*
X004928Y007854D02*
X005714Y007854D01*
X005647Y007796D02*
X004831Y007796D01*
X004831Y007737D02*
X005613Y007737D01*
X005593Y007679D02*
X004831Y007679D01*
X004831Y007620D02*
X005593Y007620D01*
X005561Y007561D02*
X004831Y007561D01*
X004831Y007503D02*
X005502Y007503D01*
X005458Y007444D02*
X004831Y007444D01*
X004831Y007386D02*
X005458Y007386D01*
X005458Y007327D02*
X004831Y007327D01*
X004831Y007269D02*
X005458Y007269D01*
X004551Y007269D02*
X003478Y007269D01*
X003478Y007327D02*
X004551Y007327D01*
X004551Y007386D02*
X003478Y007386D01*
X003478Y007444D02*
X004551Y007444D01*
X004551Y007503D02*
X003478Y007503D01*
X003478Y007561D02*
X004551Y007561D01*
X004551Y007620D02*
X003478Y007620D01*
X003478Y007679D02*
X004551Y007679D01*
X004551Y007737D02*
X003478Y007737D01*
X003478Y007796D02*
X003698Y007796D01*
X003712Y007781D02*
X003636Y007857D01*
X003636Y008137D01*
X003874Y008137D01*
X003874Y008197D01*
X003874Y008553D01*
X003712Y008553D01*
X003636Y008477D01*
X003636Y008197D01*
X003874Y008197D01*
X003934Y008197D01*
X003934Y008553D01*
X004096Y008553D01*
X004172Y008477D01*
X004172Y008197D01*
X003934Y008197D01*
X003934Y008137D01*
X004172Y008137D01*
X004172Y007857D01*
X004096Y007781D01*
X003934Y007781D01*
X003934Y008137D01*
X003874Y008137D01*
X003874Y007781D01*
X003712Y007781D01*
X003639Y007854D02*
X003478Y007854D01*
X003478Y007913D02*
X003636Y007913D01*
X003636Y007971D02*
X003478Y007971D01*
X003478Y008030D02*
X003636Y008030D01*
X003636Y008088D02*
X003478Y008088D01*
X003478Y008147D02*
X003874Y008147D01*
X003874Y008205D02*
X003934Y008205D01*
X003934Y008147D02*
X004444Y008147D01*
X004444Y008205D02*
X004172Y008205D01*
X004172Y008264D02*
X004444Y008264D01*
X004444Y008322D02*
X004172Y008322D01*
X004172Y008381D02*
X004389Y008381D01*
X004330Y008440D02*
X004172Y008440D01*
X004150Y008498D02*
X004272Y008498D01*
X004258Y008557D02*
X003478Y008557D01*
X003478Y008615D02*
X004258Y008615D01*
X004258Y008674D02*
X003478Y008674D01*
X003478Y008732D02*
X004258Y008732D01*
X004258Y008791D02*
X003478Y008791D01*
X003478Y008849D02*
X004258Y008849D01*
X004258Y008908D02*
X003478Y008908D01*
X003478Y008966D02*
X004258Y008966D01*
X004258Y009025D02*
X003478Y009025D01*
X003478Y009084D02*
X004258Y009084D01*
X004258Y009142D02*
X004110Y009142D01*
X004096Y009127D02*
X004172Y009204D01*
X004172Y009483D01*
X003934Y009483D01*
X003934Y009127D01*
X004096Y009127D01*
X004169Y009201D02*
X004258Y009201D01*
X004258Y009259D02*
X004172Y009259D01*
X004172Y009318D02*
X004258Y009318D01*
X004258Y009376D02*
X004172Y009376D01*
X004172Y009435D02*
X004258Y009435D01*
X004258Y009493D02*
X003934Y009493D01*
X003934Y009483D02*
X003934Y009543D01*
X004172Y009543D01*
X004172Y009823D01*
X004096Y009899D01*
X003934Y009899D01*
X003934Y009544D01*
X003874Y009544D01*
X003874Y009899D01*
X003712Y009899D01*
X003636Y009823D01*
X003636Y009543D01*
X003874Y009543D01*
X003874Y009483D01*
X003934Y009483D01*
X003934Y009435D02*
X003874Y009435D01*
X003874Y009483D02*
X003874Y009127D01*
X003712Y009127D01*
X003636Y009204D01*
X003636Y009483D01*
X003874Y009483D01*
X003874Y009493D02*
X003478Y009493D01*
X003478Y009435D02*
X003636Y009435D01*
X003636Y009376D02*
X003478Y009376D01*
X003478Y009318D02*
X003636Y009318D01*
X003636Y009259D02*
X003478Y009259D01*
X003478Y009201D02*
X003639Y009201D01*
X003698Y009142D02*
X003478Y009142D01*
X003874Y009142D02*
X003934Y009142D01*
X003934Y009201D02*
X003874Y009201D01*
X003874Y009259D02*
X003934Y009259D01*
X003934Y009318D02*
X003874Y009318D01*
X003874Y009376D02*
X003934Y009376D01*
X003934Y009552D02*
X003874Y009552D01*
X003874Y009610D02*
X003934Y009610D01*
X003934Y009669D02*
X003874Y009669D01*
X003874Y009728D02*
X003934Y009728D01*
X003934Y009786D02*
X003874Y009786D01*
X003874Y009845D02*
X003934Y009845D01*
X004150Y009845D02*
X004258Y009845D01*
X004258Y009903D02*
X003478Y009903D01*
X003478Y009845D02*
X003658Y009845D01*
X003636Y009786D02*
X003478Y009786D01*
X003478Y009728D02*
X003636Y009728D01*
X003636Y009669D02*
X003478Y009669D01*
X003478Y009610D02*
X003636Y009610D01*
X003636Y009552D02*
X003478Y009552D01*
X003478Y009962D02*
X004258Y009962D01*
X004258Y010020D02*
X003478Y010020D01*
X003478Y010079D02*
X004258Y010079D01*
X004258Y010137D02*
X003478Y010137D01*
X003478Y010196D02*
X004258Y010196D01*
X004258Y010254D02*
X003478Y010254D01*
X003478Y010313D02*
X004258Y010313D01*
X004258Y010371D02*
X003478Y010371D01*
X003478Y010430D02*
X004258Y010430D01*
X004258Y010489D02*
X003478Y010489D01*
X003478Y010547D02*
X004258Y010547D01*
X004258Y010606D02*
X003478Y010606D01*
X003478Y010664D02*
X004258Y010664D01*
X004258Y010723D02*
X003478Y010723D01*
X003478Y010781D02*
X003712Y010781D01*
X003636Y010857D01*
X003636Y011137D01*
X003874Y011137D01*
X003874Y011197D01*
X003874Y011553D01*
X003712Y011553D01*
X003636Y011477D01*
X003636Y011197D01*
X003874Y011197D01*
X003934Y011197D01*
X003934Y011553D01*
X004096Y011553D01*
X004172Y011477D01*
X004172Y011197D01*
X003934Y011197D01*
X003934Y011137D01*
X004172Y011137D01*
X004172Y010857D01*
X004096Y010781D01*
X004258Y010781D01*
X004258Y010840D02*
X004154Y010840D01*
X004172Y010898D02*
X004258Y010898D01*
X004258Y010957D02*
X004172Y010957D01*
X004172Y011015D02*
X004258Y011015D01*
X004258Y011074D02*
X004172Y011074D01*
X004172Y011133D02*
X004258Y011133D01*
X004258Y011191D02*
X003934Y011191D01*
X003934Y011137D02*
X003934Y010781D01*
X004096Y010781D01*
X003934Y010781D02*
X003874Y010781D01*
X003874Y011137D01*
X003934Y011137D01*
X003934Y011133D02*
X003874Y011133D01*
X003874Y011191D02*
X003478Y011191D01*
X003478Y011133D02*
X003636Y011133D01*
X003636Y011074D02*
X003478Y011074D01*
X003478Y011015D02*
X003636Y011015D01*
X003636Y010957D02*
X003478Y010957D01*
X003478Y010898D02*
X003636Y010898D01*
X003653Y010840D02*
X003478Y010840D01*
X003712Y010781D02*
X003874Y010781D01*
X003874Y010840D02*
X003934Y010840D01*
X003934Y010898D02*
X003874Y010898D01*
X003874Y010957D02*
X003934Y010957D01*
X003934Y011015D02*
X003874Y011015D01*
X003874Y011074D02*
X003934Y011074D01*
X003934Y011250D02*
X003874Y011250D01*
X003874Y011308D02*
X003934Y011308D01*
X003934Y011367D02*
X003874Y011367D01*
X003874Y011425D02*
X003934Y011425D01*
X003934Y011484D02*
X003874Y011484D01*
X003874Y011542D02*
X003934Y011542D01*
X004106Y011542D02*
X004258Y011542D01*
X004258Y011484D02*
X004165Y011484D01*
X004172Y011425D02*
X004258Y011425D01*
X004258Y011367D02*
X004172Y011367D01*
X004172Y011308D02*
X004258Y011308D01*
X004258Y011250D02*
X004172Y011250D01*
X004290Y011601D02*
X003478Y011601D01*
X003478Y011659D02*
X004349Y011659D01*
X004408Y011718D02*
X003478Y011718D01*
X003478Y011542D02*
X003702Y011542D01*
X003643Y011484D02*
X003478Y011484D01*
X003478Y011425D02*
X003636Y011425D01*
X003636Y011367D02*
X003478Y011367D01*
X003478Y011308D02*
X003636Y011308D01*
X003636Y011250D02*
X003478Y011250D01*
X004668Y011180D02*
X004681Y011167D01*
X004258Y009786D02*
X004172Y009786D01*
X004172Y009728D02*
X004258Y009728D01*
X004258Y009669D02*
X004172Y009669D01*
X004172Y009610D02*
X004258Y009610D01*
X004258Y009552D02*
X004172Y009552D01*
X004538Y009142D02*
X005715Y009142D01*
X005715Y009084D02*
X004538Y009084D01*
X004538Y009025D02*
X005715Y009025D01*
X005715Y008966D02*
X004538Y008966D01*
X004538Y008908D02*
X005715Y008908D01*
X005715Y008849D02*
X004538Y008849D01*
X004538Y008791D02*
X005715Y008791D01*
X005715Y008732D02*
X004538Y008732D01*
X004538Y008674D02*
X005715Y008674D01*
X005715Y008615D02*
X004551Y008615D01*
X004609Y008557D02*
X005715Y008557D01*
X006776Y007503D02*
X008098Y007503D01*
X008098Y007561D02*
X006834Y007561D01*
X006893Y007620D02*
X008109Y007620D01*
X008168Y007679D02*
X006951Y007679D01*
X007010Y007737D02*
X008227Y007737D01*
X008098Y007444D02*
X006717Y007444D01*
X006658Y007386D02*
X008098Y007386D01*
X008098Y007327D02*
X006600Y007327D01*
X006548Y007269D02*
X008098Y007269D01*
X008098Y007210D02*
X006548Y007210D01*
X006548Y007152D02*
X008098Y007152D01*
X008098Y007093D02*
X006548Y007093D01*
X006548Y007035D02*
X008098Y007035D01*
X008098Y006976D02*
X006548Y006976D01*
X006548Y006917D02*
X008067Y006917D01*
X008058Y006710D02*
X008118Y006650D01*
X008118Y006020D01*
X008058Y005960D01*
X007908Y005960D01*
X007902Y005966D01*
X007809Y005966D01*
X008040Y005805D02*
X008758Y005805D01*
X008758Y005747D02*
X007999Y005747D01*
X007999Y005688D02*
X008699Y005688D01*
X008758Y005864D02*
X008159Y005864D01*
X008218Y005922D02*
X008758Y005922D01*
X008758Y005981D02*
X008258Y005981D01*
X008258Y006039D02*
X008758Y006039D01*
X008758Y006098D02*
X008258Y006098D01*
X008258Y006156D02*
X008758Y006156D01*
X008758Y006215D02*
X008258Y006215D01*
X008258Y006273D02*
X008758Y006273D01*
X008758Y006332D02*
X008258Y006332D01*
X008258Y006391D02*
X008758Y006391D01*
X008758Y006449D02*
X008258Y006449D01*
X008258Y006508D02*
X008758Y006508D01*
X008758Y006566D02*
X008258Y006566D01*
X008258Y006625D02*
X008758Y006625D01*
X008758Y006683D02*
X008258Y006683D01*
X008287Y006742D02*
X008758Y006742D01*
X008760Y006800D02*
X008346Y006800D01*
X008378Y006859D02*
X008818Y006859D01*
X008877Y006917D02*
X008378Y006917D01*
X008378Y006976D02*
X008727Y006976D01*
X008828Y006976D02*
X008936Y006976D01*
X008938Y007035D02*
X008994Y007035D01*
X008990Y007093D02*
X009053Y007093D01*
X009014Y007152D02*
X009111Y007152D01*
X009170Y007210D02*
X009023Y007210D01*
X009023Y007269D02*
X009228Y007269D01*
X009238Y007327D02*
X008998Y007327D01*
X008978Y007386D02*
X009238Y007386D01*
X009238Y007444D02*
X008978Y007444D01*
X009018Y007503D02*
X009238Y007503D01*
X009238Y007561D02*
X009077Y007561D01*
X009135Y007620D02*
X009238Y007620D01*
X009238Y007679D02*
X009194Y007679D01*
X009222Y007706D02*
X009222Y007706D01*
X009164Y007846D02*
X008838Y007520D01*
X008838Y007280D01*
X008778Y007220D01*
X008533Y007210D02*
X008378Y007210D01*
X008378Y007152D02*
X008541Y007152D01*
X008565Y007093D02*
X008378Y007093D01*
X008378Y007035D02*
X008617Y007035D01*
X008383Y007269D02*
X008378Y007269D01*
X008538Y007460D02*
X008908Y007830D01*
X008908Y008183D01*
X009164Y008183D02*
X009164Y007846D01*
X009518Y008680D02*
X009518Y009560D01*
X009578Y009560D01*
X009578Y009620D01*
X010408Y009620D01*
X010408Y009560D01*
X009578Y009560D01*
X009578Y008680D01*
X009518Y008680D01*
X009518Y008732D02*
X009578Y008732D01*
X009578Y008791D02*
X009518Y008791D01*
X009518Y008849D02*
X009578Y008849D01*
X009578Y008908D02*
X009518Y008908D01*
X009518Y008966D02*
X009578Y008966D01*
X009578Y009025D02*
X009518Y009025D01*
X009518Y009084D02*
X009578Y009084D01*
X009578Y009142D02*
X009518Y009142D01*
X009518Y009201D02*
X009578Y009201D01*
X009578Y009259D02*
X009518Y009259D01*
X009518Y009318D02*
X009578Y009318D01*
X009578Y009376D02*
X009518Y009376D01*
X009518Y009435D02*
X009578Y009435D01*
X009578Y009493D02*
X009518Y009493D01*
X009518Y009552D02*
X009578Y009552D01*
X009578Y009610D02*
X010408Y009610D01*
X009578Y009620D02*
X009518Y009620D01*
X009518Y010470D01*
X009578Y010470D01*
X009578Y009620D01*
X009578Y009669D02*
X009518Y009669D01*
X009517Y009620D02*
X009517Y009560D01*
X008678Y009560D01*
X008678Y009620D01*
X009517Y009620D01*
X009517Y009610D02*
X008678Y009610D01*
X008140Y009718D02*
X007060Y009718D01*
X006400Y010378D01*
X006298Y010378D01*
X007398Y011060D02*
X006918Y011540D01*
X006918Y012260D01*
X005658Y013520D01*
X005658Y014240D01*
X005328Y014570D01*
X005328Y015410D01*
X004908Y015830D01*
X004910Y015832D01*
X004930Y015832D01*
X005247Y015816D02*
X005399Y015816D01*
X005399Y015875D02*
X005247Y015875D01*
X005232Y015933D02*
X005415Y015933D01*
X005439Y015992D02*
X005207Y015992D01*
X005161Y016050D02*
X005485Y016050D01*
X005554Y016109D02*
X005092Y016109D01*
X005242Y015757D02*
X005404Y015757D01*
X005428Y015699D02*
X005237Y015699D01*
X005295Y015640D02*
X005459Y015640D01*
X005518Y015582D02*
X005354Y015582D01*
X005412Y015523D02*
X005632Y015523D01*
X005801Y015523D02*
X005856Y015523D01*
X005915Y015465D02*
X005468Y015465D01*
X005468Y015406D02*
X005968Y015406D01*
X005968Y015348D02*
X005468Y015348D01*
X005468Y015289D02*
X005968Y015289D01*
X005968Y015231D02*
X005468Y015231D01*
X005468Y015172D02*
X005968Y015172D01*
X005968Y015114D02*
X005901Y015114D01*
X005959Y015055D02*
X005968Y015055D01*
X006248Y015055D02*
X006262Y015055D01*
X006248Y015114D02*
X006320Y015114D01*
X006248Y015172D02*
X008890Y015172D01*
X008874Y015231D02*
X006248Y015231D01*
X006248Y015289D02*
X008874Y015289D01*
X008874Y015348D02*
X006248Y015348D01*
X006248Y015406D02*
X008874Y015406D01*
X008874Y015465D02*
X006248Y015465D01*
X006248Y015523D02*
X006420Y015523D01*
X006441Y015514D02*
X006568Y015514D01*
X006684Y015563D01*
X006774Y015652D01*
X006822Y015769D01*
X006822Y015895D01*
X006774Y016012D01*
X006684Y016102D01*
X006568Y016150D01*
X006441Y016150D01*
X006324Y016102D01*
X006235Y016012D01*
X006187Y015895D01*
X006187Y015769D01*
X006235Y015652D01*
X006324Y015563D01*
X006441Y015514D01*
X006589Y015523D02*
X007155Y015523D01*
X007100Y015546D02*
X007225Y015494D01*
X007262Y015494D01*
X007262Y015802D01*
X006954Y015802D01*
X006954Y015765D01*
X007005Y015641D01*
X007100Y015546D01*
X007064Y015582D02*
X006703Y015582D01*
X006762Y015640D02*
X007006Y015640D01*
X006981Y015699D02*
X006793Y015699D01*
X006817Y015757D02*
X006957Y015757D01*
X006954Y015875D02*
X006822Y015875D01*
X006822Y015816D02*
X007262Y015816D01*
X007262Y015757D02*
X007322Y015757D01*
X007322Y015802D02*
X007322Y015494D01*
X007359Y015494D01*
X007483Y015546D01*
X007578Y015641D01*
X007629Y015765D01*
X007629Y015802D01*
X007322Y015802D01*
X007322Y015816D02*
X007761Y015816D01*
X007761Y015769D02*
X007810Y015652D01*
X007899Y015563D01*
X008016Y015514D01*
X008142Y015514D01*
X008259Y015563D01*
X008349Y015652D01*
X008397Y015769D01*
X008397Y015895D01*
X008349Y016012D01*
X008259Y016102D01*
X008142Y016150D01*
X008016Y016150D01*
X007899Y016102D01*
X007810Y016012D01*
X007761Y015895D01*
X007761Y015769D01*
X007766Y015757D02*
X007626Y015757D01*
X007602Y015699D02*
X007790Y015699D01*
X007822Y015640D02*
X007578Y015640D01*
X007519Y015582D02*
X007880Y015582D01*
X007995Y015523D02*
X007428Y015523D01*
X007322Y015523D02*
X007262Y015523D01*
X007262Y015582D02*
X007322Y015582D01*
X007322Y015640D02*
X007262Y015640D01*
X007262Y015699D02*
X007322Y015699D01*
X007322Y015875D02*
X007262Y015875D01*
X007262Y015933D02*
X007322Y015933D01*
X007322Y015992D02*
X007262Y015992D01*
X007262Y016050D02*
X007322Y016050D01*
X007322Y016109D02*
X007262Y016109D01*
X007090Y016109D02*
X006667Y016109D01*
X006736Y016050D02*
X007032Y016050D01*
X006992Y015992D02*
X006782Y015992D01*
X006807Y015933D02*
X006968Y015933D01*
X007060Y016343D02*
X007523Y016343D01*
X007454Y016401D02*
X007129Y016401D01*
X007176Y016460D02*
X007408Y016460D01*
X007383Y016519D02*
X007200Y016519D01*
X007216Y016577D02*
X007368Y016577D01*
X007368Y016636D02*
X007216Y016636D01*
X007211Y016694D02*
X007372Y016694D01*
X007397Y016753D02*
X007187Y016753D01*
X007156Y016811D02*
X007428Y016811D01*
X007486Y016870D02*
X007097Y016870D01*
X006699Y016870D02*
X006310Y016870D01*
X006368Y016811D02*
X006640Y016811D01*
X006609Y016753D02*
X006399Y016753D01*
X006424Y016694D02*
X006585Y016694D01*
X006580Y016636D02*
X006428Y016636D01*
X006428Y016577D02*
X006580Y016577D01*
X006596Y016519D02*
X006413Y016519D01*
X006388Y016460D02*
X006620Y016460D01*
X006667Y016401D02*
X006342Y016401D01*
X006273Y016343D02*
X006736Y016343D01*
X006341Y016109D02*
X005880Y016109D01*
X005948Y016050D02*
X006273Y016050D01*
X006226Y015992D02*
X005995Y015992D01*
X006019Y015933D02*
X006202Y015933D01*
X006187Y015875D02*
X006035Y015875D01*
X006035Y015816D02*
X006187Y015816D01*
X006191Y015757D02*
X006030Y015757D01*
X006077Y015699D02*
X006216Y015699D01*
X006247Y015640D02*
X006135Y015640D01*
X006194Y015582D02*
X006305Y015582D01*
X006108Y015470D02*
X005746Y015832D01*
X005717Y015832D01*
X006108Y015470D02*
X006108Y014570D01*
X005778Y014240D01*
X005353Y014235D02*
X005293Y014235D01*
X005293Y014177D02*
X005353Y014177D01*
X005353Y014118D02*
X005293Y014118D01*
X005293Y014294D02*
X005353Y014294D01*
X005347Y014352D02*
X005293Y014352D01*
X005289Y014411D02*
X003478Y014411D01*
X003478Y014587D02*
X004713Y014587D01*
X004655Y014645D02*
X003478Y014645D01*
X003478Y014704D02*
X004624Y014704D01*
X004599Y014762D02*
X003478Y014762D01*
X003478Y014001D02*
X004985Y014001D01*
X005006Y013943D02*
X003478Y013943D01*
X003478Y013884D02*
X005031Y013884D01*
X005081Y013826D02*
X003478Y013826D01*
X003478Y013767D02*
X005149Y013767D01*
X005188Y014528D02*
X005040Y014528D01*
X005146Y014587D02*
X005188Y014587D01*
X004959Y014879D02*
X004900Y014879D01*
X004900Y014938D02*
X004959Y014938D01*
X004959Y014996D02*
X004900Y014996D01*
X004900Y015055D02*
X004959Y015055D01*
X004959Y015114D02*
X004900Y015114D01*
X004900Y015172D02*
X004959Y015172D01*
X005030Y015172D02*
X005188Y015172D01*
X005188Y015114D02*
X005142Y015114D01*
X005468Y015114D02*
X005533Y015114D01*
X005474Y015055D02*
X005468Y015055D01*
X006504Y014848D02*
X006504Y014817D01*
X006498Y014810D01*
X006498Y013910D01*
X007068Y013340D01*
X009558Y013340D01*
X009888Y013010D01*
X009888Y011330D01*
X009931Y011286D01*
X009931Y010998D01*
X010187Y010998D02*
X010187Y011300D01*
X010008Y011480D01*
X010008Y013070D01*
X009618Y013460D01*
X007638Y013460D01*
X007278Y013820D01*
X007278Y014270D01*
X007548Y014540D01*
X007788Y014540D01*
X008088Y014840D01*
X008080Y014848D01*
X008079Y014848D01*
X007837Y015055D02*
X007534Y015055D01*
X007574Y014996D02*
X007797Y014996D01*
X007772Y014938D02*
X007598Y014938D01*
X007609Y014879D02*
X007761Y014879D01*
X007761Y014821D02*
X007609Y014821D01*
X007600Y014762D02*
X007771Y014762D01*
X007753Y014704D02*
X007576Y014704D01*
X007338Y014528D02*
X006638Y014528D01*
X006638Y014470D02*
X007279Y014470D01*
X007221Y014411D02*
X006638Y014411D01*
X006638Y014352D02*
X006772Y014352D01*
X006682Y014294D02*
X006638Y014294D01*
X006692Y014587D02*
X007104Y014587D01*
X007045Y014645D02*
X006751Y014645D01*
X006788Y014704D02*
X007008Y014704D01*
X006983Y014762D02*
X006813Y014762D01*
X006822Y014821D02*
X006974Y014821D01*
X006974Y014879D02*
X006822Y014879D01*
X006811Y014938D02*
X006985Y014938D01*
X007009Y014996D02*
X006787Y014996D01*
X006747Y015055D02*
X007049Y015055D01*
X007108Y015114D02*
X006688Y015114D01*
X007024Y014352D02*
X007162Y014352D01*
X007138Y014294D02*
X007114Y014294D01*
X007476Y015114D02*
X007895Y015114D01*
X008263Y015114D02*
X008683Y015114D01*
X008624Y015055D02*
X008322Y015055D01*
X008362Y014996D02*
X008584Y014996D01*
X008560Y014938D02*
X008386Y014938D01*
X008397Y014879D02*
X008549Y014879D01*
X008549Y014821D02*
X008397Y014821D01*
X008388Y014762D02*
X008558Y014762D01*
X008533Y014704D02*
X008363Y014704D01*
X008418Y014540D02*
X008568Y014540D01*
X008868Y014840D01*
X008867Y014841D01*
X008867Y014848D01*
X008753Y014528D02*
X010692Y014528D01*
X010648Y014587D02*
X010629Y014587D01*
X010750Y014470D02*
X008695Y014470D01*
X008636Y014411D02*
X010809Y014411D01*
X010835Y015693D02*
X010835Y016620D01*
X010278Y016109D02*
X009029Y016109D01*
X009169Y015933D02*
X009269Y015933D01*
X008704Y016109D02*
X008242Y016109D01*
X008311Y016050D02*
X008635Y016050D01*
X008589Y015992D02*
X008357Y015992D01*
X008381Y015933D02*
X008564Y015933D01*
X008549Y015875D02*
X008397Y015875D01*
X008397Y015816D02*
X008549Y015816D01*
X008554Y015757D02*
X008392Y015757D01*
X008368Y015699D02*
X008578Y015699D01*
X008609Y015640D02*
X008337Y015640D01*
X008278Y015582D02*
X008668Y015582D01*
X008782Y015523D02*
X008164Y015523D01*
X007761Y015875D02*
X007629Y015875D01*
X007616Y015933D02*
X007777Y015933D01*
X007801Y015992D02*
X007591Y015992D01*
X007551Y016050D02*
X007848Y016050D01*
X007916Y016109D02*
X007493Y016109D01*
X007848Y016343D02*
X008311Y016343D01*
X008242Y016401D02*
X007917Y016401D01*
X007963Y016460D02*
X008195Y016460D01*
X008171Y016519D02*
X007987Y016519D01*
X008003Y016577D02*
X008155Y016577D01*
X008155Y016636D02*
X008003Y016636D01*
X007999Y016694D02*
X008160Y016694D01*
X008184Y016753D02*
X007974Y016753D01*
X007943Y016811D02*
X008215Y016811D01*
X008274Y016870D02*
X007885Y016870D01*
X008635Y016343D02*
X009885Y016343D01*
X009816Y016401D02*
X008704Y016401D01*
X008751Y016460D02*
X009770Y016460D01*
X009746Y016519D02*
X008775Y016519D01*
X008791Y016577D02*
X009730Y016577D01*
X009730Y016636D02*
X008791Y016636D01*
X008786Y016694D02*
X009735Y016694D01*
X009759Y016753D02*
X008762Y016753D01*
X008731Y016811D02*
X009790Y016811D01*
X009848Y016870D02*
X008672Y016870D01*
X008418Y014540D02*
X008088Y014210D01*
X008088Y013940D01*
X008448Y013580D01*
X009678Y013580D01*
X010128Y013130D01*
X010128Y011660D01*
X010443Y011344D01*
X010443Y010998D01*
X009768Y011390D02*
X009768Y012950D01*
X009498Y013220D01*
X009768Y011390D02*
X009676Y011298D01*
X009676Y010998D01*
X009578Y010430D02*
X009518Y010430D01*
X009518Y010371D02*
X009578Y010371D01*
X009578Y010313D02*
X009518Y010313D01*
X009518Y010254D02*
X009578Y010254D01*
X009578Y010196D02*
X009518Y010196D01*
X009518Y010137D02*
X009578Y010137D01*
X009578Y010079D02*
X009518Y010079D01*
X009518Y010020D02*
X009578Y010020D01*
X009578Y009962D02*
X009518Y009962D01*
X009518Y009903D02*
X009578Y009903D01*
X009578Y009845D02*
X009518Y009845D01*
X009518Y009786D02*
X009578Y009786D01*
X009578Y009728D02*
X009518Y009728D01*
X009931Y008183D02*
X009931Y007774D01*
X009313Y006655D02*
X009298Y006655D01*
X009313Y006655D02*
X009318Y006650D01*
X010256Y002995D02*
X013853Y002995D01*
X013807Y002936D02*
X010256Y002936D01*
X010256Y002878D02*
X013749Y002878D01*
X013688Y002819D02*
X010256Y002819D01*
X010256Y002761D02*
X013612Y002761D01*
X013524Y002702D02*
X010247Y002702D01*
X010189Y002644D02*
X013421Y002644D01*
X007772Y011718D02*
X007399Y011718D01*
X007375Y011777D02*
X007713Y011777D01*
X007655Y011835D02*
X007329Y011835D01*
X007298Y011894D02*
X007596Y011894D01*
X007538Y011952D02*
X007298Y011952D01*
X007298Y012011D02*
X007479Y012011D01*
X007421Y012069D02*
X007298Y012069D01*
X007298Y012128D02*
X007362Y012128D01*
X007303Y012186D02*
X007298Y012186D01*
X003934Y008498D02*
X003874Y008498D01*
X003874Y008440D02*
X003934Y008440D01*
X003934Y008381D02*
X003874Y008381D01*
X003874Y008322D02*
X003934Y008322D01*
X003934Y008264D02*
X003874Y008264D01*
X003874Y008088D02*
X003934Y008088D01*
X003934Y008030D02*
X003874Y008030D01*
X003874Y007971D02*
X003934Y007971D01*
X003934Y007913D02*
X003874Y007913D01*
X003874Y007854D02*
X003934Y007854D01*
X003934Y007796D02*
X003874Y007796D01*
X004110Y007796D02*
X004551Y007796D01*
X004455Y007854D02*
X004169Y007854D01*
X004172Y007913D02*
X004444Y007913D01*
X004444Y007971D02*
X004172Y007971D01*
X004172Y008030D02*
X004444Y008030D01*
X004444Y008088D02*
X004172Y008088D01*
X003636Y008205D02*
X003478Y008205D01*
X003478Y008264D02*
X003636Y008264D01*
X003636Y008322D02*
X003478Y008322D01*
X003478Y008381D02*
X003636Y008381D01*
X003636Y008440D02*
X003478Y008440D01*
X003478Y008498D02*
X003658Y008498D01*
X003478Y007210D02*
X004551Y007210D01*
X004551Y007152D02*
X003478Y007152D01*
X003478Y007093D02*
X004551Y007093D01*
X004551Y007035D02*
X003478Y007035D01*
X003478Y006976D02*
X004551Y006976D01*
X004551Y006917D02*
X003478Y006917D01*
X003478Y006859D02*
X003672Y006859D01*
X003636Y006823D02*
X003636Y006543D01*
X003874Y006543D01*
X003874Y006483D01*
X003934Y006483D01*
X003934Y006127D01*
X004096Y006127D01*
X004172Y006204D01*
X004172Y006483D01*
X003934Y006483D01*
X003934Y006543D01*
X004172Y006543D01*
X004172Y006823D01*
X004096Y006899D01*
X003934Y006899D01*
X003934Y006544D01*
X003874Y006544D01*
X003874Y006899D01*
X003712Y006899D01*
X003636Y006823D01*
X003636Y006800D02*
X003478Y006800D01*
X003478Y006742D02*
X003636Y006742D01*
X003636Y006683D02*
X003478Y006683D01*
X003478Y006625D02*
X003636Y006625D01*
X003636Y006566D02*
X003478Y006566D01*
X003478Y006508D02*
X003874Y006508D01*
X003874Y006483D02*
X003636Y006483D01*
X003636Y006204D01*
X003712Y006127D01*
X003874Y006127D01*
X003874Y006483D01*
X003874Y006449D02*
X003934Y006449D01*
X003934Y006391D02*
X003874Y006391D01*
X003874Y006332D02*
X003934Y006332D01*
X003934Y006273D02*
X003874Y006273D01*
X003874Y006215D02*
X003934Y006215D01*
X003934Y006156D02*
X003874Y006156D01*
X003683Y006156D02*
X003478Y006156D01*
X003478Y006215D02*
X003636Y006215D01*
X003636Y006273D02*
X003478Y006273D01*
X003478Y006332D02*
X003636Y006332D01*
X003636Y006391D02*
X003478Y006391D01*
X003478Y006449D02*
X003636Y006449D01*
X003874Y006566D02*
X003934Y006566D01*
X003934Y006508D02*
X004444Y006508D01*
X004444Y006566D02*
X004172Y006566D01*
X004172Y006625D02*
X004444Y006625D01*
X004444Y006683D02*
X004172Y006683D01*
X004172Y006742D02*
X004444Y006742D01*
X004444Y006800D02*
X004172Y006800D01*
X004136Y006859D02*
X004488Y006859D01*
X004444Y006449D02*
X004172Y006449D01*
X004172Y006391D02*
X004444Y006391D01*
X004444Y006332D02*
X004172Y006332D01*
X004172Y006273D02*
X004444Y006273D01*
X004444Y006215D02*
X004172Y006215D01*
X004124Y006156D02*
X004499Y006156D01*
X003934Y006625D02*
X003874Y006625D01*
X003874Y006683D02*
X003934Y006683D01*
X003934Y006742D02*
X003874Y006742D01*
X003874Y006800D02*
X003934Y006800D01*
X003934Y006859D02*
X003874Y006859D01*
X005524Y016343D02*
X005948Y016343D01*
X005879Y016401D02*
X005583Y016401D01*
X005623Y016460D02*
X005833Y016460D01*
X005809Y016519D02*
X005647Y016519D01*
X004350Y017104D02*
X013245Y017104D01*
X013399Y017045D02*
X004196Y017045D01*
X012243Y015582D02*
X012531Y015582D01*
X012556Y015640D02*
X012302Y015640D01*
X012326Y015699D02*
X012588Y015699D01*
X012647Y015757D02*
X012351Y015757D01*
X012380Y014352D02*
X012440Y014352D01*
X012440Y014294D02*
X012380Y014294D01*
X012380Y014235D02*
X012440Y014235D01*
X012440Y014177D02*
X012380Y014177D01*
X012380Y014118D02*
X012440Y014118D01*
X012440Y014060D02*
X014118Y014060D01*
X012440Y014001D02*
X012380Y014001D01*
X012380Y013943D02*
X012440Y013943D01*
X012440Y013884D02*
X012380Y013884D01*
X012380Y013826D02*
X012440Y013826D01*
X012440Y013767D02*
X012380Y013767D01*
D29*
X011048Y012340D03*
X011048Y011840D03*
X011048Y011340D03*
X012048Y012090D03*
X012298Y011840D03*
X013548Y010840D03*
X013548Y010340D03*
X013048Y010340D03*
X011658Y009140D03*
X011778Y008660D03*
X011298Y008300D03*
X011548Y007590D03*
X013048Y008340D03*
X010048Y009090D03*
X009548Y009590D03*
X010048Y010090D03*
X009048Y010090D03*
X009048Y009090D03*
X008178Y008060D03*
X007818Y008420D03*
X007488Y008600D03*
X007458Y009140D03*
X008538Y007460D03*
X008778Y007220D03*
X008548Y006340D03*
X008898Y005540D03*
X008328Y004970D03*
X007298Y005840D03*
X007298Y006340D03*
X007298Y006840D03*
X006798Y006340D03*
X006798Y005340D03*
X006798Y004840D03*
X006298Y004840D03*
X005838Y007220D03*
X005838Y007640D03*
X005548Y008840D03*
X005548Y009590D03*
X005548Y010340D03*
X007158Y011660D03*
X007398Y011060D03*
X007798Y010840D03*
X009048Y012590D03*
X009298Y012840D03*
X008798Y012840D03*
X008298Y012860D03*
X007938Y012860D03*
X007458Y012860D03*
X007098Y012860D03*
X009408Y011480D03*
X009978Y007400D03*
X010188Y004970D03*
X010608Y004580D03*
X004048Y005840D03*
D30*
X006288Y005930D02*
X006324Y005966D01*
X006786Y005966D01*
X006298Y005920D02*
X006298Y005905D01*
X006298Y005920D02*
X006288Y005930D01*
X007809Y005966D02*
X007809Y005368D01*
X007848Y005330D01*
X007858Y005340D01*
X007863Y005340D01*
X008268Y004940D02*
X008298Y004970D01*
X008328Y004970D01*
X010188Y004970D02*
X012078Y004970D01*
X012536Y005428D01*
X012536Y005966D01*
X012894Y005966D01*
X013038Y006110D01*
X013038Y007340D01*
X012912Y007466D01*
X012536Y007466D01*
X013559Y006340D02*
X013658Y006340D01*
X013788Y006470D01*
X013788Y006800D01*
X013798Y006790D01*
X013798Y006775D01*
X013878Y008960D02*
X013878Y011600D01*
X011658Y013820D01*
X011568Y014120D01*
X011568Y014510D01*
X011230Y014848D01*
X011229Y014848D01*
X011229Y014879D01*
X011208Y014900D01*
X011229Y014921D01*
X011229Y015832D01*
X011240Y015832D01*
X011622Y016215D01*
X011622Y016620D01*
X011627Y014061D02*
X011622Y014061D01*
X011627Y014061D02*
X011658Y013820D01*
D31*
X013818Y008960D02*
X013818Y008900D01*
X013813Y008905D01*
X013798Y008905D01*
X013793Y008905D01*
X013788Y008900D01*
X013798Y008275D02*
X013788Y008265D01*
X013788Y008068D01*
X013559Y007840D01*
X013559Y007838D01*
X013798Y007600D01*
X013798Y007405D01*
X007458Y009140D02*
X007098Y008780D01*
X007098Y008180D01*
X007098Y008150D01*
X006318Y007370D01*
X006318Y005990D01*
X006298Y005970D01*
X006298Y005905D01*
D32*
X007863Y005340D02*
X007868Y005340D01*
X008268Y004940D01*
X008286Y004922D01*
X008286Y004193D01*
X007458Y009140D02*
X007524Y009206D01*
X008140Y009206D01*
X009420Y010998D02*
X009420Y011498D01*
X009408Y011510D01*
X009408Y011480D01*
X009408Y011510D02*
X009408Y011690D01*
X009318Y011780D01*
X009313Y011775D01*
X009418Y011775D01*
M02*
