G75*
G70*
%OFA0B0*%
%FSLAX24Y24*%
%IPPOS*%
%LPD*%
%AMOC8*
5,1,8,0,0,1.08239X$1,22.5*
%
%ADD10C,0.1340*%
%ADD11R,0.0237X0.0395*%
%ADD12R,0.2559X0.8228*%
%ADD13R,0.0552X0.0178*%
%ADD14R,0.0178X0.0552*%
%ADD15R,0.0395X0.0316*%
%ADD16R,0.0280X0.0780*%
%ADD17R,0.0237X0.0789*%
%ADD18O,0.0496X0.0911*%
%ADD19R,0.0474X0.0867*%
%ADD20R,0.0730X0.0730*%
%ADD21OC8,0.0789*%
%ADD22R,0.0316X0.0395*%
%ADD23OC8,0.0620*%
%ADD24C,0.0620*%
%ADD25R,0.0336X0.0415*%
D10*
X026336Y006485D03*
D11*
X023710Y012724D03*
X022962Y012724D03*
X022330Y012684D03*
X021582Y012684D03*
X021582Y013707D03*
X021956Y013707D03*
X022330Y013707D03*
X022962Y013747D03*
X023336Y013747D03*
X023710Y013747D03*
D12*
X030026Y005730D03*
D13*
X017917Y005775D03*
X017917Y005972D03*
X017917Y006169D03*
X017917Y006365D03*
X017917Y006562D03*
X017917Y006759D03*
X017917Y006956D03*
X017917Y007153D03*
X017917Y007350D03*
X017917Y007546D03*
X017917Y007743D03*
X017917Y007940D03*
X017917Y008137D03*
X017917Y008334D03*
X017917Y008531D03*
X017917Y008728D03*
X017917Y008924D03*
X017917Y009121D03*
X017917Y009318D03*
X017917Y009515D03*
X017917Y009712D03*
X017917Y009909D03*
X017917Y010106D03*
X017917Y010302D03*
X017917Y010499D03*
X017917Y010696D03*
X017917Y010893D03*
X017917Y011090D03*
X017917Y011287D03*
X017917Y011483D03*
X017917Y011680D03*
X009255Y011680D03*
X009255Y011483D03*
X009255Y011287D03*
X009255Y011090D03*
X009255Y010893D03*
X009255Y010696D03*
X009255Y010499D03*
X009255Y010302D03*
X009255Y010106D03*
X009255Y009909D03*
X009255Y009712D03*
X009255Y009515D03*
X009255Y009318D03*
X009255Y009121D03*
X009255Y008924D03*
X009255Y008728D03*
X009255Y008531D03*
X009255Y008334D03*
X009255Y008137D03*
X009255Y007940D03*
X009255Y007743D03*
X009255Y007546D03*
X009255Y007350D03*
X009255Y007153D03*
X009255Y006956D03*
X009255Y006759D03*
X009255Y006562D03*
X009255Y006365D03*
X009255Y006169D03*
X009255Y005972D03*
X009255Y005775D03*
X009255Y005578D03*
X009255Y005381D03*
X009255Y005184D03*
X009255Y004987D03*
X009255Y004791D03*
X017917Y004791D03*
X017917Y004987D03*
X017917Y005184D03*
X017917Y005381D03*
X017917Y005578D03*
D14*
X017031Y003905D03*
X016834Y003905D03*
X016637Y003905D03*
X016440Y003905D03*
X016243Y003905D03*
X016047Y003905D03*
X015850Y003905D03*
X015653Y003905D03*
X015456Y003905D03*
X015259Y003905D03*
X015062Y003905D03*
X014866Y003905D03*
X014669Y003905D03*
X014472Y003905D03*
X014275Y003905D03*
X014078Y003905D03*
X013881Y003905D03*
X013684Y003905D03*
X013488Y003905D03*
X013291Y003905D03*
X013094Y003905D03*
X012897Y003905D03*
X012700Y003905D03*
X012503Y003905D03*
X012306Y003905D03*
X012110Y003905D03*
X011913Y003905D03*
X011716Y003905D03*
X011519Y003905D03*
X011322Y003905D03*
X011125Y003905D03*
X010929Y003905D03*
X010732Y003905D03*
X010535Y003905D03*
X010338Y003905D03*
X010141Y003905D03*
X010141Y012566D03*
X010338Y012566D03*
X010535Y012566D03*
X010732Y012566D03*
X010929Y012566D03*
X011125Y012566D03*
X011322Y012566D03*
X011519Y012566D03*
X011716Y012566D03*
X011913Y012566D03*
X012110Y012566D03*
X012306Y012566D03*
X012503Y012566D03*
X012700Y012566D03*
X012897Y012566D03*
X013094Y012566D03*
X013291Y012566D03*
X013488Y012566D03*
X013684Y012566D03*
X013881Y012566D03*
X014078Y012566D03*
X014275Y012566D03*
X014472Y012566D03*
X014669Y012566D03*
X014866Y012566D03*
X015062Y012566D03*
X015259Y012566D03*
X015456Y012566D03*
X015653Y012566D03*
X015850Y012566D03*
X016047Y012566D03*
X016243Y012566D03*
X016440Y012566D03*
X016637Y012566D03*
X016834Y012566D03*
X017031Y012566D03*
D15*
X019336Y012800D03*
X019836Y012800D03*
X019836Y012170D03*
X019336Y012170D03*
X024106Y015000D03*
X024106Y015630D03*
X019336Y007800D03*
X019336Y007170D03*
X018586Y007170D03*
X018586Y007800D03*
X008586Y007800D03*
X008586Y007170D03*
X008586Y004550D03*
X008586Y003920D03*
D16*
X020086Y004135D03*
X020586Y004135D03*
X021086Y004135D03*
X021586Y004135D03*
X021586Y007335D03*
X021086Y007335D03*
X020586Y007335D03*
X020086Y007335D03*
D17*
X021574Y016133D03*
X021830Y016133D03*
X022086Y016133D03*
X022342Y016133D03*
X022598Y016133D03*
D18*
X023031Y016054D03*
X021141Y016054D03*
D19*
X021830Y017235D03*
X022342Y017235D03*
D20*
X023090Y017235D03*
X021082Y017235D03*
D21*
X025086Y016735D03*
X025086Y015735D03*
D22*
X023151Y014985D03*
X022521Y014985D03*
X023771Y014235D03*
X024401Y014235D03*
X024401Y012235D03*
X023771Y012235D03*
X022151Y012235D03*
X021521Y012235D03*
X020401Y013235D03*
X019771Y013235D03*
X019651Y009735D03*
X020271Y009735D03*
X020901Y009735D03*
X019021Y009735D03*
X012271Y013215D03*
X011641Y013215D03*
X012991Y003375D03*
X013621Y003375D03*
X016021Y003355D03*
X016651Y003355D03*
D23*
X005086Y004235D03*
X006086Y004235D03*
X006086Y005235D03*
X005086Y005235D03*
X005086Y006235D03*
X006086Y006235D03*
X006086Y007235D03*
X005086Y007235D03*
X005086Y008235D03*
X006086Y008235D03*
X006086Y009235D03*
X005086Y009235D03*
X005086Y010235D03*
X006086Y010235D03*
X006086Y011235D03*
X005086Y011235D03*
X004586Y015235D03*
X005586Y015235D03*
X006586Y015235D03*
X007586Y015235D03*
X008586Y015235D03*
X009586Y015235D03*
X010586Y015235D03*
X011586Y015235D03*
X012586Y015235D03*
X013586Y015235D03*
X014586Y015235D03*
X015586Y015235D03*
X016586Y015235D03*
X017586Y015235D03*
X018586Y015235D03*
X018586Y016235D03*
X017586Y016235D03*
X016586Y016235D03*
X015586Y016235D03*
X014586Y016235D03*
X013586Y016235D03*
X012586Y016235D03*
X011586Y016235D03*
X010586Y016235D03*
X009586Y016235D03*
X008586Y016235D03*
X007586Y016235D03*
X006586Y016235D03*
X005586Y016235D03*
D24*
X004586Y016235D03*
D25*
X018901Y009180D03*
X019531Y009180D03*
X019531Y008550D03*
X018901Y008550D03*
M02*
