G75*
G70*
%OFA0B0*%
%FSLAX24Y24*%
%IPPOS*%
%LPD*%
%AMOC8*
5,1,8,0,0,1.08239X$1,22.5*
%
%ADD10C,0.0000*%
%ADD11C,0.0040*%
%ADD12C,0.0030*%
%ADD13C,0.0050*%
%ADD14C,0.0010*%
%ADD15C,0.0020*%
%ADD16C,0.0060*%
D10*
X003086Y003150D02*
X003086Y016321D01*
X003088Y016395D01*
X003094Y016469D01*
X003103Y016542D01*
X003117Y016615D01*
X003134Y016687D01*
X003155Y016758D01*
X003180Y016828D01*
X003208Y016896D01*
X003240Y016963D01*
X003275Y017028D01*
X003314Y017091D01*
X003356Y017152D01*
X003401Y017211D01*
X003449Y017267D01*
X003500Y017321D01*
X003554Y017372D01*
X003610Y017420D01*
X003669Y017465D01*
X003730Y017507D01*
X003793Y017546D01*
X003858Y017581D01*
X003925Y017613D01*
X003993Y017641D01*
X004063Y017666D01*
X004134Y017687D01*
X004206Y017704D01*
X004279Y017718D01*
X004352Y017727D01*
X004426Y017733D01*
X004500Y017735D01*
X024672Y017735D01*
X024746Y017733D01*
X024820Y017727D01*
X024893Y017718D01*
X024966Y017704D01*
X025038Y017687D01*
X025109Y017666D01*
X025179Y017641D01*
X025247Y017613D01*
X025314Y017581D01*
X025379Y017546D01*
X025442Y017507D01*
X025503Y017465D01*
X025562Y017420D01*
X025618Y017372D01*
X025672Y017321D01*
X025723Y017267D01*
X025771Y017211D01*
X025816Y017152D01*
X025858Y017091D01*
X025897Y017028D01*
X025932Y016963D01*
X025964Y016896D01*
X025992Y016828D01*
X026017Y016758D01*
X026038Y016687D01*
X026055Y016615D01*
X026069Y016542D01*
X026078Y016469D01*
X026084Y016395D01*
X026086Y016321D01*
X026086Y009735D01*
X026086Y009734D02*
X031106Y009734D01*
X031106Y006899D01*
X027956Y006899D01*
X027956Y006151D01*
X031106Y006151D01*
X031106Y001742D01*
X026086Y001742D01*
X026086Y001735D02*
X026086Y001755D01*
X026086Y001735D02*
X004500Y001735D01*
X004500Y001736D02*
X004426Y001738D01*
X004352Y001744D01*
X004279Y001753D01*
X004206Y001767D01*
X004134Y001784D01*
X004063Y001805D01*
X003993Y001830D01*
X003925Y001858D01*
X003858Y001890D01*
X003793Y001925D01*
X003730Y001964D01*
X003669Y002006D01*
X003610Y002051D01*
X003554Y002099D01*
X003500Y002150D01*
X003449Y002204D01*
X003401Y002260D01*
X003356Y002319D01*
X003314Y002380D01*
X003275Y002443D01*
X003240Y002508D01*
X003208Y002575D01*
X003180Y002643D01*
X003155Y002713D01*
X003134Y002784D01*
X003117Y002856D01*
X003103Y002929D01*
X003094Y003002D01*
X003088Y003076D01*
X003086Y003150D01*
X025706Y006485D02*
X025709Y006542D01*
X025716Y006599D01*
X025729Y006655D01*
X025747Y006709D01*
X025770Y006762D01*
X025798Y006812D01*
X025830Y006860D01*
X025866Y006904D01*
X025906Y006945D01*
X025950Y006983D01*
X025996Y007016D01*
X026046Y007044D01*
X026098Y007068D01*
X026152Y007088D01*
X026208Y007102D01*
X026264Y007111D01*
X026322Y007115D01*
X026379Y007114D01*
X026436Y007107D01*
X026492Y007095D01*
X026547Y007079D01*
X026600Y007057D01*
X026651Y007031D01*
X026699Y007000D01*
X026745Y006965D01*
X026787Y006925D01*
X026825Y006883D01*
X026859Y006836D01*
X026889Y006787D01*
X026914Y006736D01*
X026934Y006682D01*
X026950Y006627D01*
X026960Y006571D01*
X026965Y006514D01*
X026965Y006456D01*
X026960Y006399D01*
X026950Y006343D01*
X026934Y006288D01*
X026914Y006234D01*
X026889Y006183D01*
X026859Y006134D01*
X026825Y006087D01*
X026787Y006045D01*
X026745Y006005D01*
X026699Y005970D01*
X026651Y005939D01*
X026600Y005913D01*
X026547Y005891D01*
X026492Y005875D01*
X026436Y005863D01*
X026379Y005856D01*
X026322Y005855D01*
X026264Y005859D01*
X026208Y005868D01*
X026152Y005882D01*
X026098Y005902D01*
X026046Y005926D01*
X025996Y005954D01*
X025950Y005987D01*
X025906Y006025D01*
X025866Y006066D01*
X025830Y006110D01*
X025798Y006158D01*
X025770Y006208D01*
X025747Y006261D01*
X025729Y006315D01*
X025716Y006371D01*
X025709Y006428D01*
X025706Y006485D01*
D11*
X019566Y005196D02*
X019106Y005196D01*
X019336Y004966D01*
X019336Y005273D01*
X019489Y004812D02*
X019106Y004812D01*
X019106Y004505D02*
X019489Y004505D01*
X019566Y004582D01*
X019566Y004736D01*
X019489Y004812D01*
X008084Y005082D02*
X008007Y005005D01*
X007777Y005005D01*
X007777Y005466D01*
X008007Y005466D01*
X008084Y005389D01*
X008084Y005312D01*
X008007Y005236D01*
X007777Y005236D01*
X008007Y005236D02*
X008084Y005159D01*
X008084Y005082D01*
X007623Y005466D02*
X007316Y005466D01*
X007470Y005466D02*
X007470Y005005D01*
X007163Y005082D02*
X007163Y005159D01*
X007086Y005236D01*
X006933Y005236D01*
X006856Y005312D01*
X006856Y005389D01*
X006933Y005466D01*
X007086Y005466D01*
X007163Y005389D01*
X007163Y005082D02*
X007086Y005005D01*
X006933Y005005D01*
X006856Y005082D01*
X006856Y006005D02*
X007086Y006005D01*
X007163Y006082D01*
X007163Y006389D01*
X007086Y006466D01*
X006856Y006466D01*
X006856Y006005D01*
X006856Y007005D02*
X007086Y007005D01*
X007163Y007082D01*
X007163Y007159D01*
X007086Y007236D01*
X006856Y007236D01*
X006856Y007466D02*
X006856Y007005D01*
X007086Y007236D02*
X007163Y007312D01*
X007163Y007389D01*
X007086Y007466D01*
X006856Y007466D01*
X006933Y009005D02*
X007086Y009005D01*
X007163Y009082D01*
X007163Y009236D01*
X007009Y009236D01*
X006856Y009389D02*
X006856Y009082D01*
X006933Y009005D01*
X007316Y009005D02*
X007623Y009005D01*
X007470Y009005D02*
X007470Y009466D01*
X007316Y009312D01*
X007163Y009389D02*
X007086Y009466D01*
X006933Y009466D01*
X006856Y009389D01*
X006933Y011005D02*
X007086Y011005D01*
X007163Y011082D01*
X007163Y011236D01*
X007009Y011236D01*
X006856Y011389D02*
X006856Y011082D01*
X006933Y011005D01*
X007316Y011082D02*
X007316Y011389D01*
X007393Y011466D01*
X007546Y011466D01*
X007623Y011389D01*
X007316Y011082D01*
X007393Y011005D01*
X007546Y011005D01*
X007623Y011082D01*
X007623Y011389D01*
X007163Y011389D02*
X007086Y011466D01*
X006933Y011466D01*
X006856Y011389D01*
X004373Y011389D02*
X004373Y011082D01*
X004296Y011005D01*
X004143Y011005D01*
X004066Y011082D01*
X004373Y011389D01*
X004296Y011466D01*
X004143Y011466D01*
X004066Y011389D01*
X004066Y011082D01*
X003913Y011005D02*
X003759Y011159D01*
X003836Y011159D02*
X003606Y011159D01*
X003606Y011005D02*
X003606Y011466D01*
X003836Y011466D01*
X003913Y011389D01*
X003913Y011236D01*
X003836Y011159D01*
X003836Y010466D02*
X003606Y010466D01*
X003606Y010005D01*
X003836Y010005D01*
X003913Y010082D01*
X003913Y010159D01*
X003836Y010236D01*
X003606Y010236D01*
X003836Y010236D02*
X003913Y010312D01*
X003913Y010389D01*
X003836Y010466D01*
X004066Y010389D02*
X004143Y010466D01*
X004296Y010466D01*
X004373Y010389D01*
X004066Y010082D01*
X004143Y010005D01*
X004296Y010005D01*
X004373Y010082D01*
X004373Y010389D01*
X004066Y010389D02*
X004066Y010082D01*
X004220Y009466D02*
X004220Y009005D01*
X004373Y009005D02*
X004066Y009005D01*
X003913Y009005D02*
X003759Y009159D01*
X003836Y009159D02*
X003606Y009159D01*
X003606Y009005D02*
X003606Y009466D01*
X003836Y009466D01*
X003913Y009389D01*
X003913Y009236D01*
X003836Y009159D01*
X004066Y009312D02*
X004220Y009466D01*
X004220Y008466D02*
X004220Y008005D01*
X004373Y008005D02*
X004066Y008005D01*
X003913Y008082D02*
X003836Y008005D01*
X003606Y008005D01*
X003606Y008466D01*
X003836Y008466D01*
X003913Y008389D01*
X003913Y008312D01*
X003836Y008236D01*
X003606Y008236D01*
X003836Y008236D02*
X003913Y008159D01*
X003913Y008082D01*
X004066Y008312D02*
X004220Y008466D01*
X003759Y007466D02*
X003913Y007312D01*
X003913Y007005D01*
X003913Y007236D02*
X003606Y007236D01*
X003606Y007312D02*
X003606Y007005D01*
X003606Y007312D02*
X003759Y007466D01*
X003683Y006466D02*
X003606Y006389D01*
X003606Y006082D01*
X003683Y006005D01*
X003836Y006005D01*
X003913Y006082D01*
X003913Y006389D02*
X003836Y006466D01*
X003683Y006466D01*
X003586Y005466D02*
X003433Y005466D01*
X003356Y005389D01*
X003356Y005082D01*
X003433Y005005D01*
X003586Y005005D01*
X003663Y005082D01*
X003816Y005005D02*
X004123Y005005D01*
X004277Y005005D02*
X004277Y005466D01*
X004353Y005236D02*
X004584Y005005D01*
X004277Y005159D02*
X004584Y005466D01*
X003816Y005466D02*
X003816Y005005D01*
X003663Y005389D02*
X003586Y005466D01*
X003683Y004466D02*
X003606Y004389D01*
X003606Y004082D01*
X003683Y004005D01*
X003836Y004005D01*
X003913Y004082D01*
X003913Y004389D01*
X003836Y004466D01*
X003683Y004466D01*
X004066Y004466D02*
X004066Y004005D01*
X004373Y004005D01*
X004220Y004236D02*
X004066Y004236D01*
X004066Y004466D02*
X004373Y004466D01*
X020624Y014907D02*
X020700Y014830D01*
X020854Y014830D01*
X020931Y014907D01*
X020931Y015291D01*
X021084Y015214D02*
X021161Y015291D01*
X021314Y015291D01*
X021391Y015214D01*
X021544Y015291D02*
X021544Y014830D01*
X021775Y014830D01*
X021851Y014907D01*
X021851Y014984D01*
X021775Y015060D01*
X021544Y015060D01*
X021391Y014984D02*
X021391Y014907D01*
X021314Y014830D01*
X021161Y014830D01*
X021084Y014907D01*
X021161Y015060D02*
X021314Y015060D01*
X021391Y014984D01*
X021161Y015060D02*
X021084Y015137D01*
X021084Y015214D01*
X020624Y015291D02*
X020624Y014907D01*
X021544Y015291D02*
X021775Y015291D01*
X021851Y015214D01*
X021851Y015137D01*
X021775Y015060D01*
X022005Y015137D02*
X022158Y015291D01*
X022158Y014830D01*
X022005Y014830D02*
X022312Y014830D01*
D12*
X021248Y013627D02*
X021248Y013433D01*
X021248Y013530D02*
X020958Y013530D01*
X021055Y013433D01*
X020958Y013332D02*
X021200Y013332D01*
X021248Y013284D01*
X021248Y013187D01*
X021200Y013139D01*
X020958Y013139D01*
X019523Y014750D02*
X019571Y014799D01*
X019571Y014896D01*
X019523Y014944D01*
X019474Y014944D01*
X019426Y014896D01*
X019426Y014847D01*
X019426Y014896D02*
X019378Y014944D01*
X019329Y014944D01*
X019281Y014896D01*
X019281Y014799D01*
X019329Y014750D01*
X019378Y015045D02*
X019571Y015142D01*
X019378Y015239D01*
X019329Y015340D02*
X019281Y015388D01*
X019281Y015485D01*
X019329Y015533D01*
X019378Y015533D01*
X019426Y015485D01*
X019474Y015533D01*
X019523Y015533D01*
X019571Y015485D01*
X019571Y015388D01*
X019523Y015340D01*
X019426Y015436D02*
X019426Y015485D01*
X019378Y015634D02*
X019571Y015828D01*
X019571Y015929D02*
X019378Y016122D01*
X019329Y016122D01*
X019281Y016074D01*
X019281Y015977D01*
X019329Y015929D01*
X019378Y015828D02*
X019571Y015634D01*
X019571Y015929D02*
X019571Y016122D01*
X017951Y017180D02*
X017951Y017471D01*
X017806Y017326D01*
X018000Y017326D01*
X017705Y017180D02*
X017512Y017180D01*
X017608Y017180D02*
X017608Y017471D01*
X017512Y017374D01*
X017411Y017180D02*
X017217Y017180D01*
X017314Y017180D02*
X017314Y017471D01*
X017217Y017374D01*
X017000Y017326D02*
X017000Y017229D01*
X016951Y017180D01*
X016855Y017180D01*
X016806Y017229D01*
X016806Y017326D02*
X016903Y017374D01*
X016951Y017374D01*
X017000Y017326D01*
X017000Y017471D02*
X016806Y017471D01*
X016806Y017326D01*
X016705Y017180D02*
X016512Y017180D01*
X016608Y017180D02*
X016608Y017471D01*
X016512Y017374D01*
X016411Y017180D02*
X016217Y017180D01*
X016314Y017180D02*
X016314Y017471D01*
X016217Y017374D01*
X016000Y017374D02*
X015951Y017326D01*
X015855Y017326D01*
X015806Y017374D01*
X015806Y017422D01*
X015855Y017471D01*
X015951Y017471D01*
X016000Y017422D01*
X016000Y017374D01*
X015951Y017326D02*
X016000Y017277D01*
X016000Y017229D01*
X015951Y017180D01*
X015855Y017180D01*
X015806Y017229D01*
X015806Y017277D01*
X015855Y017326D01*
X015705Y017180D02*
X015512Y017180D01*
X015608Y017180D02*
X015608Y017471D01*
X015512Y017374D01*
X015411Y017180D02*
X015217Y017180D01*
X015314Y017180D02*
X015314Y017471D01*
X015217Y017374D01*
X015000Y017422D02*
X015000Y017229D01*
X014951Y017180D01*
X014855Y017180D01*
X014806Y017229D01*
X014855Y017326D02*
X014806Y017374D01*
X014806Y017422D01*
X014855Y017471D01*
X014951Y017471D01*
X015000Y017422D01*
X015000Y017326D02*
X014855Y017326D01*
X014705Y017180D02*
X014512Y017180D01*
X014608Y017180D02*
X014608Y017471D01*
X014512Y017374D01*
X014411Y017180D02*
X014217Y017180D01*
X014314Y017180D02*
X014314Y017471D01*
X014217Y017374D01*
X014000Y017374D02*
X013951Y017326D01*
X014000Y017277D01*
X014000Y017229D01*
X013951Y017180D01*
X013855Y017180D01*
X013806Y017229D01*
X013705Y017180D02*
X013512Y017180D01*
X013705Y017374D01*
X013705Y017422D01*
X013657Y017471D01*
X013560Y017471D01*
X013512Y017422D01*
X013314Y017471D02*
X013314Y017180D01*
X013217Y017180D02*
X013411Y017180D01*
X013217Y017374D02*
X013314Y017471D01*
X013000Y017326D02*
X012806Y017326D01*
X012951Y017471D01*
X012951Y017180D01*
X012705Y017180D02*
X012512Y017180D01*
X012705Y017374D01*
X012705Y017422D01*
X012657Y017471D01*
X012560Y017471D01*
X012512Y017422D01*
X012314Y017471D02*
X012314Y017180D01*
X012217Y017180D02*
X012411Y017180D01*
X012217Y017374D02*
X012314Y017471D01*
X011903Y017471D02*
X011903Y017180D01*
X011806Y017180D02*
X012000Y017180D01*
X011806Y017374D02*
X011903Y017471D01*
X011705Y017422D02*
X011705Y017374D01*
X011657Y017326D01*
X011705Y017277D01*
X011705Y017229D01*
X011657Y017180D01*
X011560Y017180D01*
X011512Y017229D01*
X011411Y017180D02*
X011217Y017180D01*
X011314Y017180D02*
X011314Y017471D01*
X011217Y017374D01*
X011000Y017374D02*
X010806Y017180D01*
X011000Y017180D01*
X011000Y017374D02*
X011000Y017422D01*
X010951Y017471D01*
X010855Y017471D01*
X010806Y017422D01*
X010705Y017422D02*
X010705Y017374D01*
X010657Y017326D01*
X010705Y017277D01*
X010705Y017229D01*
X010657Y017180D01*
X010560Y017180D01*
X010512Y017229D01*
X010411Y017180D02*
X010217Y017180D01*
X010314Y017180D02*
X010314Y017471D01*
X010217Y017374D01*
X010000Y017422D02*
X010000Y017229D01*
X009951Y017180D01*
X009855Y017180D01*
X009806Y017229D01*
X009705Y017229D02*
X009657Y017180D01*
X009560Y017180D01*
X009512Y017229D01*
X009411Y017180D02*
X009217Y017180D01*
X009314Y017180D02*
X009314Y017471D01*
X009217Y017374D01*
X009000Y017422D02*
X009000Y017229D01*
X008951Y017180D01*
X008855Y017180D01*
X008806Y017229D01*
X009000Y017422D01*
X008951Y017471D01*
X008855Y017471D01*
X008806Y017422D01*
X008806Y017229D01*
X008705Y017326D02*
X008512Y017326D01*
X008657Y017471D01*
X008657Y017180D01*
X008411Y017180D02*
X008217Y017180D01*
X008314Y017180D02*
X008314Y017471D01*
X008217Y017374D01*
X007750Y017471D02*
X007750Y017180D01*
X007556Y017471D01*
X007556Y017180D01*
X007455Y017180D02*
X007262Y017180D01*
X007358Y017180D02*
X007358Y017471D01*
X007262Y017374D01*
X007161Y017326D02*
X006967Y017326D01*
X006866Y017326D02*
X006866Y017422D01*
X006818Y017471D01*
X006672Y017471D01*
X006672Y017180D01*
X006672Y017277D02*
X006818Y017277D01*
X006866Y017326D01*
X006571Y017180D02*
X006378Y017180D01*
X006474Y017180D02*
X006474Y017471D01*
X006378Y017374D01*
X009512Y017422D02*
X009560Y017471D01*
X009657Y017471D01*
X009705Y017422D01*
X009705Y017374D01*
X009657Y017326D01*
X009705Y017277D01*
X009705Y017229D01*
X009657Y017326D02*
X009608Y017326D01*
X009806Y017374D02*
X009855Y017326D01*
X010000Y017326D01*
X010000Y017422D02*
X009951Y017471D01*
X009855Y017471D01*
X009806Y017422D01*
X009806Y017374D01*
X010512Y017422D02*
X010560Y017471D01*
X010657Y017471D01*
X010705Y017422D01*
X010657Y017326D02*
X010608Y017326D01*
X011512Y017422D02*
X011560Y017471D01*
X011657Y017471D01*
X011705Y017422D01*
X011657Y017326D02*
X011608Y017326D01*
X013806Y017422D02*
X013855Y017471D01*
X013951Y017471D01*
X014000Y017422D01*
X014000Y017374D01*
X013951Y017326D02*
X013903Y017326D01*
X013903Y014221D02*
X013903Y013930D01*
X013806Y013930D02*
X014000Y013930D01*
X014217Y013930D02*
X014411Y013930D01*
X014314Y013930D02*
X014314Y014221D01*
X014217Y014124D01*
X014512Y014172D02*
X014560Y014221D01*
X014657Y014221D01*
X014705Y014172D01*
X014705Y014124D01*
X014512Y013930D01*
X014705Y013930D01*
X014806Y013979D02*
X015000Y014172D01*
X015000Y013979D01*
X014951Y013930D01*
X014855Y013930D01*
X014806Y013979D01*
X014806Y014172D01*
X014855Y014221D01*
X014951Y014221D01*
X015000Y014172D01*
X015217Y014124D02*
X015314Y014221D01*
X015314Y013930D01*
X015217Y013930D02*
X015411Y013930D01*
X015512Y013930D02*
X015705Y013930D01*
X015608Y013930D02*
X015608Y014221D01*
X015512Y014124D01*
X015806Y014221D02*
X016000Y014221D01*
X016000Y014172D01*
X015806Y013979D01*
X015806Y013930D01*
X015862Y013721D02*
X015717Y013721D01*
X015717Y013430D01*
X015717Y013527D02*
X015862Y013527D01*
X015911Y013576D01*
X015911Y013672D01*
X015862Y013721D01*
X016012Y013576D02*
X016205Y013576D01*
X016306Y013721D02*
X016500Y013430D01*
X016500Y013721D01*
X016306Y013721D02*
X016306Y013430D01*
X016314Y013930D02*
X016314Y014221D01*
X016217Y014124D01*
X016217Y013930D02*
X016411Y013930D01*
X016512Y013930D02*
X016705Y013930D01*
X016608Y013930D02*
X016608Y014221D01*
X016512Y014124D01*
X016806Y014076D02*
X016903Y014172D01*
X017000Y014221D01*
X016951Y014076D02*
X016806Y014076D01*
X016806Y013979D01*
X016855Y013930D01*
X016951Y013930D01*
X017000Y013979D01*
X017000Y014027D01*
X016951Y014076D01*
X017217Y014124D02*
X017314Y014221D01*
X017314Y013930D01*
X017217Y013930D02*
X017411Y013930D01*
X017512Y013930D02*
X017705Y013930D01*
X017608Y013930D02*
X017608Y014221D01*
X017512Y014124D01*
X017806Y014172D02*
X017855Y014221D01*
X017951Y014221D01*
X018000Y014172D01*
X018000Y014124D01*
X017806Y013930D01*
X018000Y013930D01*
X014500Y013721D02*
X014500Y013430D01*
X014306Y013721D01*
X014306Y013430D01*
X014205Y013576D02*
X014012Y013576D01*
X013911Y013576D02*
X013862Y013527D01*
X013717Y013527D01*
X013717Y013430D02*
X013717Y013721D01*
X013862Y013721D01*
X013911Y013672D01*
X013911Y013576D01*
X013705Y013930D02*
X013512Y013930D01*
X013705Y014124D01*
X013705Y014172D01*
X013657Y014221D01*
X013560Y014221D01*
X013512Y014172D01*
X013314Y014221D02*
X013314Y013930D01*
X013217Y013930D02*
X013411Y013930D01*
X013217Y014124D02*
X013314Y014221D01*
X013000Y014221D02*
X012903Y014172D01*
X012806Y014076D01*
X012951Y014076D01*
X013000Y014027D01*
X013000Y013979D01*
X012951Y013930D01*
X012855Y013930D01*
X012806Y013979D01*
X012806Y014076D01*
X012705Y014124D02*
X012705Y014172D01*
X012657Y014221D01*
X012560Y014221D01*
X012512Y014172D01*
X012705Y014124D02*
X012512Y013930D01*
X012705Y013930D01*
X012500Y013721D02*
X012500Y013430D01*
X012306Y013721D01*
X012306Y013430D01*
X012205Y013576D02*
X012012Y013576D01*
X011911Y013576D02*
X011862Y013527D01*
X011717Y013527D01*
X011717Y013430D02*
X011717Y013721D01*
X011862Y013721D01*
X011911Y013672D01*
X011911Y013576D01*
X011806Y013930D02*
X011806Y013979D01*
X012000Y014172D01*
X012000Y014221D01*
X011806Y014221D01*
X011705Y014172D02*
X011657Y014221D01*
X011560Y014221D01*
X011512Y014172D01*
X011705Y014172D02*
X011705Y014124D01*
X011512Y013930D01*
X011705Y013930D01*
X011411Y013930D02*
X011217Y013930D01*
X011314Y013930D02*
X011314Y014221D01*
X011217Y014124D01*
X011000Y014172D02*
X010806Y013979D01*
X010806Y013930D01*
X010705Y013979D02*
X010657Y013930D01*
X010560Y013930D01*
X010512Y013979D01*
X010411Y013930D02*
X010217Y013930D01*
X010314Y013930D02*
X010314Y014221D01*
X010217Y014124D01*
X010000Y014124D02*
X010000Y014172D01*
X009951Y014221D01*
X009855Y014221D01*
X009806Y014172D01*
X009806Y014124D01*
X009855Y014076D01*
X009951Y014076D01*
X010000Y014027D01*
X010000Y013979D01*
X009951Y013930D01*
X009855Y013930D01*
X009806Y013979D01*
X009806Y014027D01*
X009855Y014076D01*
X009951Y014076D02*
X010000Y014124D01*
X009705Y014124D02*
X009705Y014172D01*
X009657Y014221D01*
X009560Y014221D01*
X009512Y014172D01*
X009608Y014076D02*
X009657Y014076D01*
X009705Y014027D01*
X009705Y013979D01*
X009657Y013930D01*
X009560Y013930D01*
X009512Y013979D01*
X009411Y013930D02*
X009217Y013930D01*
X009314Y013930D02*
X009314Y014221D01*
X009217Y014124D01*
X009000Y013930D02*
X008806Y013930D01*
X008903Y013930D02*
X008903Y014221D01*
X008806Y014124D01*
X008705Y014076D02*
X008512Y014076D01*
X008657Y014221D01*
X008657Y013930D01*
X008411Y013930D02*
X008217Y013930D01*
X008314Y013930D02*
X008314Y014221D01*
X008217Y014124D01*
X008000Y014124D02*
X008000Y014172D01*
X007951Y014221D01*
X007855Y014221D01*
X007806Y014172D01*
X007705Y014076D02*
X007512Y014076D01*
X007657Y014221D01*
X007657Y013930D01*
X007806Y013930D02*
X008000Y014124D01*
X008000Y013930D02*
X007806Y013930D01*
X007862Y013721D02*
X007911Y013672D01*
X007911Y013576D01*
X007862Y013527D01*
X007717Y013527D01*
X007717Y013430D02*
X007717Y013721D01*
X007862Y013721D01*
X008012Y013576D02*
X008205Y013576D01*
X008306Y013721D02*
X008500Y013430D01*
X008500Y013721D01*
X008306Y013721D02*
X008306Y013430D01*
X007411Y013930D02*
X007217Y013930D01*
X007314Y013930D02*
X007314Y014221D01*
X007217Y014124D01*
X006750Y014076D02*
X006750Y013979D01*
X006701Y013930D01*
X006605Y013930D01*
X006556Y013979D01*
X006556Y014076D02*
X006653Y014124D01*
X006701Y014124D01*
X006750Y014076D01*
X006750Y014221D02*
X006556Y014221D01*
X006556Y014076D01*
X005473Y013896D02*
X005280Y013896D01*
X005425Y014041D01*
X005425Y013750D01*
X005178Y013750D02*
X004985Y013944D01*
X004884Y013992D02*
X004835Y014041D01*
X004690Y014041D01*
X004690Y013750D01*
X004835Y013750D01*
X004884Y013799D01*
X004884Y013992D01*
X004985Y013750D02*
X005178Y013944D01*
X004589Y014041D02*
X004589Y013750D01*
X004396Y014041D01*
X004396Y013750D01*
X004294Y013799D02*
X004294Y013896D01*
X004198Y013896D01*
X004294Y013992D02*
X004246Y014041D01*
X004149Y014041D01*
X004101Y013992D01*
X004101Y013799D01*
X004149Y013750D01*
X004246Y013750D01*
X004294Y013799D01*
X008083Y010379D02*
X008144Y010440D01*
X008206Y010440D01*
X008268Y010379D01*
X008329Y010440D01*
X008391Y010440D01*
X008453Y010379D01*
X008453Y010255D01*
X008391Y010194D01*
X008391Y010072D02*
X008083Y010072D01*
X008144Y010194D02*
X008083Y010255D01*
X008083Y010379D01*
X008268Y010379D02*
X008268Y010317D01*
X008391Y010072D02*
X008453Y010010D01*
X008453Y009887D01*
X008391Y009825D01*
X008083Y009825D01*
X009717Y013430D02*
X009717Y013721D01*
X009862Y013721D01*
X009911Y013672D01*
X009911Y013576D01*
X009862Y013527D01*
X009717Y013527D01*
X010012Y013576D02*
X010205Y013576D01*
X010306Y013721D02*
X010500Y013430D01*
X010500Y013721D01*
X010306Y013721D02*
X010306Y013430D01*
X010705Y013979D02*
X010705Y014027D01*
X010657Y014076D01*
X010608Y014076D01*
X010657Y014076D02*
X010705Y014124D01*
X010705Y014172D01*
X010657Y014221D01*
X010560Y014221D01*
X010512Y014172D01*
X010806Y014221D02*
X011000Y014221D01*
X011000Y014172D01*
X012217Y014124D02*
X012314Y014221D01*
X012314Y013930D01*
X012217Y013930D02*
X012411Y013930D01*
X013806Y014124D02*
X013903Y014221D01*
X009705Y014124D02*
X009657Y014076D01*
X019939Y009370D02*
X019939Y009176D01*
X020085Y009176D01*
X020036Y009273D01*
X020036Y009321D01*
X020085Y009370D01*
X020181Y009370D01*
X020230Y009321D01*
X020230Y009225D01*
X020181Y009176D01*
X020181Y009075D02*
X019939Y009075D01*
X019939Y008882D02*
X020181Y008882D01*
X020230Y008930D01*
X020230Y009027D01*
X020181Y009075D01*
X024023Y013143D02*
X024265Y013143D01*
X024314Y013191D01*
X024314Y013288D01*
X024265Y013336D01*
X024023Y013336D01*
X024072Y013438D02*
X024023Y013486D01*
X024023Y013583D01*
X024072Y013631D01*
X024120Y013631D01*
X024314Y013438D01*
X024314Y013631D01*
X024904Y014178D02*
X025151Y014178D01*
X025274Y014301D01*
X025151Y014425D01*
X024904Y014425D01*
X024904Y014546D02*
X024904Y014669D01*
X024904Y014608D02*
X025274Y014608D01*
X025274Y014669D02*
X025274Y014546D01*
X025274Y014792D02*
X024904Y014792D01*
X025274Y015038D01*
X024904Y015038D01*
X024462Y016305D02*
X024216Y016305D01*
X024154Y016367D01*
X024154Y016490D01*
X024216Y016552D01*
X024339Y016552D02*
X024339Y016428D01*
X024339Y016552D02*
X024462Y016552D01*
X024524Y016490D01*
X024524Y016367D01*
X024462Y016305D01*
X024524Y016673D02*
X024154Y016673D01*
X024524Y016920D01*
X024154Y016920D01*
X024154Y017042D02*
X024154Y017227D01*
X024216Y017288D01*
X024462Y017288D01*
X024524Y017227D01*
X024524Y017042D01*
X024154Y017042D01*
D13*
X023562Y017235D02*
X023562Y015976D01*
X023326Y015976D01*
X023988Y015473D02*
X023988Y015237D01*
X024224Y015237D01*
X024224Y015473D01*
X024224Y015237D02*
X024224Y015197D01*
X023988Y015197D01*
X023988Y015237D01*
X023988Y015197D02*
X023988Y015158D01*
X023909Y015158D02*
X023870Y015158D01*
X023870Y015000D01*
X023909Y015000D02*
X023909Y015158D01*
X024224Y015158D02*
X024224Y015197D01*
X024303Y015158D02*
X024342Y015158D01*
X024342Y015000D01*
X024303Y015000D02*
X024303Y015158D01*
X023151Y015182D02*
X022993Y015182D01*
X022993Y015222D01*
X023151Y015222D01*
X022993Y015104D02*
X022954Y015104D01*
X022954Y014867D01*
X022915Y014867D01*
X022915Y015104D01*
X022679Y015104D01*
X022915Y015104D02*
X022954Y015104D01*
X022954Y014867D02*
X022993Y014867D01*
X022915Y014867D02*
X022679Y014867D01*
X022993Y014789D02*
X022993Y014749D01*
X023151Y014749D01*
X023151Y014789D02*
X022993Y014789D01*
X023929Y014354D02*
X024243Y014354D01*
X024243Y014117D02*
X023929Y014117D01*
X023927Y013787D02*
X023887Y013787D01*
X023927Y013531D02*
X022745Y013531D01*
X022745Y012940D01*
X023927Y012940D01*
X023927Y013531D01*
X022785Y013787D02*
X022745Y013787D01*
X022547Y013747D02*
X022507Y013747D01*
X022547Y013491D02*
X021365Y013491D01*
X021365Y012900D01*
X022547Y012900D01*
X022547Y013491D01*
X022745Y012684D02*
X022785Y012684D01*
X022547Y012644D02*
X022507Y012644D01*
X021993Y012354D02*
X021679Y012354D01*
X021679Y012117D02*
X021993Y012117D01*
X021405Y012644D02*
X021365Y012644D01*
X020243Y013117D02*
X019929Y013117D01*
X019929Y013354D02*
X020243Y013354D01*
X021365Y013747D02*
X021405Y013747D01*
X019954Y012643D02*
X019954Y012328D01*
X019718Y012328D02*
X019718Y012643D01*
X019454Y012643D02*
X019454Y012328D01*
X019218Y012328D02*
X019218Y012643D01*
X017523Y012172D02*
X017523Y011779D01*
X017523Y012172D02*
X017129Y012172D01*
X018336Y013910D02*
X018261Y013985D01*
X018336Y013910D02*
X018486Y013910D01*
X018561Y013985D01*
X018561Y014061D01*
X018486Y014136D01*
X018411Y014136D01*
X018486Y014136D02*
X018561Y014211D01*
X018561Y014286D01*
X018486Y014361D01*
X018336Y014361D01*
X018261Y014286D01*
X018721Y014286D02*
X018721Y013985D01*
X019022Y014286D01*
X019022Y013985D01*
X018946Y013910D01*
X018796Y013910D01*
X018721Y013985D01*
X018721Y014286D02*
X018796Y014361D01*
X018946Y014361D01*
X019022Y014286D01*
X020629Y015976D02*
X020846Y015976D01*
X020629Y015976D02*
X020629Y017235D01*
X023887Y012684D02*
X023927Y012684D01*
X023929Y012354D02*
X024243Y012354D01*
X024243Y012117D02*
X023929Y012117D01*
X020901Y009972D02*
X020743Y009972D01*
X020743Y009932D01*
X020901Y009932D01*
X020743Y009854D02*
X020704Y009854D01*
X020704Y009617D01*
X020665Y009617D01*
X020665Y009854D01*
X020429Y009854D01*
X020665Y009854D02*
X020704Y009854D01*
X020704Y009617D02*
X020743Y009617D01*
X020665Y009617D02*
X020429Y009617D01*
X020743Y009539D02*
X020743Y009499D01*
X020901Y009499D01*
X020901Y009539D02*
X020743Y009539D01*
X019728Y009259D02*
X019728Y008472D01*
X019334Y008472D02*
X019098Y008472D01*
X018704Y008472D02*
X018704Y009259D01*
X019098Y009259D02*
X019334Y009259D01*
X019374Y009574D02*
X019376Y009599D01*
X019382Y009624D01*
X019392Y009647D01*
X019405Y009668D01*
X019422Y009687D01*
X019442Y009703D01*
X019464Y009716D01*
X019487Y009725D01*
X019512Y009730D01*
X019537Y009731D01*
X019562Y009728D01*
X019587Y009721D01*
X019609Y009710D01*
X019630Y009696D01*
X019649Y009678D01*
X019664Y009658D01*
X019675Y009636D01*
X019683Y009612D01*
X019687Y009587D01*
X019687Y009561D01*
X019683Y009536D01*
X019675Y009512D01*
X019664Y009490D01*
X019649Y009470D01*
X019630Y009452D01*
X019610Y009438D01*
X019587Y009427D01*
X019562Y009420D01*
X019537Y009417D01*
X019512Y009418D01*
X019487Y009423D01*
X019464Y009432D01*
X019442Y009445D01*
X019422Y009461D01*
X019405Y009480D01*
X019392Y009501D01*
X019382Y009524D01*
X019376Y009549D01*
X019374Y009574D01*
X019493Y009617D02*
X019179Y009617D01*
X019179Y009854D02*
X019493Y009854D01*
X019454Y007643D02*
X019454Y007328D01*
X019218Y007328D02*
X019218Y007643D01*
X018704Y007643D02*
X018704Y007328D01*
X018468Y007328D02*
X018468Y007643D01*
X019836Y006985D02*
X019836Y004485D01*
X021836Y004485D01*
X021836Y006985D01*
X019836Y006985D01*
X019936Y004735D02*
X019938Y004760D01*
X019944Y004784D01*
X019954Y004806D01*
X019968Y004827D01*
X019984Y004845D01*
X020004Y004861D01*
X020026Y004872D01*
X020049Y004880D01*
X020074Y004884D01*
X020098Y004884D01*
X020123Y004880D01*
X020146Y004872D01*
X020168Y004861D01*
X020188Y004845D01*
X020204Y004827D01*
X020218Y004806D01*
X020228Y004784D01*
X020234Y004760D01*
X020236Y004735D01*
X020234Y004710D01*
X020228Y004686D01*
X020218Y004664D01*
X020204Y004643D01*
X020188Y004625D01*
X020168Y004609D01*
X020146Y004598D01*
X020123Y004590D01*
X020098Y004586D01*
X020074Y004586D01*
X020049Y004590D01*
X020026Y004598D01*
X020004Y004609D01*
X019984Y004625D01*
X019968Y004643D01*
X019954Y004664D01*
X019944Y004686D01*
X019938Y004710D01*
X019936Y004735D01*
X017523Y004692D02*
X017523Y004298D01*
X017129Y004298D01*
X016493Y003474D02*
X016179Y003474D01*
X016179Y003237D02*
X016493Y003237D01*
X013463Y003257D02*
X013149Y003257D01*
X013149Y003494D02*
X013463Y003494D01*
X010043Y004298D02*
X009649Y004298D01*
X009649Y004692D01*
X008704Y004393D02*
X008704Y004078D01*
X008468Y004078D02*
X008468Y004393D01*
X008468Y007328D02*
X008468Y007643D01*
X008704Y007643D02*
X008704Y007328D01*
X010042Y011385D02*
X010044Y011425D01*
X010050Y011464D01*
X010060Y011503D01*
X010074Y011540D01*
X010092Y011576D01*
X010113Y011610D01*
X010137Y011642D01*
X010165Y011671D01*
X010195Y011697D01*
X010228Y011719D01*
X010262Y011739D01*
X010299Y011754D01*
X010337Y011766D01*
X010376Y011774D01*
X010416Y011778D01*
X010456Y011778D01*
X010496Y011774D01*
X010535Y011766D01*
X010573Y011754D01*
X010610Y011739D01*
X010644Y011719D01*
X010677Y011697D01*
X010707Y011671D01*
X010735Y011642D01*
X010759Y011610D01*
X010780Y011576D01*
X010798Y011540D01*
X010812Y011503D01*
X010822Y011464D01*
X010828Y011425D01*
X010830Y011385D01*
X010828Y011345D01*
X010822Y011306D01*
X010812Y011267D01*
X010798Y011230D01*
X010780Y011194D01*
X010759Y011160D01*
X010735Y011128D01*
X010707Y011099D01*
X010677Y011073D01*
X010644Y011051D01*
X010610Y011031D01*
X010573Y011016D01*
X010535Y011004D01*
X010496Y010996D01*
X010456Y010992D01*
X010416Y010992D01*
X010376Y010996D01*
X010337Y011004D01*
X010299Y011016D01*
X010262Y011031D01*
X010228Y011051D01*
X010195Y011073D01*
X010165Y011099D01*
X010137Y011128D01*
X010113Y011160D01*
X010092Y011194D01*
X010074Y011230D01*
X010060Y011267D01*
X010050Y011306D01*
X010044Y011345D01*
X010042Y011385D01*
X009649Y011779D02*
X009649Y012172D01*
X010043Y012172D01*
X008271Y011779D02*
X008273Y011807D01*
X008279Y011835D01*
X008289Y011861D01*
X008302Y011886D01*
X008319Y011908D01*
X008339Y011928D01*
X008361Y011945D01*
X008386Y011958D01*
X008412Y011968D01*
X008440Y011974D01*
X008468Y011976D01*
X008496Y011974D01*
X008524Y011968D01*
X008550Y011958D01*
X008575Y011945D01*
X008597Y011928D01*
X008617Y011908D01*
X008634Y011886D01*
X008647Y011861D01*
X008657Y011835D01*
X008663Y011807D01*
X008665Y011779D01*
X008663Y011751D01*
X008657Y011723D01*
X008647Y011697D01*
X008634Y011672D01*
X008617Y011650D01*
X008597Y011630D01*
X008575Y011613D01*
X008550Y011600D01*
X008524Y011590D01*
X008496Y011584D01*
X008468Y011582D01*
X008440Y011584D01*
X008412Y011590D01*
X008386Y011600D01*
X008361Y011613D01*
X008339Y011630D01*
X008319Y011650D01*
X008302Y011672D01*
X008289Y011697D01*
X008279Y011723D01*
X008273Y011751D01*
X008271Y011779D01*
X011799Y013097D02*
X012113Y013097D01*
X012113Y013334D02*
X011799Y013334D01*
X004761Y017160D02*
X004461Y017160D01*
X004611Y017160D02*
X004611Y017611D01*
X004461Y017461D01*
X003911Y016481D02*
X003911Y016181D01*
X003611Y016481D01*
X003536Y016481D01*
X003461Y016406D01*
X003461Y016256D01*
X003536Y016181D01*
X003461Y016021D02*
X003761Y016021D01*
X003911Y015871D01*
X003761Y015721D01*
X003461Y015721D01*
X003536Y015561D02*
X003461Y015486D01*
X003461Y015335D01*
X003536Y015260D01*
X003611Y015260D01*
X003686Y015335D01*
X003686Y015486D01*
X003761Y015561D01*
X003836Y015561D01*
X003911Y015486D01*
X003911Y015335D01*
X003836Y015260D01*
X026086Y009478D02*
X026086Y001998D01*
D14*
X019479Y006789D02*
X019454Y006764D01*
X019404Y006764D01*
X019379Y006789D01*
X019379Y006814D01*
X019404Y006839D01*
X019454Y006839D01*
X019479Y006814D01*
X019479Y006789D01*
X019454Y006839D02*
X019479Y006864D01*
X019479Y006889D01*
X019454Y006914D01*
X019404Y006914D01*
X019379Y006889D01*
X019379Y006864D01*
X019404Y006839D01*
X019332Y006789D02*
X019307Y006764D01*
X019257Y006764D01*
X019232Y006789D01*
X019232Y006889D01*
X019257Y006914D01*
X019307Y006914D01*
X019332Y006889D01*
X018789Y006914D02*
X018739Y006889D01*
X018689Y006839D01*
X018764Y006839D01*
X018789Y006814D01*
X018789Y006789D01*
X018764Y006764D01*
X018714Y006764D01*
X018689Y006789D01*
X018689Y006839D01*
X018642Y006789D02*
X018617Y006764D01*
X018567Y006764D01*
X018542Y006789D01*
X018542Y006889D01*
X018567Y006914D01*
X018617Y006914D01*
X018642Y006889D01*
X020277Y009305D02*
X020377Y009305D01*
X020425Y009305D02*
X020525Y009305D01*
X020572Y009305D02*
X020572Y009455D01*
X020647Y009455D01*
X020672Y009430D01*
X020672Y009330D01*
X020647Y009305D01*
X020572Y009305D01*
X020475Y009380D02*
X020425Y009380D01*
X020425Y009455D02*
X020425Y009305D01*
X020277Y009305D02*
X020277Y009455D01*
X020425Y009455D02*
X020525Y009455D01*
X020719Y009405D02*
X020769Y009455D01*
X020769Y009305D01*
X020719Y009305D02*
X020819Y009305D01*
X019313Y009977D02*
X019213Y009977D01*
X019165Y009977D02*
X019115Y010027D01*
X019140Y010027D02*
X019065Y010027D01*
X019065Y009977D02*
X019065Y010127D01*
X019140Y010127D01*
X019165Y010102D01*
X019165Y010052D01*
X019140Y010027D01*
X019213Y010077D02*
X019263Y010127D01*
X019263Y009977D01*
X021822Y011869D02*
X021847Y011844D01*
X021897Y011844D01*
X021922Y011869D01*
X021969Y011869D02*
X021994Y011844D01*
X022044Y011844D01*
X022069Y011869D01*
X022069Y011894D01*
X022044Y011919D01*
X022019Y011919D01*
X022044Y011919D02*
X022069Y011944D01*
X022069Y011969D01*
X022044Y011994D01*
X021994Y011994D01*
X021969Y011969D01*
X021922Y011969D02*
X021897Y011994D01*
X021847Y011994D01*
X021822Y011969D01*
X021822Y011869D01*
X020227Y012471D02*
X020077Y012471D01*
X020077Y012546D01*
X020102Y012571D01*
X020152Y012571D01*
X020177Y012546D01*
X020177Y012471D01*
X020177Y012521D02*
X020227Y012571D01*
X020227Y012619D02*
X020127Y012719D01*
X020102Y012719D01*
X020077Y012694D01*
X020077Y012644D01*
X020102Y012619D01*
X020227Y012619D02*
X020227Y012719D01*
X020038Y013477D02*
X020038Y013627D01*
X019963Y013552D01*
X020063Y013552D01*
X019915Y013552D02*
X019890Y013527D01*
X019815Y013527D01*
X019815Y013477D02*
X019815Y013627D01*
X019890Y013627D01*
X019915Y013602D01*
X019915Y013552D01*
X019865Y013527D02*
X019915Y013477D01*
X019095Y012687D02*
X019095Y012637D01*
X019070Y012612D01*
X019095Y012565D02*
X019045Y012515D01*
X019045Y012540D02*
X019045Y012465D01*
X019095Y012465D02*
X018945Y012465D01*
X018945Y012540D01*
X018970Y012565D01*
X019020Y012565D01*
X019045Y012540D01*
X018970Y012612D02*
X018945Y012637D01*
X018945Y012687D01*
X018970Y012712D01*
X018995Y012712D01*
X019020Y012687D01*
X019045Y012712D01*
X019070Y012712D01*
X019095Y012687D01*
X019020Y012687D02*
X019020Y012662D01*
X022822Y014555D02*
X022897Y014555D01*
X022922Y014580D01*
X022922Y014680D01*
X022897Y014705D01*
X022822Y014705D01*
X022822Y014555D01*
X022969Y014555D02*
X023069Y014655D01*
X023069Y014680D01*
X023044Y014705D01*
X022994Y014705D01*
X022969Y014680D01*
X022969Y014555D02*
X023069Y014555D01*
X023675Y015045D02*
X023675Y015120D01*
X023700Y015145D01*
X023800Y015145D01*
X023825Y015120D01*
X023825Y015045D01*
X023675Y015045D01*
X023725Y015192D02*
X023675Y015242D01*
X023825Y015242D01*
X023825Y015192D02*
X023825Y015292D01*
X024097Y013994D02*
X024072Y013969D01*
X024072Y013869D01*
X024097Y013844D01*
X024147Y013844D01*
X024172Y013869D01*
X024219Y013844D02*
X024319Y013844D01*
X024269Y013844D02*
X024269Y013994D01*
X024219Y013944D01*
X024172Y013969D02*
X024147Y013994D01*
X024097Y013994D01*
X024070Y011997D02*
X024020Y011997D01*
X023995Y011972D01*
X023995Y011872D01*
X024020Y011847D01*
X024070Y011847D01*
X024095Y011872D01*
X024143Y011847D02*
X024243Y011947D01*
X024243Y011972D01*
X024218Y011997D01*
X024168Y011997D01*
X024143Y011972D01*
X024095Y011972D02*
X024070Y011997D01*
X024143Y011847D02*
X024243Y011847D01*
X011423Y013192D02*
X011323Y013092D01*
X011323Y013067D01*
X011275Y013092D02*
X011250Y013067D01*
X011200Y013067D01*
X011175Y013092D01*
X011175Y013192D01*
X011200Y013217D01*
X011250Y013217D01*
X011275Y013192D01*
X011323Y013217D02*
X011423Y013217D01*
X011423Y013192D01*
X008345Y007437D02*
X008195Y007437D01*
X008270Y007362D01*
X008270Y007462D01*
X008320Y007315D02*
X008345Y007290D01*
X008345Y007240D01*
X008320Y007215D01*
X008220Y007215D01*
X008195Y007240D01*
X008195Y007290D01*
X008220Y007315D01*
X008220Y004212D02*
X008195Y004187D01*
X008195Y004137D01*
X008220Y004112D01*
X008245Y004112D01*
X008270Y004137D01*
X008270Y004212D01*
X008320Y004212D02*
X008220Y004212D01*
X008320Y004212D02*
X008345Y004187D01*
X008345Y004137D01*
X008320Y004112D01*
X008320Y004065D02*
X008345Y004040D01*
X008345Y003990D01*
X008320Y003965D01*
X008220Y003965D01*
X008195Y003990D01*
X008195Y004040D01*
X008220Y004065D01*
X013292Y003109D02*
X013292Y003009D01*
X013317Y002984D01*
X013367Y002984D01*
X013392Y003009D01*
X013439Y003009D02*
X013464Y002984D01*
X013514Y002984D01*
X013539Y003009D01*
X013539Y003059D01*
X013514Y003084D01*
X013489Y003084D01*
X013439Y003059D01*
X013439Y003134D01*
X013539Y003134D01*
X013392Y003109D02*
X013367Y003134D01*
X013317Y003134D01*
X013292Y003109D01*
X016305Y003062D02*
X016305Y002962D01*
X016330Y002937D01*
X016380Y002937D01*
X016405Y002962D01*
X016453Y002937D02*
X016553Y002937D01*
X016503Y002937D02*
X016503Y003087D01*
X016453Y003037D01*
X016405Y003062D02*
X016380Y003087D01*
X016330Y003087D01*
X016305Y003062D01*
X016600Y003062D02*
X016600Y002962D01*
X016700Y003062D01*
X016700Y002962D01*
X016675Y002937D01*
X016625Y002937D01*
X016600Y002962D01*
X016600Y003062D02*
X016625Y003087D01*
X016675Y003087D01*
X016700Y003062D01*
D15*
X019606Y003819D02*
X019826Y003819D01*
X019826Y003892D02*
X019826Y003745D01*
X019679Y003745D02*
X019606Y003819D01*
D16*
X018836Y014535D02*
X004336Y014535D01*
X004306Y014537D01*
X004276Y014542D01*
X004247Y014551D01*
X004220Y014564D01*
X004194Y014579D01*
X004170Y014598D01*
X004149Y014619D01*
X004130Y014643D01*
X004115Y014669D01*
X004102Y014696D01*
X004093Y014725D01*
X004088Y014755D01*
X004086Y014785D01*
X004086Y016685D01*
X004088Y016715D01*
X004093Y016745D01*
X004102Y016774D01*
X004115Y016801D01*
X004130Y016827D01*
X004149Y016851D01*
X004170Y016872D01*
X004194Y016891D01*
X004220Y016906D01*
X004247Y016919D01*
X004276Y016928D01*
X004306Y016933D01*
X004336Y016935D01*
X018836Y016935D01*
X018866Y016933D01*
X018896Y016928D01*
X018925Y016919D01*
X018952Y016906D01*
X018978Y016891D01*
X019002Y016872D01*
X019023Y016851D01*
X019042Y016827D01*
X019057Y016801D01*
X019070Y016774D01*
X019079Y016745D01*
X019084Y016715D01*
X019086Y016685D01*
X019086Y014785D01*
X019084Y014755D01*
X019079Y014725D01*
X019070Y014696D01*
X019057Y014669D01*
X019042Y014643D01*
X019023Y014619D01*
X019002Y014598D01*
X018978Y014579D01*
X018952Y014564D01*
X018925Y014551D01*
X018896Y014542D01*
X018866Y014537D01*
X018836Y014535D01*
M02*
