G75*
G70*
%OFA0B0*%
%FSLAX24Y24*%
%IPPOS*%
%LPD*%
%AMOC8*
5,1,8,0,0,1.08239X$1,22.5*
%
%ADD10C,0.0496*%
%ADD11C,0.1005*%
%ADD12R,0.0592X0.0198*%
%ADD13R,0.0198X0.0592*%
%ADD14R,0.1930X0.1930*%
%ADD15R,0.0237X0.0789*%
%ADD16O,0.0496X0.0911*%
%ADD17R,0.0474X0.0867*%
%ADD18R,0.0730X0.0730*%
%ADD19R,0.0395X0.0237*%
%ADD20R,0.0395X0.0316*%
%ADD21R,0.0316X0.0395*%
%ADD22R,0.0237X0.0395*%
%ADD23R,0.1025X0.0867*%
%ADD24R,0.0316X0.0336*%
%ADD25R,0.0316X0.0277*%
%ADD26R,0.0336X0.0316*%
%ADD27R,0.0277X0.0316*%
%ADD28R,0.0356X0.0592*%
D10*
X005323Y014061D03*
X006111Y014061D03*
X006504Y014848D03*
X007292Y014848D03*
X007685Y014061D03*
X008473Y014061D03*
X008867Y014848D03*
X008079Y014848D03*
X008079Y015832D03*
X007685Y016620D03*
X007292Y015832D03*
X006898Y016620D03*
X006504Y015832D03*
X006111Y016620D03*
X005717Y015832D03*
X005323Y016620D03*
X004930Y015832D03*
X004930Y014848D03*
X005717Y014848D03*
X006898Y014061D03*
X008867Y015832D03*
X008473Y016620D03*
X010048Y016620D03*
X010441Y015832D03*
X010835Y016620D03*
X011229Y015832D03*
X011622Y016620D03*
X012016Y015832D03*
X012410Y016620D03*
X012016Y014848D03*
X011229Y014848D03*
X011622Y014061D03*
X010835Y014061D03*
X010048Y014061D03*
X010441Y014848D03*
X012410Y014061D03*
D11*
X013119Y015320D03*
X009516Y015340D03*
D12*
X008140Y010486D03*
X008140Y010230D03*
X008140Y009974D03*
X008140Y009718D03*
X008140Y009462D03*
X008140Y009206D03*
X008140Y008950D03*
X008140Y008694D03*
X010955Y008694D03*
X010955Y008950D03*
X010955Y009206D03*
X010955Y009462D03*
X010955Y009718D03*
X010955Y009974D03*
X010955Y010230D03*
X010955Y010486D03*
D13*
X010443Y010998D03*
X010187Y010998D03*
X009931Y010998D03*
X009676Y010998D03*
X009420Y010998D03*
X009164Y010998D03*
X008908Y010998D03*
X008652Y010998D03*
X008652Y008183D03*
X008908Y008183D03*
X009164Y008183D03*
X009420Y008183D03*
X009676Y008183D03*
X009931Y008183D03*
X010187Y008183D03*
X010443Y008183D03*
D14*
X009548Y009590D03*
D15*
X009309Y004193D03*
X009054Y004193D03*
X008798Y004193D03*
X008542Y004193D03*
X008286Y004193D03*
D16*
X007853Y004271D03*
X009743Y004271D03*
D17*
X009054Y003090D03*
X008542Y003090D03*
D18*
X007794Y003090D03*
X009802Y003090D03*
D19*
X007809Y005966D03*
X007809Y006340D03*
X007809Y006714D03*
X006786Y006714D03*
X006786Y005966D03*
X012536Y005966D03*
X012536Y006714D03*
X012536Y007466D03*
X012536Y008214D03*
X013559Y007840D03*
X013559Y006340D03*
D20*
X004298Y003525D03*
X004798Y003525D03*
X004798Y004155D03*
X004798Y004525D03*
X004298Y004525D03*
X004298Y004155D03*
X004298Y005155D03*
X004798Y005155D03*
X006298Y005275D03*
X006298Y005905D03*
X009298Y006025D03*
X009798Y006025D03*
X009798Y006655D03*
X009298Y006655D03*
X012048Y006655D03*
X012048Y006025D03*
X012048Y007525D03*
X012048Y008155D03*
X013798Y008275D03*
X013798Y008905D03*
X013798Y007405D03*
X013798Y006775D03*
X009418Y011775D03*
X009418Y012405D03*
D21*
X009733Y005590D03*
X010363Y005590D03*
X007863Y005340D03*
X007233Y005340D03*
D22*
X010424Y006852D03*
X011172Y006852D03*
X010798Y005828D03*
D23*
X006298Y008803D03*
X006298Y010378D03*
D24*
X011983Y010328D03*
X012573Y010328D03*
X012573Y011352D03*
X011983Y011352D03*
D25*
X011983Y010998D03*
X011983Y010683D03*
X012573Y010683D03*
X012573Y010998D03*
D26*
X012286Y009866D03*
X012286Y009275D03*
X013309Y009275D03*
X013309Y009866D03*
D27*
X012955Y009866D03*
X012640Y009866D03*
X012640Y009275D03*
X012955Y009275D03*
D28*
X004691Y009513D03*
X003904Y009513D03*
X003904Y008167D03*
X004691Y008167D03*
X004691Y006513D03*
X003904Y006513D03*
X003904Y011167D03*
X004691Y011167D03*
M02*
