G75*
G70*
%OFA0B0*%
%FSLAX24Y24*%
%IPPOS*%
%LPD*%
%AMOC8*
5,1,8,0,0,1.08239X$1,22.5*
%
%ADD10C,0.0000*%
%ADD11C,0.0050*%
%ADD12C,0.0040*%
%ADD13C,0.0030*%
%ADD14C,0.0010*%
D10*
X003298Y003754D02*
X003298Y015926D01*
X003300Y016000D01*
X003306Y016074D01*
X003315Y016147D01*
X003329Y016220D01*
X003346Y016292D01*
X003367Y016363D01*
X003392Y016433D01*
X003420Y016501D01*
X003452Y016568D01*
X003487Y016633D01*
X003526Y016696D01*
X003568Y016757D01*
X003613Y016816D01*
X003661Y016872D01*
X003712Y016926D01*
X003766Y016977D01*
X003822Y017025D01*
X003881Y017070D01*
X003942Y017112D01*
X004005Y017151D01*
X004070Y017186D01*
X004137Y017218D01*
X004205Y017246D01*
X004275Y017271D01*
X004346Y017292D01*
X004418Y017309D01*
X004491Y017323D01*
X004564Y017332D01*
X004638Y017338D01*
X004712Y017340D01*
X012883Y017340D01*
X012957Y017338D01*
X013031Y017332D01*
X013104Y017323D01*
X013177Y017309D01*
X013249Y017292D01*
X013320Y017271D01*
X013390Y017246D01*
X013458Y017218D01*
X013525Y017186D01*
X013590Y017151D01*
X013653Y017112D01*
X013714Y017070D01*
X013773Y017025D01*
X013829Y016977D01*
X013883Y016926D01*
X013934Y016872D01*
X013982Y016816D01*
X014027Y016757D01*
X014069Y016696D01*
X014108Y016633D01*
X014143Y016568D01*
X014175Y016501D01*
X014203Y016433D01*
X014228Y016363D01*
X014249Y016292D01*
X014266Y016220D01*
X014280Y016147D01*
X014289Y016074D01*
X014295Y016000D01*
X014297Y015926D01*
X014298Y015926D02*
X014298Y003754D01*
X014297Y003754D02*
X014295Y003680D01*
X014289Y003606D01*
X014280Y003533D01*
X014266Y003460D01*
X014249Y003388D01*
X014228Y003317D01*
X014203Y003247D01*
X014175Y003179D01*
X014143Y003112D01*
X014108Y003047D01*
X014069Y002984D01*
X014027Y002923D01*
X013982Y002864D01*
X013934Y002808D01*
X013883Y002754D01*
X013829Y002703D01*
X013773Y002655D01*
X013714Y002610D01*
X013653Y002568D01*
X013590Y002529D01*
X013525Y002494D01*
X013458Y002462D01*
X013390Y002434D01*
X013320Y002409D01*
X013249Y002388D01*
X013177Y002371D01*
X013104Y002357D01*
X013031Y002348D01*
X012957Y002342D01*
X012883Y002340D01*
X004712Y002340D01*
X004638Y002342D01*
X004564Y002348D01*
X004491Y002357D01*
X004418Y002371D01*
X004346Y002388D01*
X004275Y002409D01*
X004205Y002434D01*
X004137Y002462D01*
X004070Y002494D01*
X004005Y002529D01*
X003942Y002568D01*
X003881Y002610D01*
X003822Y002655D01*
X003766Y002703D01*
X003712Y002754D01*
X003661Y002808D01*
X003613Y002864D01*
X003568Y002923D01*
X003526Y002984D01*
X003487Y003047D01*
X003452Y003112D01*
X003420Y003179D01*
X003392Y003247D01*
X003367Y003317D01*
X003346Y003388D01*
X003329Y003460D01*
X003315Y003533D01*
X003306Y003606D01*
X003300Y003680D01*
X003298Y003754D01*
X009053Y015340D02*
X009055Y015383D01*
X009061Y015426D01*
X009071Y015469D01*
X009085Y015510D01*
X009103Y015549D01*
X009124Y015587D01*
X009149Y015623D01*
X009177Y015656D01*
X009208Y015686D01*
X009242Y015713D01*
X009278Y015737D01*
X009317Y015758D01*
X009357Y015775D01*
X009398Y015788D01*
X009440Y015797D01*
X009483Y015802D01*
X009527Y015803D01*
X009570Y015800D01*
X009613Y015793D01*
X009655Y015782D01*
X009696Y015767D01*
X009735Y015748D01*
X009772Y015726D01*
X009807Y015700D01*
X009840Y015671D01*
X009869Y015639D01*
X009896Y015605D01*
X009919Y015568D01*
X009938Y015530D01*
X009954Y015489D01*
X009966Y015448D01*
X009974Y015405D01*
X009978Y015362D01*
X009978Y015318D01*
X009974Y015275D01*
X009966Y015232D01*
X009954Y015191D01*
X009938Y015150D01*
X009919Y015112D01*
X009896Y015075D01*
X009869Y015041D01*
X009840Y015009D01*
X009807Y014980D01*
X009772Y014954D01*
X009735Y014932D01*
X009696Y014913D01*
X009655Y014898D01*
X009613Y014887D01*
X009570Y014880D01*
X009527Y014877D01*
X009483Y014878D01*
X009440Y014883D01*
X009398Y014892D01*
X009357Y014905D01*
X009317Y014922D01*
X009278Y014943D01*
X009242Y014967D01*
X009208Y014994D01*
X009177Y015024D01*
X009149Y015057D01*
X009124Y015093D01*
X009103Y015131D01*
X009085Y015170D01*
X009071Y015211D01*
X009061Y015254D01*
X009055Y015297D01*
X009053Y015340D01*
X012656Y015320D02*
X012658Y015363D01*
X012664Y015406D01*
X012674Y015449D01*
X012688Y015490D01*
X012706Y015529D01*
X012727Y015567D01*
X012752Y015603D01*
X012780Y015636D01*
X012811Y015666D01*
X012845Y015693D01*
X012881Y015717D01*
X012920Y015738D01*
X012960Y015755D01*
X013001Y015768D01*
X013043Y015777D01*
X013086Y015782D01*
X013130Y015783D01*
X013173Y015780D01*
X013216Y015773D01*
X013258Y015762D01*
X013299Y015747D01*
X013338Y015728D01*
X013375Y015706D01*
X013410Y015680D01*
X013443Y015651D01*
X013472Y015619D01*
X013499Y015585D01*
X013522Y015548D01*
X013541Y015510D01*
X013557Y015469D01*
X013569Y015428D01*
X013577Y015385D01*
X013581Y015342D01*
X013581Y015298D01*
X013577Y015255D01*
X013569Y015212D01*
X013557Y015171D01*
X013541Y015130D01*
X013522Y015092D01*
X013499Y015055D01*
X013472Y015021D01*
X013443Y014989D01*
X013410Y014960D01*
X013375Y014934D01*
X013338Y014912D01*
X013299Y014893D01*
X013258Y014878D01*
X013216Y014867D01*
X013173Y014860D01*
X013130Y014857D01*
X013086Y014858D01*
X013043Y014863D01*
X013001Y014872D01*
X012960Y014885D01*
X012920Y014902D01*
X012881Y014923D01*
X012845Y014947D01*
X012811Y014974D01*
X012780Y015004D01*
X012752Y015037D01*
X012727Y015073D01*
X012706Y015111D01*
X012688Y015150D01*
X012674Y015191D01*
X012664Y015234D01*
X012658Y015277D01*
X012656Y015320D01*
D11*
X012705Y013864D02*
X013591Y013864D01*
X013591Y013372D01*
X003748Y013372D01*
X003748Y013864D01*
X005028Y013864D01*
X003748Y013864D02*
X003748Y016817D01*
X005028Y016817D01*
X008768Y016817D02*
X009752Y016817D01*
X009752Y013864D02*
X008768Y013864D01*
X009300Y012248D02*
X009300Y011933D01*
X009536Y011933D02*
X009536Y012248D01*
X008367Y010968D02*
X008170Y010968D01*
X008170Y010771D01*
X007185Y010574D02*
X007187Y010602D01*
X007193Y010630D01*
X007203Y010656D01*
X007216Y010681D01*
X007233Y010703D01*
X007253Y010723D01*
X007275Y010740D01*
X007300Y010753D01*
X007326Y010763D01*
X007354Y010769D01*
X007382Y010771D01*
X007410Y010769D01*
X007438Y010763D01*
X007464Y010753D01*
X007489Y010740D01*
X007511Y010723D01*
X007531Y010703D01*
X007548Y010681D01*
X007561Y010656D01*
X007571Y010630D01*
X007577Y010602D01*
X007579Y010574D01*
X007577Y010546D01*
X007571Y010518D01*
X007561Y010492D01*
X007548Y010467D01*
X007531Y010445D01*
X007511Y010425D01*
X007489Y010408D01*
X007464Y010395D01*
X007438Y010385D01*
X007410Y010379D01*
X007382Y010377D01*
X007354Y010379D01*
X007326Y010385D01*
X007300Y010395D01*
X007275Y010408D01*
X007253Y010425D01*
X007233Y010445D01*
X007216Y010467D01*
X007203Y010492D01*
X007193Y010518D01*
X007187Y010546D01*
X007185Y010574D01*
X006928Y010614D02*
X006928Y008567D01*
X006849Y008567D01*
X005766Y008567D02*
X005668Y008567D01*
X005668Y010614D01*
X005766Y010614D01*
X004928Y011246D02*
X004928Y009435D01*
X004455Y009435D02*
X004140Y009435D01*
X003668Y009435D02*
X003668Y011246D01*
X004140Y011246D02*
X004455Y011246D01*
X006849Y010614D02*
X006928Y010614D01*
X008170Y008409D02*
X008170Y008212D01*
X008367Y008212D01*
X007849Y006931D02*
X007849Y006891D01*
X007593Y006931D02*
X007593Y005750D01*
X007002Y005750D01*
X007002Y006931D01*
X007593Y006931D01*
X006746Y006931D02*
X006746Y006891D01*
X006746Y005789D02*
X006746Y005750D01*
X006416Y005748D02*
X006416Y005433D01*
X006180Y005433D02*
X006180Y005748D01*
X007390Y005458D02*
X007705Y005458D01*
X007705Y005222D02*
X007390Y005222D01*
X007849Y005750D02*
X007849Y005789D01*
X007557Y004350D02*
X007321Y004350D01*
X007321Y003090D01*
X005034Y004998D02*
X005034Y005155D01*
X004994Y005155D02*
X004994Y004998D01*
X005034Y004998D01*
X004916Y004998D02*
X004916Y004958D01*
X004680Y004958D01*
X004680Y004919D01*
X004916Y004919D01*
X004916Y004683D01*
X004916Y004919D02*
X004916Y004958D01*
X004680Y004958D02*
X004680Y004998D01*
X004680Y004919D02*
X004680Y004683D01*
X004416Y004683D02*
X004416Y004919D01*
X004180Y004919D01*
X004180Y004683D01*
X004180Y004919D02*
X004180Y004958D01*
X004416Y004958D01*
X004416Y004919D01*
X004416Y004958D02*
X004416Y004998D01*
X004494Y004998D02*
X004534Y004998D01*
X004534Y005155D01*
X004561Y005155D02*
X004561Y004998D01*
X004601Y004998D01*
X004601Y005155D01*
X004494Y005155D02*
X004494Y004998D01*
X004180Y004998D02*
X004180Y004958D01*
X004101Y004998D02*
X004061Y004998D01*
X004061Y005155D01*
X004101Y005155D02*
X004101Y004998D01*
X004180Y003998D02*
X004180Y003683D01*
X004416Y003683D02*
X004416Y003998D01*
X004680Y003998D02*
X004680Y003683D01*
X004916Y003683D02*
X004916Y003998D01*
X004928Y006435D02*
X004928Y008246D01*
X004455Y008246D02*
X004140Y008246D01*
X003668Y008246D02*
X003668Y006435D01*
X004140Y006435D02*
X004455Y006435D01*
X009180Y006498D02*
X009180Y006183D01*
X009416Y006183D02*
X009416Y006498D01*
X009680Y006498D02*
X009680Y006183D01*
X009916Y006183D02*
X009916Y006498D01*
X010207Y006635D02*
X010207Y006045D01*
X011388Y006045D01*
X011388Y006635D01*
X010207Y006635D01*
X010207Y006891D02*
X010246Y006891D01*
X010207Y005789D02*
X010246Y005789D01*
X010205Y005708D02*
X009890Y005708D01*
X009890Y005472D02*
X010205Y005472D01*
X010254Y004350D02*
X010038Y004350D01*
X010254Y004350D02*
X010254Y003090D01*
X011349Y005789D02*
X011388Y005789D01*
X011930Y006183D02*
X011930Y006498D01*
X012166Y006498D02*
X012166Y006183D01*
X012496Y005789D02*
X012496Y005750D01*
X012752Y005750D02*
X012752Y006931D01*
X013343Y006931D01*
X013343Y005750D01*
X012752Y005750D01*
X013599Y005750D02*
X013599Y005789D01*
X013599Y006891D02*
X013599Y006931D01*
X013680Y006933D02*
X013680Y007248D01*
X013599Y007250D02*
X013599Y007289D01*
X013916Y007248D02*
X013916Y006933D01*
X013343Y007250D02*
X013343Y008431D01*
X012752Y008431D01*
X012752Y007250D01*
X013343Y007250D01*
X012496Y007250D02*
X012496Y007289D01*
X012496Y006931D02*
X012496Y006891D01*
X012166Y007683D02*
X012166Y007998D01*
X011930Y007998D02*
X011930Y007683D01*
X011388Y006891D02*
X011349Y006891D01*
X010926Y008212D02*
X010729Y008212D01*
X010926Y008212D02*
X010926Y008409D01*
X012128Y009472D02*
X012128Y009669D01*
X012180Y010171D02*
X012376Y010171D01*
X013467Y009669D02*
X013467Y009472D01*
X013561Y008905D02*
X013561Y008748D01*
X013601Y008748D01*
X013601Y008905D01*
X013680Y008748D02*
X013680Y008708D01*
X013916Y008708D01*
X013916Y008669D01*
X013680Y008669D01*
X013680Y008433D01*
X013599Y008431D02*
X013599Y008391D01*
X013680Y008669D02*
X013680Y008708D01*
X013916Y008708D02*
X013916Y008748D01*
X013994Y008748D02*
X014034Y008748D01*
X014034Y008905D01*
X013994Y008905D02*
X013994Y008748D01*
X013916Y008669D02*
X013916Y008433D01*
X012496Y008431D02*
X012496Y008391D01*
X010926Y010771D02*
X010926Y010968D01*
X010729Y010968D01*
X012180Y011509D02*
X012376Y011509D01*
X013591Y013864D02*
X013591Y016817D01*
X012705Y016817D01*
D12*
X005751Y012687D02*
X005445Y012687D01*
X005598Y012687D02*
X005598Y013148D01*
X005445Y012994D01*
X005291Y013148D02*
X004984Y013148D01*
X004831Y013148D02*
X004524Y012687D01*
X004370Y012687D02*
X004064Y012687D01*
X004064Y013148D01*
X004370Y013148D01*
X004524Y013148D02*
X004831Y012687D01*
X005138Y012687D02*
X005138Y013148D01*
X004195Y014277D02*
X004272Y014354D01*
X004272Y014431D01*
X004195Y014508D01*
X003965Y014508D01*
X003965Y014738D02*
X003965Y014277D01*
X004195Y014277D01*
X004195Y014508D02*
X004272Y014584D01*
X004272Y014661D01*
X004195Y014738D01*
X003965Y014738D01*
X003965Y015951D02*
X003965Y016258D01*
X004119Y016411D01*
X004272Y016258D01*
X004272Y015951D01*
X004272Y016181D02*
X003965Y016181D01*
X004064Y012917D02*
X004217Y012917D01*
X007143Y004456D02*
X007143Y004149D01*
X007143Y004302D02*
X006682Y004302D01*
X006836Y004149D01*
X006836Y003995D02*
X006913Y003919D01*
X006913Y003689D01*
X006989Y003535D02*
X006913Y003458D01*
X006913Y003305D01*
X006836Y003228D01*
X006759Y003228D01*
X006682Y003305D01*
X006682Y003458D01*
X006759Y003535D01*
X006682Y003689D02*
X006682Y003919D01*
X006759Y003995D01*
X006836Y003995D01*
X006913Y003919D02*
X006989Y003995D01*
X007066Y003995D01*
X007143Y003919D01*
X007143Y003689D01*
X006682Y003689D01*
X006989Y003535D02*
X007066Y003535D01*
X007143Y003458D01*
X007143Y003305D01*
X007066Y003228D01*
X007066Y003075D02*
X006682Y003075D01*
X006682Y002768D02*
X007066Y002768D01*
X007143Y002845D01*
X007143Y002998D01*
X007066Y003075D01*
D13*
X006996Y007078D02*
X006899Y007078D01*
X006851Y007126D01*
X006851Y007368D01*
X007044Y007368D02*
X007044Y007126D01*
X006996Y007078D01*
X007145Y007078D02*
X007339Y007271D01*
X007339Y007320D01*
X007291Y007368D01*
X007194Y007368D01*
X007145Y007320D01*
X007145Y007078D02*
X007339Y007078D01*
X005393Y007055D02*
X005103Y007055D01*
X005103Y007200D01*
X005152Y007248D01*
X005248Y007248D01*
X005297Y007200D01*
X005297Y007055D01*
X005297Y007151D02*
X005393Y007248D01*
X005345Y007349D02*
X005393Y007398D01*
X005393Y007494D01*
X005345Y007543D01*
X005297Y007543D01*
X005248Y007494D01*
X005248Y007398D01*
X005200Y007349D01*
X005152Y007349D01*
X005103Y007398D01*
X005103Y007494D01*
X005152Y007543D01*
X005103Y007644D02*
X005103Y007837D01*
X005103Y007741D02*
X005393Y007741D01*
X005363Y009935D02*
X005073Y009935D01*
X005073Y010080D01*
X005122Y010128D01*
X005218Y010128D01*
X005267Y010080D01*
X005267Y009935D01*
X005267Y010229D02*
X005267Y010374D01*
X005218Y010423D01*
X005122Y010423D01*
X005073Y010374D01*
X005073Y010229D01*
X005363Y010229D01*
X005267Y010326D02*
X005363Y010423D01*
X005315Y010524D02*
X005363Y010572D01*
X005363Y010669D01*
X005315Y010717D01*
X005122Y010717D01*
X005073Y010669D01*
X005073Y010572D01*
X005122Y010524D01*
X005315Y010524D01*
X005315Y010819D02*
X005122Y010819D01*
X005073Y010867D01*
X005073Y010964D01*
X005122Y011012D01*
X005218Y011012D02*
X005218Y010915D01*
X005218Y011012D02*
X005315Y011012D01*
X005363Y010964D01*
X005363Y010867D01*
X005315Y010819D01*
X006149Y010984D02*
X006342Y011274D01*
X006444Y011177D02*
X006540Y011274D01*
X006540Y010984D01*
X006444Y010984D02*
X006637Y010984D01*
X006342Y010984D02*
X006149Y011274D01*
X007594Y011228D02*
X007642Y011180D01*
X007739Y011180D01*
X007788Y011228D01*
X007788Y011470D01*
X007889Y011373D02*
X007986Y011470D01*
X007986Y011180D01*
X008082Y011180D02*
X007889Y011180D01*
X007594Y011228D02*
X007594Y011470D01*
X010389Y006488D02*
X010340Y006440D01*
X010340Y006391D01*
X010389Y006343D01*
X010485Y006343D01*
X010534Y006294D01*
X010534Y006246D01*
X010485Y006198D01*
X010389Y006198D01*
X010340Y006246D01*
X010389Y006488D02*
X010485Y006488D01*
X010534Y006440D01*
X010714Y006488D02*
X010714Y006198D01*
X010859Y006198D01*
X010908Y006246D01*
X010908Y006440D01*
X010859Y006488D01*
X010714Y006488D01*
X011069Y006440D02*
X011069Y006246D01*
X011117Y006198D01*
X011214Y006198D01*
X011262Y006246D01*
X011262Y006343D01*
X011165Y006343D01*
X011069Y006440D02*
X011117Y006488D01*
X011214Y006488D01*
X011262Y006440D01*
X011239Y005653D02*
X011239Y005411D01*
X011190Y005363D01*
X011094Y005363D01*
X011045Y005411D01*
X011045Y005653D01*
X011340Y005604D02*
X011388Y005653D01*
X011485Y005653D01*
X011533Y005604D01*
X011533Y005556D01*
X011485Y005508D01*
X011533Y005459D01*
X011533Y005411D01*
X011485Y005363D01*
X011388Y005363D01*
X011340Y005411D01*
X011437Y005508D02*
X011485Y005508D01*
X012815Y005603D02*
X012815Y005361D01*
X012864Y005313D01*
X012960Y005313D01*
X013009Y005361D01*
X013009Y005603D01*
X013110Y005603D02*
X013110Y005458D01*
X013207Y005506D01*
X013255Y005506D01*
X013303Y005458D01*
X013303Y005361D01*
X013255Y005313D01*
X013158Y005313D01*
X013110Y005361D01*
X013110Y005603D02*
X013303Y005603D01*
X013142Y005883D02*
X013190Y005931D01*
X013190Y006028D01*
X013142Y006076D01*
X013093Y006076D01*
X013045Y006028D01*
X013045Y005931D01*
X012997Y005883D01*
X012948Y005883D01*
X012900Y005931D01*
X012900Y006028D01*
X012948Y006076D01*
X012900Y006257D02*
X012900Y006402D01*
X012948Y006450D01*
X013142Y006450D01*
X013190Y006402D01*
X013190Y006257D01*
X012900Y006257D01*
X012948Y006611D02*
X012900Y006659D01*
X012900Y006756D01*
X012948Y006805D01*
X013045Y006805D02*
X013045Y006708D01*
X013045Y006805D02*
X013142Y006805D01*
X013190Y006756D01*
X013190Y006659D01*
X013142Y006611D01*
X012948Y006611D01*
X012948Y007383D02*
X012900Y007431D01*
X012900Y007528D01*
X012948Y007576D01*
X013045Y007528D02*
X013093Y007576D01*
X013142Y007576D01*
X013190Y007528D01*
X013190Y007431D01*
X013142Y007383D01*
X013045Y007431D02*
X013045Y007528D01*
X013045Y007431D02*
X012997Y007383D01*
X012948Y007383D01*
X012900Y007757D02*
X012900Y007902D01*
X012948Y007950D01*
X013142Y007950D01*
X013190Y007902D01*
X013190Y007757D01*
X012900Y007757D01*
X012948Y008111D02*
X013142Y008111D01*
X013190Y008159D01*
X013190Y008256D01*
X013142Y008305D01*
X013045Y008305D01*
X013045Y008208D01*
X012948Y008305D02*
X012900Y008256D01*
X012900Y008159D01*
X012948Y008111D01*
X012960Y008583D02*
X012864Y008583D01*
X012815Y008631D01*
X012815Y008873D01*
X013009Y008873D02*
X013009Y008631D01*
X012960Y008583D01*
X013110Y008728D02*
X013303Y008728D01*
X013255Y008583D02*
X013255Y008873D01*
X013110Y008728D01*
X013600Y009115D02*
X013600Y009260D01*
X013648Y009308D01*
X013745Y009308D01*
X013793Y009260D01*
X013793Y009115D01*
X013793Y009212D02*
X013890Y009308D01*
X013890Y009410D02*
X013600Y009410D01*
X013890Y009603D01*
X013600Y009603D01*
X013648Y009704D02*
X013600Y009753D01*
X013600Y009849D01*
X013648Y009898D01*
X013697Y009898D01*
X013890Y009704D01*
X013890Y009898D01*
X013890Y009115D02*
X013600Y009115D01*
X013150Y010715D02*
X012860Y010715D01*
X012860Y010860D01*
X012908Y010908D01*
X013005Y010908D01*
X013053Y010860D01*
X013053Y010715D01*
X013053Y010812D02*
X013150Y010908D01*
X013150Y011010D02*
X012860Y011010D01*
X013150Y011203D01*
X012860Y011203D01*
X012957Y011304D02*
X012860Y011401D01*
X013150Y011401D01*
X013150Y011304D02*
X013150Y011498D01*
D14*
X014168Y008494D02*
X014168Y008393D01*
X014168Y008443D02*
X014018Y008443D01*
X014068Y008393D01*
X014043Y008346D02*
X014018Y008321D01*
X014018Y008246D01*
X014168Y008246D01*
X014168Y008321D01*
X014143Y008346D01*
X014043Y008346D01*
X013556Y007042D02*
X013406Y007042D01*
X013481Y006967D01*
X013481Y007067D01*
X013481Y006920D02*
X013506Y006895D01*
X013506Y006820D01*
X013506Y006870D02*
X013556Y006920D01*
X013481Y006920D02*
X013431Y006920D01*
X013406Y006895D01*
X013406Y006820D01*
X013556Y006820D01*
X012124Y006916D02*
X012099Y006891D01*
X012049Y006891D01*
X012024Y006916D01*
X012024Y006941D01*
X012049Y006966D01*
X012099Y006966D01*
X012124Y006941D01*
X012124Y006916D01*
X012099Y006966D02*
X012124Y006991D01*
X012124Y007016D01*
X012099Y007041D01*
X012049Y007041D01*
X012024Y007016D01*
X012024Y006991D01*
X012049Y006966D01*
X011977Y006966D02*
X011952Y006941D01*
X011877Y006941D01*
X011877Y006891D02*
X011877Y007041D01*
X011952Y007041D01*
X011977Y007016D01*
X011977Y006966D01*
X011927Y006941D02*
X011977Y006891D01*
X011779Y007766D02*
X011629Y007766D01*
X011629Y007841D01*
X011654Y007866D01*
X011704Y007866D01*
X011729Y007841D01*
X011729Y007766D01*
X011729Y007816D02*
X011779Y007866D01*
X011779Y007913D02*
X011754Y007913D01*
X011654Y008014D01*
X011629Y008014D01*
X011629Y007913D01*
X009914Y007071D02*
X009914Y006921D01*
X009864Y006921D02*
X009964Y006921D01*
X009864Y007021D02*
X009914Y007071D01*
X009817Y007046D02*
X009817Y006996D01*
X009792Y006971D01*
X009717Y006971D01*
X009717Y006921D02*
X009717Y007071D01*
X009792Y007071D01*
X009817Y007046D01*
X009767Y006971D02*
X009817Y006921D01*
X009394Y006931D02*
X009294Y006931D01*
X009394Y007031D01*
X009394Y007056D01*
X009369Y007081D01*
X009319Y007081D01*
X009294Y007056D01*
X009247Y007056D02*
X009247Y007006D01*
X009222Y006981D01*
X009147Y006981D01*
X009147Y006931D02*
X009147Y007081D01*
X009222Y007081D01*
X009247Y007056D01*
X009197Y006981D02*
X009247Y006931D01*
X009627Y005261D02*
X009702Y005261D01*
X009727Y005236D01*
X009727Y005186D01*
X009702Y005161D01*
X009627Y005161D01*
X009627Y005111D02*
X009627Y005261D01*
X009677Y005161D02*
X009727Y005111D01*
X009774Y005136D02*
X009799Y005111D01*
X009849Y005111D01*
X009874Y005136D01*
X009874Y005161D01*
X009849Y005186D01*
X009824Y005186D01*
X009849Y005186D02*
X009874Y005211D01*
X009874Y005236D01*
X009849Y005261D01*
X009799Y005261D01*
X009774Y005236D01*
X007524Y005581D02*
X007424Y005581D01*
X007474Y005581D02*
X007474Y005731D01*
X007424Y005681D01*
X007377Y005706D02*
X007352Y005731D01*
X007302Y005731D01*
X007277Y005706D01*
X007277Y005606D01*
X007302Y005581D01*
X007352Y005581D01*
X007377Y005606D01*
X006056Y005567D02*
X006056Y005467D01*
X005956Y005567D01*
X005931Y005567D01*
X005906Y005542D01*
X005906Y005492D01*
X005931Y005467D01*
X005931Y005420D02*
X005906Y005395D01*
X005906Y005345D01*
X005931Y005320D01*
X006031Y005320D01*
X006056Y005345D01*
X006056Y005395D01*
X006031Y005420D01*
X005288Y005048D02*
X005288Y004973D01*
X005138Y004973D01*
X005138Y005048D01*
X005163Y005074D01*
X005263Y005074D01*
X005288Y005048D01*
X005288Y004926D02*
X005288Y004826D01*
X005138Y004826D01*
X005138Y004926D01*
X005213Y004876D02*
X005213Y004826D01*
X005213Y004779D02*
X005238Y004754D01*
X005238Y004679D01*
X005238Y004729D02*
X005288Y004779D01*
X005213Y004779D02*
X005163Y004779D01*
X005138Y004754D01*
X005138Y004679D01*
X005288Y004679D01*
X005263Y004632D02*
X005288Y004606D01*
X005288Y004531D01*
X005138Y004531D01*
X005138Y004606D01*
X005163Y004632D01*
X005263Y004632D01*
X005288Y004484D02*
X005288Y004384D01*
X005138Y004384D01*
X005138Y004484D01*
X005213Y004434D02*
X005213Y004384D01*
X005288Y004337D02*
X005288Y004237D01*
X005138Y004237D01*
X005141Y003817D02*
X005191Y003817D01*
X005216Y003792D01*
X005216Y003742D01*
X005191Y003717D01*
X005141Y003717D02*
X005116Y003767D01*
X005116Y003792D01*
X005141Y003817D01*
X005066Y003817D02*
X005066Y003717D01*
X005141Y003717D01*
X005141Y003670D02*
X005166Y003645D01*
X005166Y003570D01*
X005166Y003620D02*
X005216Y003670D01*
X005141Y003670D02*
X005091Y003670D01*
X005066Y003645D01*
X005066Y003570D01*
X005216Y003570D01*
X004056Y003570D02*
X003906Y003570D01*
X003906Y003645D01*
X003931Y003670D01*
X003981Y003670D01*
X004006Y003645D01*
X004006Y003570D01*
X004006Y003620D02*
X004056Y003670D01*
X004031Y003717D02*
X004056Y003742D01*
X004056Y003792D01*
X004031Y003817D01*
X004006Y003817D01*
X003981Y003792D01*
X003981Y003717D01*
X004031Y003717D01*
X003981Y003717D02*
X003931Y003767D01*
X003906Y003817D01*
X003978Y004267D02*
X003828Y004267D01*
X003828Y004414D02*
X003978Y004414D01*
X003978Y004514D01*
X003978Y004561D02*
X003978Y004636D01*
X003953Y004662D01*
X003853Y004662D01*
X003828Y004636D01*
X003828Y004561D01*
X003978Y004561D01*
X003903Y004464D02*
X003903Y004414D01*
X003828Y004414D02*
X003828Y004514D01*
X003853Y004709D02*
X003953Y004709D01*
X003978Y004734D01*
X003978Y004784D01*
X003953Y004809D01*
X003903Y004809D01*
X003903Y004759D01*
X003853Y004809D02*
X003828Y004784D01*
X003828Y004734D01*
X003853Y004709D01*
X003828Y004856D02*
X003828Y004931D01*
X003853Y004956D01*
X003903Y004956D01*
X003928Y004931D01*
X003928Y004856D01*
X003928Y004906D02*
X003978Y004956D01*
X003978Y005003D02*
X003828Y005003D01*
X003978Y005104D01*
X003828Y005104D01*
X003828Y004856D02*
X003978Y004856D01*
X003978Y004367D02*
X003978Y004267D01*
X009684Y012076D02*
X009659Y012101D01*
X009659Y012151D01*
X009684Y012176D01*
X009684Y012223D02*
X009659Y012248D01*
X009659Y012298D01*
X009684Y012324D01*
X009709Y012324D01*
X009734Y012298D01*
X009759Y012324D01*
X009784Y012324D01*
X009809Y012298D01*
X009809Y012248D01*
X009784Y012223D01*
X009784Y012176D02*
X009809Y012151D01*
X009809Y012101D01*
X009784Y012076D01*
X009684Y012076D01*
X009734Y012273D02*
X009734Y012298D01*
M02*
