G75*
G70*
%OFA0B0*%
%FSLAX24Y24*%
%IPPOS*%
%LPD*%
%AMOC8*
5,1,8,0,0,1.08239X$1,22.5*
%
%ADD10C,0.0000*%
D10*
X003086Y003150D02*
X003086Y016321D01*
X003088Y016395D01*
X003094Y016469D01*
X003103Y016542D01*
X003117Y016615D01*
X003134Y016687D01*
X003155Y016758D01*
X003180Y016828D01*
X003208Y016896D01*
X003240Y016963D01*
X003275Y017028D01*
X003314Y017091D01*
X003356Y017152D01*
X003401Y017211D01*
X003449Y017267D01*
X003500Y017321D01*
X003554Y017372D01*
X003610Y017420D01*
X003669Y017465D01*
X003730Y017507D01*
X003793Y017546D01*
X003858Y017581D01*
X003925Y017613D01*
X003993Y017641D01*
X004063Y017666D01*
X004134Y017687D01*
X004206Y017704D01*
X004279Y017718D01*
X004352Y017727D01*
X004426Y017733D01*
X004500Y017735D01*
X024672Y017735D01*
X024746Y017733D01*
X024820Y017727D01*
X024893Y017718D01*
X024966Y017704D01*
X025038Y017687D01*
X025109Y017666D01*
X025179Y017641D01*
X025247Y017613D01*
X025314Y017581D01*
X025379Y017546D01*
X025442Y017507D01*
X025503Y017465D01*
X025562Y017420D01*
X025618Y017372D01*
X025672Y017321D01*
X025723Y017267D01*
X025771Y017211D01*
X025816Y017152D01*
X025858Y017091D01*
X025897Y017028D01*
X025932Y016963D01*
X025964Y016896D01*
X025992Y016828D01*
X026017Y016758D01*
X026038Y016687D01*
X026055Y016615D01*
X026069Y016542D01*
X026078Y016469D01*
X026084Y016395D01*
X026086Y016321D01*
X026086Y009735D01*
X026086Y009734D02*
X031106Y009734D01*
X031106Y006899D01*
X027956Y006899D01*
X027956Y006151D01*
X031106Y006151D01*
X031106Y001742D01*
X026086Y001742D01*
X026086Y001735D02*
X026086Y001755D01*
X026086Y001735D02*
X004500Y001735D01*
X004500Y001736D02*
X004426Y001738D01*
X004352Y001744D01*
X004279Y001753D01*
X004206Y001767D01*
X004134Y001784D01*
X004063Y001805D01*
X003993Y001830D01*
X003925Y001858D01*
X003858Y001890D01*
X003793Y001925D01*
X003730Y001964D01*
X003669Y002006D01*
X003610Y002051D01*
X003554Y002099D01*
X003500Y002150D01*
X003449Y002204D01*
X003401Y002260D01*
X003356Y002319D01*
X003314Y002380D01*
X003275Y002443D01*
X003240Y002508D01*
X003208Y002575D01*
X003180Y002643D01*
X003155Y002713D01*
X003134Y002784D01*
X003117Y002856D01*
X003103Y002929D01*
X003094Y003002D01*
X003088Y003076D01*
X003086Y003150D01*
X025706Y006485D02*
X025709Y006542D01*
X025716Y006599D01*
X025729Y006655D01*
X025747Y006709D01*
X025770Y006762D01*
X025798Y006812D01*
X025830Y006860D01*
X025866Y006904D01*
X025906Y006945D01*
X025950Y006983D01*
X025996Y007016D01*
X026046Y007044D01*
X026098Y007068D01*
X026152Y007088D01*
X026208Y007102D01*
X026264Y007111D01*
X026322Y007115D01*
X026379Y007114D01*
X026436Y007107D01*
X026492Y007095D01*
X026547Y007079D01*
X026600Y007057D01*
X026651Y007031D01*
X026699Y007000D01*
X026745Y006965D01*
X026787Y006925D01*
X026825Y006883D01*
X026859Y006836D01*
X026889Y006787D01*
X026914Y006736D01*
X026934Y006682D01*
X026950Y006627D01*
X026960Y006571D01*
X026965Y006514D01*
X026965Y006456D01*
X026960Y006399D01*
X026950Y006343D01*
X026934Y006288D01*
X026914Y006234D01*
X026889Y006183D01*
X026859Y006134D01*
X026825Y006087D01*
X026787Y006045D01*
X026745Y006005D01*
X026699Y005970D01*
X026651Y005939D01*
X026600Y005913D01*
X026547Y005891D01*
X026492Y005875D01*
X026436Y005863D01*
X026379Y005856D01*
X026322Y005855D01*
X026264Y005859D01*
X026208Y005868D01*
X026152Y005882D01*
X026098Y005902D01*
X026046Y005926D01*
X025996Y005954D01*
X025950Y005987D01*
X025906Y006025D01*
X025866Y006066D01*
X025830Y006110D01*
X025798Y006158D01*
X025770Y006208D01*
X025747Y006261D01*
X025729Y006315D01*
X025716Y006371D01*
X025709Y006428D01*
X025706Y006485D01*
M02*
