%
M48
M72
T01C0.0130
T02C0.0276
T03C0.0360
T04C0.0433
T05C0.0472
T06C0.1260
%
T01
X8336Y3485
X8836Y3485
X10006Y4815
X9836Y6735
X9836Y7235
X10516Y7095
X10516Y8565
X9836Y8985
X9836Y9485
X9836Y9985
X11586Y11485
X11336Y11735
X11086Y11985
X11586Y11985
X12646Y12075
X12886Y11775
X13876Y11865
X13086Y13235
X12586Y14485
X11586Y14485
X11086Y13735
X11336Y13485
X10586Y14485
X9586Y14485
X8586Y14485
X7586Y14485
X13586Y14485
X14586Y14485
X15586Y14485
X17386Y12855
X17686Y12375
X18286Y12495
X18766Y11535
X20086Y11235
X20336Y10985
X20586Y11235
X20836Y10985
X21086Y11235
X20836Y11485
X20336Y11485
X21336Y11485
X21086Y12735
X20836Y12985
X20586Y12735
X21086Y13235
X20836Y13485
X20586Y13735
X20836Y13985
X21086Y13735
X21586Y13235
X22086Y13235
X22586Y13235
X23086Y13235
X23586Y13235
X24086Y13235
X24586Y13235
X24836Y12985
X24586Y12735
X24836Y12485
X24836Y13485
X24836Y13985
X24836Y14485
X25586Y11235
X25586Y10735
X25586Y10235
X25586Y9735
X26086Y9235
X26586Y9235
X27086Y9235
X27586Y9235
X28086Y9235
X28586Y9235
X28546Y8685
X28276Y8685
X28276Y8295
X28546Y8295
X28156Y7515
X27286Y7875
X27526Y5895
X27526Y5535
X27556Y5145
X27526Y4755
X27586Y2235
X28086Y2235
X28586Y2235
X23336Y4235
X22836Y4235
X22336Y4235
X22006Y3795
X21406Y3495
X21046Y3495
X19726Y4035
X19726Y5055
X20566Y5115
X20566Y5535
X21406Y5115
X22006Y5535
X22336Y4735
X22836Y4735
X23336Y4735
X23336Y5985
X22836Y5985
X23836Y5985
X21166Y6075
X20476Y6765
X19586Y6485
X19086Y6485
X18586Y6485
X18586Y5985
X19086Y5985
X19586Y5985
X16726Y7965
X16336Y8485
X15836Y8485
X16366Y9015
X17086Y8985
X17336Y9235
X17086Y9485
X18496Y9015
X15336Y9485
X15086Y9235
X14836Y8985
X14586Y8735
X13336Y7985
X13086Y7985
X13086Y8235
X12836Y8235
X12836Y8485
X12586Y8485
X14836Y6735
X14586Y6485
X14336Y6235
X14086Y5985
X13836Y5735
X14586Y5235
X14836Y5485
X15086Y5735
X15336Y5985
X15586Y6235
X13486Y4815
X14336Y4485
X14836Y4485
X15586Y4485
X15086Y3235
X14586Y3235
X14086Y3235
X13836Y2985
X16306Y3315
X19726Y2415
X20146Y2475
X21406Y2415
X24586Y9485
X24586Y9985
X24586Y10485
X24586Y10985
X23116Y9735
X8806Y6735
X8336Y6735
T02
X21141Y16054
X23031Y16054
T03
X5086Y4235
X6086Y4235
X6086Y5235
X5086Y5235
X5086Y6235
X6086Y6235
X6086Y7235
X5086Y7235
X5086Y8235
X6086Y8235
X6086Y9235
X5086Y9235
X5086Y10235
X6086Y10235
X6086Y11235
X5086Y11235
X4586Y15235
X5586Y15235
X6586Y15235
X7586Y15235
X8586Y15235
X9586Y15235
X10586Y15235
X11586Y15235
X12586Y15235
X13586Y15235
X14586Y15235
X15586Y15235
X16586Y15235
X17586Y15235
X18586Y15235
X18586Y16235
X17586Y16235
X16586Y16235
X15586Y16235
X14586Y16235
X13586Y16235
X12586Y16235
X11586Y16235
X10586Y16235
X9586Y16235
X8586Y16235
X7586Y16235
X6586Y16235
X5586Y16235
X4586Y16235
T04
X21082Y17235
X23090Y17235
T05
X25086Y16735
X25086Y15735
T06
X26336Y6485
M30
