G75*
G70*
%OFA0B0*%
%FSLAX24Y24*%
%IPPOS*%
%LPD*%
%AMOC8*
5,1,8,0,0,1.08239X$1,22.5*
%
%ADD10R,0.0512X0.0118*%
%ADD11R,0.0118X0.0512*%
%ADD12R,0.0492X0.0492*%
%ADD13R,0.0157X0.0709*%
%ADD14R,0.0394X0.0787*%
%ADD15R,0.0394X0.0197*%
%ADD16R,0.0591X0.0138*%
%ADD17R,0.0315X0.0157*%
%ADD18R,0.0315X0.0236*%
%ADD19R,0.0236X0.0315*%
%ADD20R,0.0157X0.0315*%
%ADD21R,0.0945X0.0787*%
%ADD22R,0.0236X0.0256*%
%ADD23R,0.0236X0.0197*%
%ADD24R,0.0256X0.0236*%
%ADD25R,0.0197X0.0236*%
%ADD26R,0.0276X0.0512*%
D10*
X008140Y008694D03*
X008140Y008950D03*
X008140Y009206D03*
X008140Y009462D03*
X008140Y009718D03*
X008140Y009974D03*
X008140Y010230D03*
X008140Y010486D03*
X010955Y010486D03*
X010955Y010230D03*
X010955Y009974D03*
X010955Y009718D03*
X010955Y009462D03*
X010955Y009206D03*
X010955Y008950D03*
X010955Y008694D03*
D11*
X010443Y008183D03*
X010187Y008183D03*
X009931Y008183D03*
X009676Y008183D03*
X009420Y008183D03*
X009164Y008183D03*
X008908Y008183D03*
X008652Y008183D03*
X008652Y010998D03*
X008908Y010998D03*
X009164Y010998D03*
X009420Y010998D03*
X009676Y010998D03*
X009931Y010998D03*
X010187Y010998D03*
X010443Y010998D03*
D12*
X009991Y010033D03*
X009991Y009147D03*
X009105Y009147D03*
X009105Y010033D03*
D13*
X009054Y004193D03*
X009309Y004193D03*
X008798Y004193D03*
X008542Y004193D03*
X008286Y004193D03*
D14*
X008542Y003090D03*
X009054Y003090D03*
D15*
X009743Y004035D03*
X007853Y004035D03*
D16*
X007794Y003356D03*
X007794Y002824D03*
X009802Y002824D03*
X009802Y003356D03*
D17*
X007809Y005966D03*
X007809Y006340D03*
X007809Y006714D03*
X006786Y006714D03*
X006786Y005966D03*
X012536Y005966D03*
X012536Y006714D03*
X012536Y007466D03*
X012536Y008214D03*
X013559Y007840D03*
X013559Y006340D03*
D18*
X004298Y003525D03*
X004798Y003525D03*
X004798Y004155D03*
X004798Y004525D03*
X004298Y004525D03*
X004298Y004155D03*
X004298Y005155D03*
X004798Y005155D03*
X006298Y005275D03*
X006298Y005905D03*
X009298Y006025D03*
X009798Y006025D03*
X009798Y006655D03*
X009298Y006655D03*
X012048Y006655D03*
X012048Y006025D03*
X012048Y007525D03*
X012048Y008155D03*
X013798Y008275D03*
X013798Y008905D03*
X013798Y007405D03*
X013798Y006775D03*
X009418Y011775D03*
X009418Y012405D03*
D19*
X009733Y005590D03*
X010363Y005590D03*
X007863Y005340D03*
X007233Y005340D03*
D20*
X010424Y006852D03*
X011172Y006852D03*
X010798Y005828D03*
D21*
X006298Y008803D03*
X006298Y010378D03*
D22*
X011983Y010328D03*
X012573Y010328D03*
X012573Y011352D03*
X011983Y011352D03*
D23*
X011983Y010998D03*
X011983Y010683D03*
X012573Y010683D03*
X012573Y010998D03*
D24*
X012286Y009866D03*
X012286Y009275D03*
X013309Y009275D03*
X013309Y009866D03*
D25*
X012955Y009866D03*
X012640Y009866D03*
X012640Y009275D03*
X012955Y009275D03*
D26*
X004691Y009513D03*
X003904Y009513D03*
X003904Y008167D03*
X004691Y008167D03*
X004691Y006513D03*
X003904Y006513D03*
X003904Y011167D03*
X004691Y011167D03*
M02*
