G75*
G70*
%OFA0B0*%
%FSLAX24Y24*%
%IPPOS*%
%LPD*%
%AMOC8*
5,1,8,0,0,1.08239X$1,22.5*
%
%ADD10C,0.0000*%
%ADD11C,0.0060*%
%ADD12C,0.0040*%
D10*
X003298Y003754D02*
X003298Y015926D01*
X003300Y016000D01*
X003306Y016074D01*
X003315Y016147D01*
X003329Y016220D01*
X003346Y016292D01*
X003367Y016363D01*
X003392Y016433D01*
X003420Y016501D01*
X003452Y016568D01*
X003487Y016633D01*
X003526Y016696D01*
X003568Y016757D01*
X003613Y016816D01*
X003661Y016872D01*
X003712Y016926D01*
X003766Y016977D01*
X003822Y017025D01*
X003881Y017070D01*
X003942Y017112D01*
X004005Y017151D01*
X004070Y017186D01*
X004137Y017218D01*
X004205Y017246D01*
X004275Y017271D01*
X004346Y017292D01*
X004418Y017309D01*
X004491Y017323D01*
X004564Y017332D01*
X004638Y017338D01*
X004712Y017340D01*
X012883Y017340D01*
X012957Y017338D01*
X013031Y017332D01*
X013104Y017323D01*
X013177Y017309D01*
X013249Y017292D01*
X013320Y017271D01*
X013390Y017246D01*
X013458Y017218D01*
X013525Y017186D01*
X013590Y017151D01*
X013653Y017112D01*
X013714Y017070D01*
X013773Y017025D01*
X013829Y016977D01*
X013883Y016926D01*
X013934Y016872D01*
X013982Y016816D01*
X014027Y016757D01*
X014069Y016696D01*
X014108Y016633D01*
X014143Y016568D01*
X014175Y016501D01*
X014203Y016433D01*
X014228Y016363D01*
X014249Y016292D01*
X014266Y016220D01*
X014280Y016147D01*
X014289Y016074D01*
X014295Y016000D01*
X014297Y015926D01*
X014298Y015926D02*
X014298Y003754D01*
X014297Y003754D02*
X014295Y003680D01*
X014289Y003606D01*
X014280Y003533D01*
X014266Y003460D01*
X014249Y003388D01*
X014228Y003317D01*
X014203Y003247D01*
X014175Y003179D01*
X014143Y003112D01*
X014108Y003047D01*
X014069Y002984D01*
X014027Y002923D01*
X013982Y002864D01*
X013934Y002808D01*
X013883Y002754D01*
X013829Y002703D01*
X013773Y002655D01*
X013714Y002610D01*
X013653Y002568D01*
X013590Y002529D01*
X013525Y002494D01*
X013458Y002462D01*
X013390Y002434D01*
X013320Y002409D01*
X013249Y002388D01*
X013177Y002371D01*
X013104Y002357D01*
X013031Y002348D01*
X012957Y002342D01*
X012883Y002340D01*
X004712Y002340D01*
X004638Y002342D01*
X004564Y002348D01*
X004491Y002357D01*
X004418Y002371D01*
X004346Y002388D01*
X004275Y002409D01*
X004205Y002434D01*
X004137Y002462D01*
X004070Y002494D01*
X004005Y002529D01*
X003942Y002568D01*
X003881Y002610D01*
X003822Y002655D01*
X003766Y002703D01*
X003712Y002754D01*
X003661Y002808D01*
X003613Y002864D01*
X003568Y002923D01*
X003526Y002984D01*
X003487Y003047D01*
X003452Y003112D01*
X003420Y003179D01*
X003392Y003247D01*
X003367Y003317D01*
X003346Y003388D01*
X003329Y003460D01*
X003315Y003533D01*
X003306Y003606D01*
X003300Y003680D01*
X003298Y003754D01*
X009053Y015340D02*
X009055Y015383D01*
X009061Y015426D01*
X009071Y015469D01*
X009085Y015510D01*
X009103Y015549D01*
X009124Y015587D01*
X009149Y015623D01*
X009177Y015656D01*
X009208Y015686D01*
X009242Y015713D01*
X009278Y015737D01*
X009317Y015758D01*
X009357Y015775D01*
X009398Y015788D01*
X009440Y015797D01*
X009483Y015802D01*
X009527Y015803D01*
X009570Y015800D01*
X009613Y015793D01*
X009655Y015782D01*
X009696Y015767D01*
X009735Y015748D01*
X009772Y015726D01*
X009807Y015700D01*
X009840Y015671D01*
X009869Y015639D01*
X009896Y015605D01*
X009919Y015568D01*
X009938Y015530D01*
X009954Y015489D01*
X009966Y015448D01*
X009974Y015405D01*
X009978Y015362D01*
X009978Y015318D01*
X009974Y015275D01*
X009966Y015232D01*
X009954Y015191D01*
X009938Y015150D01*
X009919Y015112D01*
X009896Y015075D01*
X009869Y015041D01*
X009840Y015009D01*
X009807Y014980D01*
X009772Y014954D01*
X009735Y014932D01*
X009696Y014913D01*
X009655Y014898D01*
X009613Y014887D01*
X009570Y014880D01*
X009527Y014877D01*
X009483Y014878D01*
X009440Y014883D01*
X009398Y014892D01*
X009357Y014905D01*
X009317Y014922D01*
X009278Y014943D01*
X009242Y014967D01*
X009208Y014994D01*
X009177Y015024D01*
X009149Y015057D01*
X009124Y015093D01*
X009103Y015131D01*
X009085Y015170D01*
X009071Y015211D01*
X009061Y015254D01*
X009055Y015297D01*
X009053Y015340D01*
X012656Y015320D02*
X012658Y015363D01*
X012664Y015406D01*
X012674Y015449D01*
X012688Y015490D01*
X012706Y015529D01*
X012727Y015567D01*
X012752Y015603D01*
X012780Y015636D01*
X012811Y015666D01*
X012845Y015693D01*
X012881Y015717D01*
X012920Y015738D01*
X012960Y015755D01*
X013001Y015768D01*
X013043Y015777D01*
X013086Y015782D01*
X013130Y015783D01*
X013173Y015780D01*
X013216Y015773D01*
X013258Y015762D01*
X013299Y015747D01*
X013338Y015728D01*
X013375Y015706D01*
X013410Y015680D01*
X013443Y015651D01*
X013472Y015619D01*
X013499Y015585D01*
X013522Y015548D01*
X013541Y015510D01*
X013557Y015469D01*
X013569Y015428D01*
X013577Y015385D01*
X013581Y015342D01*
X013581Y015298D01*
X013577Y015255D01*
X013569Y015212D01*
X013557Y015171D01*
X013541Y015130D01*
X013522Y015092D01*
X013499Y015055D01*
X013472Y015021D01*
X013443Y014989D01*
X013410Y014960D01*
X013375Y014934D01*
X013338Y014912D01*
X013299Y014893D01*
X013258Y014878D01*
X013216Y014867D01*
X013173Y014860D01*
X013130Y014857D01*
X013086Y014858D01*
X013043Y014863D01*
X013001Y014872D01*
X012960Y014885D01*
X012920Y014902D01*
X012881Y014923D01*
X012845Y014947D01*
X012811Y014974D01*
X012780Y015004D01*
X012752Y015037D01*
X012727Y015073D01*
X012706Y015111D01*
X012688Y015150D01*
X012674Y015191D01*
X012664Y015234D01*
X012658Y015277D01*
X012656Y015320D01*
D11*
X004825Y007739D02*
X004718Y007739D01*
X004505Y007739D02*
X004505Y007632D01*
X004505Y007739D02*
X004078Y007739D01*
X004078Y007845D02*
X004078Y007632D01*
X004505Y007415D02*
X004505Y007308D01*
X004291Y007095D01*
X004078Y007095D02*
X004505Y007095D01*
X004611Y006877D02*
X004718Y006770D01*
X004718Y006450D01*
X004078Y006450D01*
X004078Y006770D01*
X004184Y006877D01*
X004611Y006877D01*
X004505Y006233D02*
X004078Y005806D01*
X004078Y005589D02*
X004078Y005376D01*
X004078Y005483D02*
X004505Y005483D01*
X004505Y005376D01*
X004505Y005159D02*
X004505Y005052D01*
X004291Y004839D01*
X004078Y004839D02*
X004505Y004839D01*
X004505Y004623D02*
X004505Y004409D01*
X004611Y004516D02*
X004184Y004516D01*
X004078Y004623D01*
X004078Y004192D02*
X004078Y003871D01*
X004184Y003765D01*
X004291Y003871D01*
X004291Y004192D01*
X004398Y004192D02*
X004078Y004192D01*
X004398Y004192D02*
X004505Y004085D01*
X004505Y003871D01*
X004718Y003547D02*
X004078Y003547D01*
X004505Y003334D02*
X004718Y003547D01*
X004505Y003334D02*
X004718Y003120D01*
X004078Y003120D01*
X004718Y005483D02*
X004825Y005483D01*
X004505Y005806D02*
X004078Y006233D01*
X004505Y008061D02*
X004078Y008275D01*
X004505Y008489D01*
X004398Y008706D02*
X004505Y008813D01*
X004505Y009026D01*
X004398Y009133D01*
X004291Y009133D01*
X004291Y008706D01*
X004184Y008706D02*
X004398Y008706D01*
X004184Y008706D02*
X004078Y008813D01*
X004078Y009026D01*
X004078Y009351D02*
X004505Y009351D01*
X004505Y009564D02*
X004505Y009671D01*
X004505Y009564D02*
X004291Y009351D01*
X004718Y010532D02*
X004718Y010959D01*
X004718Y010746D02*
X004078Y010746D01*
X004184Y011177D02*
X004398Y011177D01*
X004505Y011283D01*
X004505Y011497D01*
X004398Y011604D01*
X004291Y011604D01*
X004291Y011177D01*
X004184Y011177D02*
X004078Y011283D01*
X004078Y011497D01*
X004078Y011821D02*
X004078Y012141D01*
X004184Y012248D01*
X004291Y012141D01*
X004291Y011928D01*
X004398Y011821D01*
X004505Y011928D01*
X004505Y012248D01*
X004505Y012466D02*
X004505Y012679D01*
X004611Y012572D02*
X004184Y012572D01*
X004078Y012679D01*
X004078Y013540D02*
X004718Y013540D01*
X004718Y013860D01*
X004611Y013967D01*
X004398Y013967D01*
X004291Y013860D01*
X004291Y013540D01*
X004291Y013753D02*
X004078Y013967D01*
X004184Y014184D02*
X004398Y014184D01*
X004505Y014291D01*
X004505Y014505D01*
X004398Y014611D01*
X004291Y014611D01*
X004291Y014184D01*
X004184Y014184D02*
X004078Y014291D01*
X004078Y014505D01*
X004505Y014829D02*
X004078Y015043D01*
X004505Y015256D01*
X004505Y015474D02*
X004718Y015687D01*
X004078Y015687D01*
X004078Y015474D02*
X004078Y015901D01*
X004184Y016118D02*
X004291Y016225D01*
X004291Y016545D01*
X004398Y016545D02*
X004078Y016545D01*
X004078Y016225D01*
X004184Y016118D01*
X004505Y016225D02*
X004505Y016438D01*
X004398Y016545D01*
D12*
X010894Y010331D02*
X010981Y010418D01*
X011415Y010418D01*
X011415Y010158D01*
X011328Y010071D01*
X011154Y010071D01*
X011068Y010158D01*
X011068Y010418D01*
X010894Y010331D02*
X010894Y010245D01*
X011415Y009902D02*
X011415Y009815D01*
X011241Y009641D01*
X011068Y009641D02*
X011415Y009641D01*
X011328Y009473D02*
X011415Y009386D01*
X011415Y009212D01*
X011328Y009126D01*
X011154Y009126D01*
X011068Y009212D01*
X011068Y009386D01*
X011154Y009473D01*
X011328Y009473D01*
X011154Y008955D02*
X011068Y008955D01*
X011068Y008868D01*
X011154Y008868D01*
X011154Y008955D01*
X011068Y008698D02*
X011154Y008611D01*
X011501Y008611D01*
X011415Y008524D02*
X011415Y008698D01*
X011415Y008267D02*
X011068Y008267D01*
X011068Y008180D02*
X011068Y008354D01*
X011068Y008011D02*
X011241Y007751D01*
X011415Y008011D01*
X011415Y008180D02*
X011415Y008267D01*
X011588Y008267D02*
X011675Y008267D01*
X011588Y007751D02*
X011068Y007751D01*
X011068Y007581D02*
X011241Y007321D01*
X011415Y007581D01*
X011588Y007321D02*
X011068Y007321D01*
X011068Y007152D02*
X011068Y006892D01*
X011154Y006805D01*
X011241Y006892D01*
X011241Y007152D01*
X011328Y007152D02*
X011068Y007152D01*
X011328Y007152D02*
X011415Y007066D01*
X011415Y006892D01*
X011501Y006637D02*
X011328Y006637D01*
X011241Y006550D01*
X011415Y006550D01*
X011415Y006377D01*
X011241Y006377D01*
X011241Y006550D01*
X011154Y006637D02*
X011068Y006550D01*
X011068Y006377D01*
X011154Y006290D01*
X011501Y006290D01*
X011588Y006377D01*
X011588Y006550D01*
X011501Y006637D01*
X011415Y006120D02*
X011415Y006034D01*
X011241Y005860D01*
X011068Y005860D02*
X011415Y005860D01*
X011415Y005603D02*
X011068Y005603D01*
X011068Y005516D02*
X011068Y005690D01*
X011068Y005348D02*
X011068Y005088D01*
X011154Y005001D01*
X011241Y005088D01*
X011241Y005348D01*
X011328Y005348D02*
X011068Y005348D01*
X011328Y005348D02*
X011415Y005261D01*
X011415Y005088D01*
X011415Y004831D02*
X011415Y004657D01*
X011501Y004744D02*
X011154Y004744D01*
X011068Y004831D01*
X011154Y004488D02*
X011241Y004402D01*
X011241Y004228D01*
X011328Y004141D01*
X011415Y004228D01*
X011415Y004488D01*
X011154Y004488D02*
X011068Y004402D01*
X011068Y004141D01*
X011068Y003973D02*
X011068Y003713D01*
X011154Y003626D01*
X011328Y003626D01*
X011415Y003713D01*
X011415Y003973D01*
X010981Y003973D01*
X010894Y003886D01*
X010894Y003799D01*
X011154Y003457D02*
X011241Y003370D01*
X011241Y003197D01*
X011328Y003110D01*
X011415Y003197D01*
X011415Y003457D01*
X011154Y003457D02*
X011068Y003370D01*
X011068Y003110D01*
X012318Y003197D02*
X012404Y003110D01*
X012318Y003197D02*
X012318Y003370D01*
X012404Y003457D01*
X012491Y003457D01*
X012578Y003370D01*
X012578Y003197D01*
X012665Y003110D01*
X012751Y003110D01*
X012838Y003197D01*
X012838Y003370D01*
X012751Y003457D01*
X012665Y003626D02*
X012665Y003799D01*
X012751Y003713D02*
X012404Y003713D01*
X012318Y003799D01*
X012404Y003970D02*
X012318Y004056D01*
X012318Y004230D01*
X012491Y004316D02*
X012491Y003970D01*
X012404Y003970D02*
X012578Y003970D01*
X012665Y004056D01*
X012665Y004230D01*
X012578Y004316D01*
X012491Y004316D01*
X012318Y004485D02*
X012318Y004745D01*
X012404Y004832D01*
X012578Y004832D01*
X012665Y004745D01*
X012665Y004485D01*
X012144Y004485D01*
X012318Y005001D02*
X012838Y005001D01*
X012665Y005088D02*
X012665Y005261D01*
X012578Y005348D01*
X012318Y005348D01*
X012404Y005516D02*
X012318Y005603D01*
X012318Y005777D01*
X012491Y005863D02*
X012491Y005516D01*
X012404Y005516D02*
X012578Y005516D01*
X012665Y005603D01*
X012665Y005777D01*
X012578Y005863D01*
X012491Y005863D01*
X012318Y006032D02*
X012665Y006032D01*
X012665Y006292D01*
X012578Y006379D01*
X012318Y006379D01*
X012404Y007063D02*
X012318Y007150D01*
X012318Y007324D01*
X012404Y007410D01*
X012491Y007410D01*
X012578Y007324D01*
X012578Y007150D01*
X012665Y007063D01*
X012751Y007063D01*
X012838Y007150D01*
X012838Y007324D01*
X012751Y007410D01*
X012665Y007579D02*
X012665Y007752D01*
X012751Y007666D02*
X012404Y007666D01*
X012318Y007752D01*
X012404Y007923D02*
X012318Y008009D01*
X012318Y008270D01*
X012578Y008270D01*
X012665Y008183D01*
X012665Y008009D01*
X012491Y008009D02*
X012491Y008270D01*
X012318Y008438D02*
X012318Y008612D01*
X012318Y008525D02*
X012665Y008525D01*
X012665Y008438D01*
X012838Y008525D02*
X012925Y008525D01*
X012665Y008782D02*
X012318Y008782D01*
X012491Y008782D02*
X012665Y008956D01*
X012665Y009042D01*
X012751Y009727D02*
X012838Y009814D01*
X012838Y009988D01*
X012751Y010074D01*
X012665Y010074D01*
X012318Y009727D01*
X012318Y010074D01*
X012404Y010243D02*
X012318Y010330D01*
X012318Y010503D01*
X012404Y010590D01*
X012751Y010590D01*
X012404Y010243D01*
X012751Y010243D01*
X012838Y010330D01*
X012838Y010503D01*
X012751Y010590D01*
X012665Y010759D02*
X012838Y010932D01*
X012318Y010932D01*
X012318Y010759D02*
X012318Y011106D01*
X012404Y011274D02*
X012318Y011361D01*
X012318Y011534D01*
X012404Y011621D01*
X012491Y011621D01*
X012578Y011534D01*
X012578Y011274D01*
X012404Y011274D01*
X012578Y011274D02*
X012751Y011448D01*
X012838Y011621D01*
X012491Y008009D02*
X012404Y007923D01*
X011675Y005603D02*
X011588Y005603D01*
X011415Y005603D02*
X011415Y005516D01*
X012578Y005001D02*
X012665Y005088D01*
M02*
