%
M48
M72
T01C0.0130
T02C0.0276
T03C0.0433
T04C0.0925
%
T01
X4048Y5840
X5838Y7220
X5838Y7640
X5548Y8840
X5548Y9590
X5548Y10340
X7158Y11660
X7398Y11060
X7798Y10840
X9048Y10090
X9548Y9590
X10048Y9090
X10048Y10090
X9048Y9090
X8178Y8060
X7818Y8420
X7488Y8600
X7458Y9140
X8538Y7460
X8778Y7220
X8548Y6340
X8898Y5540
X8328Y4970
X7298Y5840
X7298Y6340
X7298Y6840
X6798Y6340
X6798Y5340
X6798Y4840
X6298Y4840
X9978Y7400
X11298Y8300
X11778Y8660
X11658Y9140
X11548Y7590
X13048Y8340
X13048Y10340
X13548Y10340
X13548Y10840
X12298Y11840
X12048Y12090
X11048Y11840
X11048Y11340
X11048Y12340
X9408Y11480
X9048Y12590
X9298Y12840
X8798Y12840
X8298Y12860
X7938Y12860
X7458Y12860
X7098Y12860
X10188Y4970
X10608Y4580
T02
X9743Y4271
X7853Y4271
X7685Y14061
X8473Y14061
X8867Y14848
X8079Y14848
X7292Y14848
X6504Y14848
X6111Y14061
X5323Y14061
X4930Y14848
X5717Y14848
X5717Y15832
X6111Y16620
X6504Y15832
X6898Y16620
X7292Y15832
X7685Y16620
X8079Y15832
X8473Y16620
X8867Y15832
X10048Y16620
X10441Y15832
X10835Y16620
X11229Y15832
X11622Y16620
X12016Y15832
X12410Y16620
X12016Y14848
X11229Y14848
X11622Y14061
X10835Y14061
X10048Y14061
X10441Y14848
X12410Y14061
X6898Y14061
X4930Y15832
X5323Y16620
T03
X7794Y3090
X9802Y3090
T04
X9516Y15340
X13119Y15320
M30
